<?xml version="1.0" encoding="UTF-8" standalone="no"?>
<svg version="1.1" xmlns="http://www.w3.org/2000/svg" xmlns:xlink="http://www.w3.org/1999/xlink">
   <symbol id="close" viewBox="0 0 17 17" >
         <g id="Icons" stroke="none" stroke-width="1" fill="none" fill-rule="evenodd" stroke-linecap="round">
        <g id="24-px-Icons" transform="translate(-364.000000, -124.000000)" stroke="#000000">
            <g id="ic_cancel" transform="translate(360.000000, 120.000000)">
                <g id="cross">
                    <g transform="translate(5.000000, 5.000000)" stroke-width="2">
                        <path d="M0,0 L14.1421356,14.1421356" id="Line"></path>
                        <path d="M14,0 L1.77635684e-15,14" id="Line"></path>
                    </g>
                </g>
            </g>
        </g>
    </g>
    </symbol>

    <symbol id="telegram" viewBox="0 0 24 20" >
        <path d="M9.02623 13.0828L8.64577 18.4802C9.19011 18.4802 9.42587 18.2444 9.70858 17.9612L12.2607 15.5012L17.5489 19.4072C18.5188 19.9523 19.2021 19.6653 19.4637 18.5073L22.9349 2.10235L22.9358 2.10138C23.2435 0.655363 22.4173 0.0899093 21.4724 0.444647L1.069 8.32331C-0.323492 8.86846 -0.302408 9.6514 0.832286 10.0061L6.04862 11.6426L18.1651 3.99589C18.7353 3.61506 19.2538 3.82577 18.8273 4.20661L9.02623 13.0828Z"/>
    </symbol>

    <symbol id="whatsapp"  viewBox="0 0 23 24" >
      <path d="M19.6654 3.68502C17.4804 1.53988 14.6054 0.328125 11.5436 0.328125C2.75578 0.328125 -2.76223 9.9978 1.62592 17.6897L0.000610352 23.6872L6.07158 22.0793C8.71654 23.5305 10.8833 23.402 11.5493 23.4877C21.7392 23.4877 26.8116 10.9672 19.651 3.72297L19.6654 3.68502Z" fill="#ECEFF1"/>
     <path d="M11.5645 21.4992L11.5587 21.4982H11.5434C8.494 21.4982 6.54573 20.0314 6.35407 19.9468L2.76037 20.8957L3.72348 17.3481L3.49444 16.9831C2.5457 15.4492 2.04163 13.6827 2.04163 11.8636C2.04163 3.3054 12.3388 -0.974165 18.2976 5.07485C24.2421 11.0606 20.0686 21.4992 11.5645 21.4992Z" />
     <path d="M16.7792 14.2539L16.7705 14.3269C16.4821 14.1809 15.0772 13.4831 14.8156 13.3867C14.2281 13.1658 14.3939 13.3517 13.2659 14.6637C13.0982 14.8535 12.9315 14.8681 12.6469 14.7367C12.3594 14.5907 11.4365 14.2841 10.344 13.2913C9.49302 12.5176 8.92186 11.5686 8.75319 11.2766C8.4724 10.7841 9.05986 10.714 9.5946 9.68624C9.69043 9.48185 9.64156 9.32126 9.57064 9.17624C9.49877 9.03024 8.92665 7.5995 8.68707 7.02915C8.45707 6.46075 8.22036 6.53277 8.04307 6.53277C7.49108 6.48411 7.08762 6.49189 6.73208 6.86758C5.18535 8.59421 5.57539 10.3753 6.89883 12.2694C9.49973 15.7265 10.8855 16.363 13.4193 17.2468C14.1035 17.4677 14.7274 17.4366 15.2209 17.3646C15.771 17.276 16.9143 16.6628 17.1529 15.9766C17.3973 15.2905 17.3973 14.7211 17.3254 14.5897C17.2545 14.4583 17.0667 14.3853 16.7792 14.2539Z" fill="#FAFAFA"/>
    </symbol>

    <symbol id="skype" viewBox="0 0 23 24" >
       <path d="M22.3339 14.2102C23.9992 6.60949 17.4435 -0.295359 9.74471 1.03014C5.56522 -1.60431 0.000244141 1.3727 0.000244141 6.42361C0.000244141 7.59826 0.319311 8.69797 0.874084 9.64587C-0.673341 17.2641 5.93603 24.0696 13.6281 22.6536C14.525 23.1354 15.5483 23.4098 16.6358 23.4098C21.3777 23.4098 24.4141 18.4144 22.3339 14.2102ZM11.5901 19.3993C9.34611 19.3993 7.15385 18.8494 5.8565 16.9672C3.92294 14.1897 6.4726 12.8 7.72395 13.8588C8.76834 14.7532 8.44065 16.9166 11.5077 16.9166C12.8597 16.9166 14.5288 16.3308 14.5288 14.9693C14.5288 12.2297 8.54509 13.526 6.16599 10.5393C5.29215 9.44539 5.12734 7.51554 6.20048 6.11608C8.0708 3.6714 13.5591 3.5225 15.9191 5.36866C18.0979 7.08149 17.5096 9.35488 15.7514 9.35488C13.6367 9.35488 14.7482 6.54428 11.3343 6.54428C8.85937 6.54428 7.88588 8.33205 9.62877 9.20209C11.9485 10.3719 18.0126 10.0069 18.0126 14.6549C18.005 17.922 14.9015 19.3993 11.5901 19.3993Z"/>
    </symbol>

    <symbol id="vk" viewBox="0 0 24 15" >
        <path d="M19.111 8.54179C18.7387 8.07157 18.8452 7.86237 19.111 7.44206C19.1158 7.43726 22.1895 3.18994 22.5062 1.74954L22.5081 1.74858C22.6655 1.22366 22.5081 0.837891 21.7471 0.837891H19.229C18.588 0.837891 18.2924 1.16896 18.1341 1.53938C18.1341 1.53938 16.852 4.60827 15.0383 6.59758C14.453 7.1724 14.1824 7.35665 13.8628 7.35665C13.7054 7.35665 13.4607 7.1724 13.4607 6.64748V1.74858C13.4607 1.11906 13.2813 0.837891 12.7506 0.837891H8.79116C8.38908 0.837891 8.15013 1.13154 8.15013 1.40503C8.15013 2.00192 9.05698 2.13915 9.15102 3.8185V7.46221C9.15102 8.26062 9.00612 8.40744 8.68464 8.40744C7.82865 8.40744 5.75106 5.32607 4.51985 1.79944C4.27131 1.11522 4.02852 0.83885 3.38269 0.83885H0.863666C0.144904 0.83885 0 1.16992 0 1.54034C0 2.19481 0.855989 5.44891 3.98054 9.74804C6.06293 12.6826 8.99556 14.2727 11.6633 14.2727C13.2669 14.2727 13.4626 13.9196 13.4626 13.3121C13.4626 10.5081 13.3177 10.2432 14.1209 10.2432C14.4933 10.2432 15.1343 10.4275 16.6313 11.8429C18.3423 13.5213 18.6235 14.2727 19.5812 14.2727H22.0993C22.8171 14.2727 23.1808 13.9196 22.9716 13.2229C22.4927 11.7575 19.2569 8.74331 19.111 8.54179Z" />
    </symbol>

    <symbol id="instagram" viewBox="0 0 24 24" >
        <path d="M11.6591 0.661608C6.89649 0.661608 2.37388 0.237942 0.646422 4.67136C-0.0671222 6.50244 0.0364992 8.88048 0.0364992 12.2856C0.0364992 15.2735 -0.0592522 18.0818 0.646422 19.8984C2.36994 24.3345 6.92928 23.9095 11.6565 23.9095C16.2172 23.9095 20.9195 24.3843 22.6679 19.8984C23.3828 18.049 23.2778 15.7064 23.2778 12.2856C23.2778 7.74458 23.5284 4.81302 21.3261 2.61205C19.0963 0.382224 16.0807 0.661608 11.6539 0.661608H11.6591ZM10.6177 2.75633C20.5522 2.74059 21.8166 1.63617 21.1188 16.9787C20.8709 22.405 16.7392 21.8095 11.6604 21.8095C2.40011 21.8095 2.13385 21.5446 2.13385 12.2803C2.13385 2.90848 2.86838 2.76158 10.6177 2.75371V2.75633ZM17.8633 4.68578C17.0933 4.68578 16.469 5.31014 16.469 6.08008C16.469 6.85003 17.0933 7.47438 17.8633 7.47438C18.6332 7.47438 19.2576 6.85003 19.2576 6.08008C19.2576 5.31014 18.6332 4.68578 17.8633 4.68578ZM11.6591 6.31618C8.36293 6.31618 5.69107 8.98935 5.69107 12.2856C5.69107 15.5818 8.36293 18.2536 11.6591 18.2536C14.9553 18.2536 17.6259 15.5818 17.6259 12.2856C17.6259 8.98935 14.9553 6.31618 11.6591 6.31618ZM11.6591 8.4109C16.7812 8.4109 16.7877 16.1602 11.6591 16.1602C6.5384 16.1602 6.53053 8.4109 11.6591 8.4109Z"/>
    </symbol>

    <symbol id="youtube" viewBox="0 0 24 18" >
        <path d="M0.816469 14.6918C1.29909 16.4036 2.77551 16.7168 2.874 16.7769C5.30384 17.4388 18.9236 17.4408 21.3898 16.7769C23.079 16.2884 23.3893 14.7903 23.4474 14.6918C24.0905 11.2701 24.1329 6.80936 23.4178 2.92673L23.4474 3.11978C22.9648 1.40796 21.4883 1.09475 21.3898 1.03467C18.9925 0.383625 5.33733 0.359002 2.874 1.03467C1.18484 1.52418 0.87458 3.02129 0.816469 3.11978C0.127998 6.71579 0.093525 10.8417 0.816469 14.6918ZM9.76561 12.5023V5.31915L15.9372 8.91614L9.76561 12.5023Z"/>
    </symbol>

     <symbol id="prew" viewBox="0 0 57 25" >
        <path fill-rule="evenodd" clip-rule="evenodd" d="M0.773812 13.8586L16.4297 24.2959L18.3641 21.4013L7.48846 14.1509L56.8916 14.1509L56.8916 10.6718L7.48846 10.6718L18.3641 3.42133L16.4297 0.526737L0.773813 10.964C0.537252 11.1244 0.343305 11.34 0.208738 11.5922C0.0741664 11.8443 0.00303756 12.1255 0.00146207 12.4113C0.00122935 12.6975 0.0715876 12.9793 0.206315 13.2318C0.341043 13.4842 0.535962 13.6995 0.773812 13.8586Z"/>
    </symbol>

     <symbol id="next" viewBox="0 0 58 25" >
        <path fill-rule="evenodd" clip-rule="evenodd" d="M56.8848 10.9641L41.2289 0.526855L39.2945 3.42144L50.1701 10.6719H0.766998V14.151H50.1701L39.2945 21.4014L41.2289 24.296L56.8848 13.8587C57.1213 13.6983 57.3153 13.4827 57.4499 13.2306C57.5844 12.9784 57.6556 12.6972 57.6571 12.4114C57.6574 12.1253 57.587 11.8434 57.4523 11.591C57.3176 11.3385 57.1226 11.1232 56.8848 10.9641Z"/>
    </symbol>

    <symbol id="sun" viewBox="0 0 95 94" >
        <path d="M72.1688 46.9315C72.1688 60.5034 61.1271 71.5451 47.5552 71.5451C33.9832 71.5451 22.9416 60.5034 22.9416 46.9315C22.9416 33.3595 33.9832 22.3179 47.5552 22.3179C61.1271 22.3179 72.1688 33.3595 72.1688 46.9315ZM47.5552 27.7876C36.9992 27.7876 28.4112 36.3755 28.4112 46.9315C28.4112 57.4874 36.9992 66.0754 47.5552 66.0754C58.1111 66.0754 66.6991 57.4874 66.6991 46.9315C66.6991 36.3755 58.1111 27.7876 47.5552 27.7876Z" fill="#E30613"/>
        <path d="M26.282 68.2035C27.3501 69.2716 27.3501 71.0031 26.282 72.0711L13.0771 85.2761C12.0092 86.3441 10.2775 86.3443 9.20949 85.2761C8.14144 84.208 8.14144 82.4765 9.20949 81.4084L22.4144 68.2035C23.4825 67.1353 25.2142 67.1353 26.282 68.2035Z" fill="#E30613"/>
        <path d="M82.0318 8.58668C83.0997 7.51863 84.8314 7.51863 85.8995 8.58668C86.9675 9.65473 86.9675 11.3863 85.8995 12.4543L72.6945 25.6592C71.6267 26.7273 69.895 26.7275 68.8269 25.6592C67.7589 24.5912 67.7589 22.8597 68.8269 21.7916L82.0318 8.58668Z" fill="#E30613"/>
        <path d="M85.8995 85.2764C84.8316 86.3445 83.0999 86.3446 82.0318 85.2764L68.8269 72.0715C67.7589 71.0034 67.7589 69.2719 68.8269 68.2039C69.8948 67.1358 71.6265 67.1358 72.6945 68.2039L85.8995 81.4088C86.9675 82.4768 86.9675 84.2084 85.8995 85.2764Z" fill="#E30613"/>
        <path d="M9.20949 8.58668C10.2774 7.51863 12.0091 7.51863 13.0771 8.58668L26.282 21.7916C27.3501 22.8597 27.3501 24.5912 26.282 25.6592C25.2142 26.7273 23.4825 26.7275 22.4144 25.6592L9.20949 12.4543C8.14144 11.3863 8.14144 9.65473 9.20949 8.58668Z" fill="#E30613"/>
        <path d="M36.0411 74.7252C37.4366 75.3031 38.0991 76.903 37.5212 78.2985L35.4281 83.3518C34.8509 84.7451 33.2523 85.4107 31.8547 84.8319C30.4592 84.2539 29.7967 82.654 30.3747 81.2585L32.4677 76.2053C33.0459 74.8098 34.6456 74.1474 36.0411 74.7252Z" fill="#E30613"/>
        <path d="M59.0662 19.1383C57.6707 18.5603 57.0081 16.9604 57.5861 15.5649L59.6791 10.5117C60.2573 9.11616 61.857 8.45378 63.2525 9.03156C64.648 9.60952 65.3106 11.2094 64.7326 12.6049L62.6395 17.6582C62.0621 19.0515 60.4637 19.7171 59.0662 19.1383Z" fill="#E30613"/>
        <path d="M78.9202 56.9636L83.9734 59.0567C85.3689 59.6346 86.0315 61.2345 85.4535 62.63C84.8763 64.0233 83.2777 64.689 81.8802 64.1101L76.8269 62.017C75.4314 61.4391 74.7689 59.8392 75.3468 58.4437C75.9248 57.0484 77.5245 56.386 78.9202 56.9636Z" fill="#E30613"/>
        <path d="M16.1869 36.8993L11.1336 34.8062C9.73812 34.2282 9.07556 32.6283 9.65352 31.2328C10.2315 29.8373 11.8312 29.175 13.2269 29.7527L18.2801 31.8458C19.6756 32.4238 20.3382 34.0237 19.7602 35.4192C19.183 36.8125 17.5844 37.478 16.1869 36.8993Z" fill="#E30613"/>
        <path d="M62.6395 76.2053L64.7326 81.2585C65.3106 82.654 64.648 84.2537 63.2525 84.8319C61.8513 85.412 60.2549 84.7416 59.6791 83.3518L57.5861 78.2985C57.0081 76.903 57.6707 75.3033 59.0662 74.7252C60.4619 74.1474 62.0616 74.8098 62.6395 76.2053Z" fill="#E30613"/>
        <path d="M32.4677 17.6582L30.3746 12.6049C29.7967 11.2094 30.4592 9.6097 31.8547 9.03156C33.2502 8.45378 34.8499 9.11616 35.4281 10.5117L37.5212 15.5649C38.0991 16.9604 37.4366 18.5601 36.0411 19.1383C34.6399 19.7184 33.0433 19.048 32.4677 17.6582Z" fill="#E30613"/>
        <path d="M76.8269 31.8459L81.8802 29.7528C83.2757 29.1749 84.8754 29.8374 85.4535 31.2329C86.0315 32.6284 85.3689 34.2281 83.9734 34.8063L78.9202 36.8993C77.519 37.4795 75.9226 36.8091 75.3468 35.4192C74.7689 34.0237 75.4314 32.4239 76.8269 31.8459Z" fill="#E30613"/>
        <path d="M11.1336 59.0568L16.1869 56.9637C17.5824 56.3859 19.1821 57.0483 19.7602 58.4438C20.3382 59.8393 19.6756 61.439 18.2801 62.0171L13.2269 64.1102C11.8257 64.6904 10.2293 64.02 9.65352 62.6301C9.07556 61.2346 9.73812 59.6347 11.1336 59.0568Z" fill="#E30613"/>
        <path d="M50.2894 79.749V90.8707C50.2894 92.3811 49.0649 93.6056 47.5545 93.6056C46.0442 93.6056 44.8197 92.3811 44.8197 90.8707V79.749C44.8197 78.2386 46.0442 77.0142 47.5545 77.0142C49.0649 77.0142 50.2894 78.2386 50.2894 79.749Z" fill="#E30613"/>
        <path d="M44.8197 14.1134V2.99168C44.8197 1.48132 46.0442 0.256836 47.5545 0.256836C49.0649 0.256836 50.2894 1.48132 50.2894 2.99168V14.1134C50.2894 15.6237 49.0649 16.8482 47.5545 16.8482C46.0442 16.8482 44.8197 15.6237 44.8197 14.1134Z" fill="#E30613"/>
        <path d="M94.2288 46.9311C94.2288 48.4415 93.0043 49.666 91.494 49.666H80.3723C78.8619 49.666 77.6374 48.4415 77.6374 46.9311C77.6374 45.4208 78.8619 44.1963 80.3723 44.1963H91.494C93.0043 44.1963 94.2288 45.4208 94.2288 46.9311Z" fill="#E30613"/>
        <path d="M3.61538 44.1963H14.7371C16.2474 44.1963 17.4719 45.4208 17.4719 46.9311C17.4719 48.4415 16.2474 49.666 14.7371 49.666H3.61538C2.10501 49.666 0.880529 48.4415 0.880529 46.9311C0.880529 45.4208 2.10501 44.1963 3.61538 44.1963Z" fill="#E30613"/>
    </symbol>

     <symbol id="snow" viewBox="0 0 83 90" >
        <path d="M82.0644 11.2847C81.9362 11.1562 81.6941 11.0726 81.358 11.0726C81.0329 11.0726 80.6202 11.1509 80.1379 11.3426L73.488 13.987C72.7725 14.2712 72.0374 14.7691 71.4172 15.3897L55.1201 31.6867V44.7707L77.9589 21.9319C78.5789 21.3122 79.0771 20.5766 79.3619 19.8608L82.0059 13.2112C82.3966 12.2301 82.3166 11.5369 82.0644 11.2847Z" fill="#E30613"/>
        <path d="M74.1054 77.9896L55.1195 59.0037V72.0874L67.5634 84.5313C68.5741 85.5423 69.7951 86.2598 70.9141 86.5C71.7264 86.6744 72.3859 86.5805 72.7234 86.2422L75.8157 83.1498C76.154 82.8118 76.2479 82.1523 76.0735 81.3403C75.8333 80.2213 75.1161 78.9997 74.1054 77.9896Z" fill="#E30613"/>
        <path d="M27.8041 59.0037L8.81811 77.9896C7.80747 79 7.09024 80.2213 6.84977 81.3403C6.67534 82.1523 6.76924 82.8118 7.10751 83.1498L10.1999 86.2422C10.5376 86.5805 11.1969 86.6741 12.0091 86.5C13.1282 86.2598 14.3495 85.5423 15.3601 84.5316L27.8041 72.0877V59.0037Z" fill="#E30613"/>
        <path d="M27.8032 31.687L11.5064 15.3899C10.8861 14.7694 10.1508 14.2715 9.43606 13.9872L2.78539 11.3426C2.30334 11.1509 1.89039 11.0726 1.56521 11.0726C1.22917 11.0726 0.987026 11.1562 0.85885 11.2847C0.606677 11.5369 0.526706 12.2301 0.917086 13.2112L3.56142 19.8611C3.84591 20.5766 4.34413 21.3122 4.96411 21.9319L27.8029 44.7707V31.687H27.8032Z" fill="#E30613"/>
        <rect x="31.3562" y="1.25378" width="20.031" height="87.0347" rx="10.0155" stroke="#E30613" stroke-width="2"/>
        <rect x="36.4551" y="36.6013" width="9.83241" height="2.68115" fill="#E30613"/>
        <rect x="36.4551" y="51.4968" width="9.83241" height="2.68115" fill="#E30613"/>
            </symbol>

       <symbol id="arrow" viewBox="0 0 35 28" >
        <path d="M0.638061 17.4094L0.638062 27.0681L17.8083 10.5723L34.9786 27.0681L34.9786 17.4094L17.8083 0.91353L0.638061 17.4094Z"/>
    </symbol>

    <symbol id="catalog-price__arrow-up" viewBox="0 0 5 12" >
        <path fill-rule="evenodd" clip-rule="evenodd" d="M2.36742 1.03042L0.423828 3.94581L0.962848 4.30602L2.313 2.28079L2.313 11.4805L2.96086 11.4805L2.96086 2.28079L4.31102 4.30602L4.85003 3.94581L2.90644 1.03042C2.87657 0.986365 2.83642 0.950249 2.78947 0.92519C2.74251 0.900131 2.69015 0.886886 2.63693 0.886593C2.58364 0.886549 2.53116 0.89965 2.48415 0.924739C2.43714 0.949827 2.39705 0.986125 2.36742 1.03042Z" fill="#E30613"/>
    </symbol>

    <symbol id="catalog-price__arrow-down" viewBox="0 0 5 12" >
        <path fill-rule="evenodd" clip-rule="evenodd" d="M2.90644 11.3368L4.85004 8.42138L4.31102 8.06117L2.96087 10.0864L2.96087 0.886719L2.313 0.886719L2.313 10.0864L0.962849 8.06117L0.423829 8.42138L2.36742 11.3368C2.3973 11.3808 2.43744 11.4169 2.4844 11.442C2.53135 11.4671 2.58371 11.4803 2.63694 11.4806C2.69022 11.4806 2.7427 11.4675 2.78971 11.4424C2.83673 11.4174 2.87681 11.3811 2.90644 11.3368Z" fill="#E30613"/>
    </symbol>

     <symbol id="star" viewBox="0 0 23 23" >
        <path d="M11.4443 0.772461L14.1385 9.06426H22.857L15.8036 14.1889L18.4978 22.4807L11.4443 17.3561L4.39091 22.4807L7.08508 14.1889L0.0316582 9.06426H8.75017L11.4443 0.772461Z" />
    </symbol>

     <symbol id="arrow-link" viewBox="0 0 11 8" >
       <path d="M0.84375 3.03195L0.84375 0.380127L5.55786 4.90908L10.272 0.380127L10.272 3.03195L5.55786 7.56089L0.84375 3.03195Z">
    </symbol>
    
</svg>


</svg>

