<svg width="32" height="21" viewBox="0 0 32 21" fill="none" xmlns="http://www.w3.org/2000/svg">
<path d="M11.8682 12.8401C11.8682 9.72152 14.6891 7.18276 18.1581 7.18276C18.8943 7.18055 19.626 7.29697 20.3251 7.52753C21.0624 6.78437 21.9868 6.25423 23.0006 5.99316C22.4437 4.86309 21.517 3.9575 20.3744 3.42675C19.2318 2.89601 17.942 2.77204 16.7192 3.07544C16.5625 3.11471 16.3975 3.10504 16.2465 3.04773C16.0955 2.99043 15.9656 2.88823 15.8744 2.75489C15.1651 1.7233 14.1558 0.934757 12.9833 0.496178C11.8107 0.0575977 10.5317 -0.0098047 9.31955 0.303107C8.1074 0.616019 7.02081 1.29411 6.20707 2.24544C5.39333 3.19678 4.89181 4.37533 4.77052 5.62132C4.75777 5.75794 4.70969 5.88888 4.63101 6.00129C4.55233 6.11369 4.44574 6.20369 4.32175 6.26243C4.24909 6.29804 4.17928 6.33651 4.10378 6.37497C4.03714 6.41179 3.96569 6.43912 3.89149 6.45618C2.85862 6.68892 1.93362 7.26128 1.2644 8.08173C0.582935 8.912 0.212153 9.95382 0.215848 11.0279C0.219998 12.2741 0.718721 13.4676 1.60242 14.3462C2.48612 15.2249 3.6825 15.7167 4.92866 15.7137H10.5874C10.7502 14.7306 11.1957 13.8163 11.8696 13.0823C11.8696 12.9997 11.8682 12.9199 11.8682 12.8401Z" fill="white"/>
<path d="M28.9885 12.9715C28.7907 12.8998 28.6294 12.7526 28.5399 12.5622C28.4505 12.3718 28.4401 12.1537 28.5112 11.9557C28.633 11.6195 28.6952 11.2647 28.695 10.9071C28.695 9.40126 27.598 8.11193 26.0565 7.60475C25.5854 7.44906 25.0923 7.37017 24.5962 7.3711C24.3307 7.37145 24.0657 7.39433 23.8041 7.43949C22.7739 7.59803 21.8404 8.13621 21.187 8.94821C21.0791 9.08731 20.928 9.18659 20.7576 9.23044C20.5871 9.27428 20.4069 9.2602 20.2453 9.19041C19.5861 8.90683 18.8757 8.76137 18.1581 8.763C15.5652 8.763 13.4567 10.5894 13.4567 12.8333C13.4566 12.98 13.4656 13.1265 13.4838 13.2721C13.4988 13.3945 13.4851 13.5187 13.4438 13.6349C13.4025 13.7512 13.3347 13.8562 13.2459 13.9417C12.7388 14.4193 12.3785 15.0316 12.2073 15.7068C12.1448 15.9643 12.1127 16.2283 12.1118 16.4933C12.1118 16.7632 12.1449 17.032 12.2101 17.2939C12.6375 19.0178 14.4141 20.3142 16.534 20.3142H27.286C29.7236 20.3142 31.7024 18.6046 31.7024 16.4933C31.7067 14.9532 30.6396 13.5684 28.9885 12.9715Z" fill="#C4C4C4"/>
</svg>
