<svg width="95" height="94" viewBox="0 0 95 94" fill="none" xmlns="http://www.w3.org/2000/svg">
    <path d="M82.0644 11.2847C81.9362 11.1562 81.6941 11.0726 81.358 11.0726C81.0329 11.0726 80.6202 11.1509 80.1379 11.3426L73.488 13.987C72.7725 14.2712 72.0374 14.7691 71.4172 15.3897L55.1201 31.6867V44.7707L77.9589 21.9319C78.5789 21.3122 79.0771 20.5766 79.3619 19.8608L82.0059 13.2112C82.3966 12.2301 82.3166 11.5369 82.0644 11.2847Z" fill="#E30613"/>
    <path d="M74.1054 77.9896L55.1195 59.0037V72.0874L67.5634 84.5313C68.5741 85.5423 69.7951 86.2598 70.9141 86.5C71.7264 86.6744 72.3859 86.5805 72.7234 86.2422L75.8157 83.1498C76.154 82.8118 76.2479 82.1523 76.0735 81.3403C75.8333 80.2213 75.1161 78.9997 74.1054 77.9896Z" fill="#E30613"/>
    <path d="M27.8041 59.0037L8.81811 77.9896C7.80747 79 7.09024 80.2213 6.84977 81.3403C6.67534 82.1523 6.76924 82.8118 7.10751 83.1498L10.1999 86.2422C10.5376 86.5805 11.1969 86.6741 12.0091 86.5C13.1282 86.2598 14.3495 85.5423 15.3601 84.5316L27.8041 72.0877V59.0037Z" fill="#E30613"/>
    <path d="M27.8032 31.687L11.5064 15.3899C10.8861 14.7694 10.1508 14.2715 9.43606 13.9872L2.78539 11.3426C2.30334 11.1509 1.89039 11.0726 1.56521 11.0726C1.22917 11.0726 0.987026 11.1562 0.85885 11.2847C0.606677 11.5369 0.526706 12.2301 0.917086 13.2112L3.56142 19.8611C3.84591 20.5766 4.34413 21.3122 4.96411 21.9319L27.8029 44.7707V31.687H27.8032Z" fill="#E30613"/>
    <rect x="31.3562" y="1.25378" width="20.031" height="87.0347" rx="10.0155" stroke="#E30613" stroke-width="2"/>
    <rect x="36.4551" y="36.6013" width="9.83241" height="2.68115" fill="#E30613"/>
    <rect x="36.4551" y="51.4968" width="9.83241" height="2.68115" fill="#E30613"/>
</svg>
