<svg width="22" height="21" viewBox="0 0 22 21" fill="none" xmlns="http://www.w3.org/2000/svg">
<path d="M20.266 6.06881C20.1584 5.98737 20.0795 5.87375 20.0408 5.74444C19.7038 4.58545 18.9314 3.60183 17.8854 2.99966C16.8394 2.3975 15.6009 2.22351 14.4295 2.51417C14.3056 2.54456 14.1754 2.53661 14.0561 2.49136C13.9368 2.4461 13.8341 2.36568 13.7616 2.26075C13.1624 1.38846 12.3094 0.721611 11.3183 0.350664C10.3272 -0.0202823 9.24596 -0.0773643 8.2213 0.187162C7.19665 0.451688 6.27817 1.02501 5.59048 1.82936C4.90279 2.63371 4.47918 3.63013 4.37712 4.68345C4.36661 4.79147 4.32831 4.89493 4.26593 4.98375C4.20356 5.07258 4.11925 5.14373 4.02121 5.19029C3.95926 5.21958 3.89731 5.25224 3.83537 5.28603C3.78334 5.31543 3.72713 5.3367 3.66867 5.3491C2.79441 5.54748 2.01171 6.0328 1.44533 6.72771C0.867635 7.43089 0.553355 8.31358 0.556667 9.22362C0.561138 10.279 0.983996 11.2896 1.7325 12.0336C2.481 12.7777 3.49404 13.1945 4.54945 13.1928H17.84C18.8956 13.1945 19.9088 12.7776 20.6573 12.0332C21.4058 11.2889 21.8286 10.2781 21.8327 9.22249C21.8344 8.61127 21.6937 8.00804 21.4218 7.46064C21.1499 6.91324 20.7542 6.43671 20.266 6.06881Z" fill="#C4C4C4"/>
<path d="M4.13257 15.8066C3.98321 15.8066 3.83997 15.866 3.73436 15.9716C3.62875 16.0772 3.56941 16.2204 3.56941 16.3698V17.2337L2.65035 16.9769C2.57675 16.9485 2.498 16.9358 2.41921 16.9398C2.34042 16.9437 2.26334 16.9642 2.19296 16.9998C2.12258 17.0355 2.06048 17.0855 2.01068 17.1467C1.96087 17.2079 1.92448 17.2789 1.90386 17.355C1.88324 17.4311 1.87884 17.5108 1.89096 17.5887C1.90308 17.6667 1.93144 17.7412 1.97421 17.8075C2.01698 17.8738 2.0732 17.9304 2.13923 17.9736C2.20526 18.0167 2.27962 18.0455 2.3575 18.0581L3.24053 18.2969L2.70666 19.1191C2.65667 19.1804 2.62014 19.2516 2.59948 19.328C2.57882 19.4043 2.57448 19.4842 2.58674 19.5623C2.599 19.6405 2.62759 19.7152 2.67064 19.7815C2.71369 19.8479 2.77025 19.9045 2.83662 19.9475C2.90298 19.9906 2.97768 20.0191 3.05583 20.0314C3.13398 20.0437 3.21384 20.0393 3.2902 20.0186C3.36656 19.998 3.43771 19.9615 3.49901 19.9115C3.56032 19.8615 3.6104 19.7991 3.646 19.7285L4.13595 18.9738L4.66644 19.7623C4.71789 19.8384 4.78717 19.9007 4.86825 19.9439C4.94933 19.9871 5.03975 20.0098 5.13161 20.01C5.2429 20.0105 5.3517 19.9771 5.4436 19.9143C5.56632 19.831 5.65123 19.7027 5.67991 19.5572C5.70859 19.4117 5.67872 19.2608 5.59678 19.1372L5.03362 18.2924L5.90426 18.057C5.98214 18.0444 6.0565 18.0156 6.12253 17.9724C6.18856 17.9292 6.24479 17.8727 6.28755 17.8064C6.33032 17.7401 6.35869 17.6656 6.3708 17.5876C6.38292 17.5096 6.37853 17.43 6.35791 17.3539C6.33728 17.2777 6.30089 17.2068 6.25109 17.1456C6.20128 17.0844 6.13918 17.0344 6.0688 16.9987C5.99842 16.9631 5.92134 16.9426 5.84255 16.9386C5.76376 16.9347 5.68501 16.9473 5.61142 16.9758L4.69347 17.2247V16.3608C4.69112 16.2134 4.63106 16.0728 4.52618 15.9692C4.42131 15.8656 4.27999 15.8072 4.13257 15.8066Z" fill="white"/>
<path d="M11.1957 15.8066C11.0463 15.8066 10.9031 15.866 10.7975 15.9716C10.6919 16.0772 10.6325 16.2204 10.6325 16.3698V17.2337L9.71797 16.9769C9.64438 16.9485 9.56563 16.9358 9.48684 16.9398C9.40805 16.9437 9.33096 16.9642 9.26059 16.9998C9.19021 17.0355 9.12811 17.0855 9.0783 17.1467C9.0285 17.2079 8.99211 17.2789 8.97149 17.355C8.95086 17.4311 8.94647 17.5108 8.95859 17.5887C8.97071 17.6667 8.99907 17.7412 9.04184 17.8075C9.08461 17.8738 9.14083 17.9304 9.20685 17.9736C9.27288 18.0167 9.34725 18.0455 9.42513 18.0581L10.307 18.2969L9.77429 19.1191C9.72429 19.1804 9.68777 19.2516 9.66711 19.328C9.64645 19.4043 9.64211 19.4842 9.65437 19.5623C9.66663 19.6405 9.69521 19.7152 9.73827 19.7815C9.78132 19.8479 9.83788 19.9045 9.90424 19.9475C9.97061 19.9906 10.0453 20.0191 10.1235 20.0314C10.2016 20.0437 10.2815 20.0393 10.3578 20.0186C10.4342 19.998 10.5053 19.9615 10.5666 19.9115C10.6279 19.8615 10.678 19.7991 10.7136 19.7285L11.2036 18.9738L11.7341 19.7623C11.7855 19.8384 11.8548 19.9007 11.9359 19.9439C12.017 19.9871 12.1074 20.0098 12.1992 20.01C12.3105 20.0105 12.4193 19.9771 12.5112 19.9143C12.6338 19.8309 12.7185 19.7025 12.7469 19.557C12.7754 19.4115 12.7453 19.2606 12.6633 19.1372L12.1001 18.2924L12.9708 18.057C13.1009 18.007 13.2079 17.9104 13.271 17.786C13.3341 17.6616 13.3487 17.5182 13.3121 17.3836C13.2755 17.249 13.1903 17.1328 13.0729 17.0575C12.9556 16.9821 12.8144 16.953 12.6768 16.9758L11.76 17.2247V16.3608C11.7576 16.2128 11.6971 16.0717 11.5915 15.968C11.4859 15.8643 11.3437 15.8063 11.1957 15.8066Z" fill="white"/>
<path d="M18.2624 15.8066C18.1131 15.8066 17.9698 15.866 17.8642 15.9716C17.7586 16.0772 17.6993 16.2204 17.6993 16.3698V17.2337L16.7858 16.9769C16.7123 16.9485 16.6335 16.9358 16.5547 16.9398C16.4759 16.9437 16.3988 16.9642 16.3285 16.9998C16.2581 17.0355 16.196 17.0855 16.1462 17.1467C16.0964 17.2079 16.06 17.2789 16.0394 17.355C16.0187 17.4312 16.0143 17.5108 16.0265 17.5887C16.0386 17.6667 16.0669 17.7412 16.1097 17.8075C16.1525 17.8738 16.2087 17.9304 16.2747 17.9736C16.3408 18.0167 16.4151 18.0455 16.493 18.0581L17.3749 18.2969L16.8422 19.1191C16.7922 19.1804 16.7556 19.2516 16.735 19.328C16.7143 19.4043 16.71 19.4842 16.7222 19.5623C16.7345 19.6405 16.7631 19.7152 16.8061 19.7815C16.8492 19.8479 16.9057 19.9045 16.9721 19.9475C17.0385 19.9906 17.1132 20.0191 17.1913 20.0314C17.2695 20.0437 17.3493 20.0393 17.4257 20.0187C17.5021 19.998 17.5732 19.9615 17.6345 19.9115C17.6958 19.8615 17.7459 19.7991 17.7815 19.7285L18.2715 18.9738L18.8019 19.7623C18.8534 19.8384 18.9227 19.9007 19.0037 19.9439C19.0848 19.9871 19.1752 20.0098 19.2671 20.0101C19.3784 20.0103 19.4871 19.9769 19.5791 19.9143C19.7016 19.8309 19.7863 19.7025 19.8148 19.557C19.8433 19.4115 19.8132 19.2606 19.7312 19.1372L19.168 18.2924L20.0375 18.057C20.1154 18.0444 20.1897 18.0156 20.2558 17.9724C20.3218 17.9293 20.378 17.8727 20.4208 17.8064C20.4636 17.7401 20.4919 17.6656 20.504 17.5876C20.5162 17.5097 20.5118 17.43 20.4912 17.3539C20.4705 17.2777 20.4341 17.2068 20.3843 17.1456C20.3345 17.0844 20.2724 17.0344 20.2021 16.9987C20.1317 16.9631 20.0546 16.9426 19.9758 16.9386C19.897 16.9347 19.8183 16.9473 19.7447 16.9758L18.8278 17.2247V16.3608C18.8255 16.2126 18.7648 16.0713 18.6589 15.9676C18.5531 15.8639 18.4106 15.806 18.2624 15.8066Z" fill="white"/>
</svg>
