<svg width="31" height="22" viewBox="0 0 31 22" fill="none" xmlns="http://www.w3.org/2000/svg">
<path d="M28.9075 12.8017C28.7823 12.7082 28.6909 12.5766 28.6469 12.4266C28.2573 11.0863 27.364 9.94873 26.1543 9.25233C24.9446 8.55594 23.5123 8.35473 22.1576 8.69087C22.0143 8.72621 21.8637 8.7171 21.7257 8.66475C21.5877 8.61239 21.4689 8.51928 21.3852 8.39779C20.6922 7.38897 19.7056 6.61776 18.5593 6.18883C17.413 5.75989 16.1625 5.69399 14.9774 6.00006C13.7924 6.30613 12.7302 6.96936 11.935 7.89975C11.1398 8.83015 10.65 9.98266 10.5322 11.2009C10.5198 11.3258 10.4754 11.4453 10.4033 11.548C10.3312 11.6507 10.2339 11.733 10.1206 11.7871C10.0494 11.8209 9.97779 11.8574 9.90571 11.8965C9.84535 11.9303 9.78042 11.9553 9.71293 11.9707C8.70028 12.1981 7.79338 12.7591 7.13778 13.5637C6.47044 14.3773 6.10749 15.398 6.11136 16.4502C6.11756 17.6707 6.60736 18.8389 7.4734 19.6988C8.33944 20.5587 9.51108 21.0403 10.7315 21.0378H26.1017C27.3225 21.0399 28.4943 20.5577 29.3599 19.6969C30.2256 18.8361 30.7145 17.6671 30.7193 16.4463C30.7203 15.74 30.5571 15.0431 30.2427 14.4106C29.9282 13.7781 29.4711 13.2274 28.9075 12.8017Z" fill="white"/>
<path d="M6.14136 9.21222C6.13974 10.1063 6.47185 10.9689 7.0727 11.6311C7.69307 11.1643 8.39691 10.8203 9.14637 10.6177C9.40786 8.95688 10.2275 7.43476 11.4701 6.3023C11.5287 6.24889 11.5887 6.19679 11.6486 6.14469C11.1019 5.80677 10.475 5.62094 9.83246 5.60639C9.18996 5.59185 8.55522 5.74911 7.99383 6.06194C7.43244 6.37477 6.96475 6.83181 6.63909 7.38586C6.31343 7.9399 6.1416 8.57085 6.14136 9.21352V9.21222Z" fill="#E6C705"/>
<path d="M9.74945 3.66599C9.94177 3.66565 10.1261 3.5891 10.2621 3.45311C10.3981 3.31712 10.4746 3.13278 10.475 2.94046V0.899354C10.475 0.706932 10.3985 0.522392 10.2625 0.38633C10.1264 0.250267 9.94187 0.173828 9.74945 0.173828C9.55703 0.173828 9.37249 0.250267 9.23643 0.38633C9.10037 0.522392 9.02393 0.706932 9.02393 0.899354V2.94046C9.02393 3.13289 9.10037 3.31743 9.23643 3.45349C9.37249 3.58955 9.55703 3.66599 9.74945 3.66599Z" fill="#E6C705"/>
<path d="M5.98509 4.14311C6.0813 4.3098 6.23978 4.43143 6.42568 4.48127C6.61157 4.5311 6.80965 4.50504 6.97633 4.40883C7.14302 4.31262 7.26466 4.15414 7.31449 3.96824C7.36432 3.78235 7.33827 3.58427 7.24205 3.41759L6.22085 1.65001C6.17321 1.56748 6.10978 1.49514 6.03419 1.43712C5.95859 1.37909 5.8723 1.33653 5.78026 1.31186C5.68821 1.28718 5.59221 1.28088 5.49773 1.29331C5.40324 1.30574 5.31213 1.33665 5.2296 1.38429C5.14706 1.43193 5.07473 1.49536 5.0167 1.57095C4.95868 1.64655 4.91612 1.73283 4.89145 1.82488C4.86677 1.91693 4.86047 2.01293 4.8729 2.10741C4.88533 2.2019 4.91624 2.293 4.96388 2.37554L5.98509 4.14311Z" fill="#E6C705"/>
<path d="M2.1868 5.68358L3.95437 6.70999C4.12058 6.80598 4.31796 6.83246 4.50359 6.78367C4.68922 6.73489 4.84808 6.61478 4.94562 6.44948C4.99366 6.36731 5.02504 6.27647 5.03795 6.18215C5.05086 6.08784 5.04505 5.99191 5.02085 5.89985C4.99666 5.80779 4.95455 5.7214 4.89694 5.64562C4.83933 5.56984 4.76734 5.50617 4.6851 5.45823L2.91753 4.43703C2.75085 4.34082 2.55277 4.31476 2.36688 4.36459C2.18098 4.41443 2.0225 4.53606 1.92628 4.70275C1.83007 4.86943 1.80402 5.06751 1.85385 5.2534C1.90368 5.4393 2.02532 5.59778 2.19201 5.69399L2.1868 5.68358Z" fill="#E6C705"/>
<path d="M1.43646 9.93738H3.47757C3.66999 9.93738 3.85453 9.86094 3.99059 9.72488C4.12666 9.58882 4.2031 9.40428 4.2031 9.21185C4.2031 9.01943 4.12666 8.83489 3.99059 8.69883C3.85453 8.56277 3.66999 8.48633 3.47757 8.48633H1.43646C1.34118 8.48633 1.24684 8.5051 1.15882 8.54156C1.07079 8.57802 0.990809 8.63146 0.923438 8.69883C0.856067 8.7662 0.802625 8.84618 0.766164 8.93421C0.729702 9.02223 0.710938 9.11658 0.710938 9.21185C0.710938 9.30713 0.729702 9.40148 0.766164 9.4895C0.802625 9.57753 0.856067 9.65751 0.923438 9.72488C0.990809 9.79225 1.07079 9.84569 1.15882 9.88215C1.24684 9.91861 1.34118 9.93738 1.43646 9.93738Z" fill="#E6C705"/>
<path d="M4.94561 11.9845C4.89768 11.9023 4.834 11.8303 4.75822 11.7727C4.68245 11.7151 4.59606 11.673 4.50399 11.6488C4.41193 11.6246 4.316 11.6188 4.22169 11.6317C4.12738 11.6446 4.03654 11.676 3.95436 11.724L2.18679 12.7452C2.05154 12.8261 1.94628 12.9488 1.88693 13.0947C1.82758 13.2407 1.81736 13.402 1.85783 13.5543C1.89829 13.7066 1.98723 13.8416 2.11121 13.9388C2.23518 14.0361 2.38745 14.0903 2.54499 14.0934C2.67222 14.0935 2.79719 14.0598 2.9071 13.9957L4.67468 12.9758C4.75766 12.9286 4.83052 12.8655 4.88907 12.7901C4.94762 12.7147 4.99071 12.6285 5.01588 12.5364C5.04105 12.4443 5.0478 12.3482 5.03574 12.2535C5.02368 12.1588 4.99305 12.0674 4.94561 11.9845Z" fill="#E6C705"/>
<path d="M12.5226 4.40883C12.6325 4.47292 12.7575 4.50663 12.8847 4.50653C13.0123 4.5066 13.1376 4.47305 13.2481 4.40925C13.3585 4.34544 13.4502 4.25365 13.5139 4.14311L14.5286 2.37554C14.6248 2.20885 14.6508 2.01078 14.601 1.82488C14.5512 1.63899 14.4295 1.4805 14.2628 1.38429C14.0962 1.28808 13.8981 1.26203 13.7122 1.31186C13.5263 1.36169 13.3678 1.48333 13.2716 1.65001L12.2517 3.41759C12.2041 3.50038 12.1733 3.59178 12.1612 3.68652C12.149 3.78125 12.1557 3.87745 12.1809 3.96959C12.2061 4.06172 12.2492 4.14796 12.3079 4.22334C12.3665 4.29873 12.4395 4.36177 12.5226 4.40883Z" fill="#E6C705"/>
</svg>
