<svg width="23" height="24" viewBox="0 0 23 24" fill="none" xmlns="http://www.w3.org/2000/svg">
<path d="M22.3339 14.2102C23.9992 6.60949 17.4435 -0.295359 9.74471 1.03014C5.56522 -1.60431 0.000244141 1.3727 0.000244141 6.42361C0.000244141 7.59826 0.319311 8.69797 0.874084 9.64587C-0.673341 17.2641 5.93603 24.0696 13.6281 22.6536C14.525 23.1354 15.5483 23.4098 16.6358 23.4098C21.3777 23.4098 24.4141 18.4144 22.3339 14.2102ZM11.5901 19.3993C9.34611 19.3993 7.15385 18.8494 5.8565 16.9672C3.92294 14.1897 6.4726 12.8 7.72395 13.8588C8.76834 14.7532 8.44065 16.9166 11.5077 16.9166C12.8597 16.9166 14.5288 16.3308 14.5288 14.9693C14.5288 12.2297 8.54509 13.526 6.16599 10.5393C5.29215 9.44539 5.12734 7.51554 6.20048 6.11608C8.0708 3.6714 13.5591 3.5225 15.9191 5.36866C18.0979 7.08149 17.5096 9.35488 15.7514 9.35488C13.6367 9.35488 14.7482 6.54428 11.3343 6.54428C8.85937 6.54428 7.88588 8.33205 9.62877 9.20209C11.9485 10.3719 18.0126 10.0069 18.0126 14.6549C18.005 17.922 14.9015 19.3993 11.5901 19.3993Z" fill="black"/>
</svg>
