<svg width="24" height="14" viewBox="0 0 24 14" fill="none" xmlns="http://www.w3.org/2000/svg">
<path d="M19.111 7.99101C18.7387 7.52079 18.8452 7.31159 19.111 6.89128C19.1158 6.88648 22.1895 2.63916 22.5062 1.19876L22.5081 1.1978C22.6655 0.67288 22.5081 0.287109 21.7471 0.287109H19.229C18.588 0.287109 18.2924 0.618181 18.1341 0.988598C18.1341 0.988598 16.852 4.05749 15.0383 6.0468C14.453 6.62162 14.1824 6.80587 13.8628 6.80587C13.7054 6.80587 13.4607 6.62162 13.4607 6.0967V1.1978C13.4607 0.568281 13.2813 0.287109 12.7506 0.287109H8.79116C8.38908 0.287109 8.15013 0.580756 8.15013 0.85425C8.15013 1.45114 9.05698 1.58837 9.15102 3.26772V6.91143C9.15102 7.70984 9.00612 7.85666 8.68464 7.85666C7.82865 7.85666 5.75106 4.77529 4.51985 1.24866C4.27131 0.564442 4.02852 0.288069 3.38269 0.288069H0.863666C0.144904 0.288069 0 0.619141 0 0.989558C0 1.64402 0.855989 4.89813 3.98054 9.19726C6.06293 12.1318 8.99556 13.7219 11.6633 13.7219C13.2669 13.7219 13.4626 13.3688 13.4626 12.7613C13.4626 9.95729 13.3177 9.69243 14.1209 9.69243C14.4933 9.69243 15.1343 9.87668 16.6313 11.2921C18.3423 12.9705 18.6235 13.7219 19.5812 13.7219H22.0993C22.8171 13.7219 23.1808 13.3688 22.9716 12.6721C22.4927 11.2067 19.2569 8.19253 19.111 7.99101Z" fill="#E30613"/>
</svg>
