<svg width="24" height="18" viewBox="0 0 24 18" fill="#ffffff" xmlns="http://www.w3.org/2000/svg">
<path d="M0.816469 14.6918C1.29909 16.4036 2.77551 16.7168 2.874 16.7769C5.30384 17.4388 18.9236 17.4408 21.3898 16.7769C23.079 16.2884 23.3893 14.7903 23.4474 14.6918C24.0905 11.2701 24.1329 6.80936 23.4178 2.92673L23.4474 3.11978C22.9648 1.40796 21.4883 1.09475 21.3898 1.03467C18.9925 0.383625 5.33733 0.359002 2.874 1.03467C1.18484 1.52418 0.87458 3.02129 0.816469 3.11978C0.127998 6.71579 0.093525 10.8417 0.816469 14.6918ZM9.76561 12.5023V5.31915L15.9372 8.91614L9.76561 12.5023Z" fill="#ffffff"/>
</svg>
