<?xml version="1.0" encoding="UTF-8"?> <svg xmlns="http://www.w3.org/2000/svg" width="75" height="76" viewBox="0 0 75 76" fill="none"><rect x="1" y="1.26758" width="73" height="73" rx="7" fill="white" stroke="#0069B7" stroke-width="2"></rect><path d="M15.3824 27.8756C14.5904 27.8756 14.0264 27.6686 13.6904 27.2546C13.3604 26.8346 13.1954 26.2316 13.1954 25.4456V22.8176C13.1954 22.0136 13.3604 21.4076 13.6904 20.9996C14.0204 20.5856 14.5844 20.3786 15.3824 20.3786C16.1444 20.3786 16.6844 20.5616 17.0024 20.9276C17.3204 21.2936 17.4794 21.8126 17.4794 22.4846V23.1146H15.9044V22.3856C15.9044 22.1036 15.8744 21.8876 15.8144 21.7376C15.7544 21.5876 15.6104 21.5126 15.3824 21.5126C15.1544 21.5126 15.0044 21.5936 14.9324 21.7556C14.8604 21.9116 14.8244 22.1306 14.8244 22.4126V25.8416C14.8244 26.1296 14.8604 26.3516 14.9324 26.5076C15.0104 26.6576 15.1604 26.7326 15.3824 26.7326C15.6044 26.7326 15.7454 26.6576 15.8054 26.5076C15.8714 26.3516 15.9044 26.1296 15.9044 25.8416V25.0766H17.4794V25.7066C17.4794 26.3906 17.3204 26.9246 17.0024 27.3086C16.6844 27.6866 16.1444 27.8756 15.3824 27.8756ZM18.3927 20.4776H19.6617V24.6536L21.5247 20.4776H22.5687V27.7676H21.2727V23.5196L19.3737 27.7676H18.3927V20.4776ZM23.7013 20.4776H25.3123V23.4296H26.4373V20.4776H28.0573V27.7676H26.4373V24.5816H25.3123V27.7676H23.7013V20.4776ZM29.1944 20.4776H30.4634V24.6536L32.3264 20.4776H33.3704V27.7676H32.0744V23.5196L30.1754 27.7676H29.1944V20.4776ZM34.503 20.4776H35.772V24.6536L37.635 20.4776H38.679V27.7676H37.383V23.5196L35.484 27.7676H34.503V20.4776ZM36.708 19.8926C36.276 19.8926 35.931 19.7726 35.673 19.5326C35.421 19.2866 35.295 18.9386 35.295 18.4886H36.123C36.123 18.7166 36.168 18.8846 36.258 18.9926C36.348 19.0946 36.498 19.1456 36.708 19.1456C36.912 19.1456 37.059 19.0916 37.149 18.9836C37.245 18.8756 37.293 18.7106 37.293 18.4886H38.121C38.121 18.9326 37.992 19.2776 37.734 19.5236C37.482 19.7696 37.14 19.8926 36.708 19.8926ZM44.1754 27.8756C43.3834 27.8756 42.8194 27.6686 42.4834 27.2546C42.1534 26.8346 41.9884 26.2316 41.9884 25.4456V22.8176C41.9884 22.0136 42.1534 21.4076 42.4834 20.9996C42.8134 20.5856 43.3774 20.3786 44.1754 20.3786C44.9374 20.3786 45.4774 20.5616 45.7954 20.9276C46.1134 21.2936 46.2724 21.8126 46.2724 22.4846V23.1146H44.6974V22.3856C44.6974 22.1036 44.6674 21.8876 44.6074 21.7376C44.5474 21.5876 44.4034 21.5126 44.1754 21.5126C43.9474 21.5126 43.7974 21.5936 43.7254 21.7556C43.6534 21.9116 43.6174 22.1306 43.6174 22.4126V25.8416C43.6174 26.1296 43.6534 26.3516 43.7254 26.5076C43.8034 26.6576 43.9534 26.7326 44.1754 26.7326C44.3974 26.7326 44.5384 26.6576 44.5984 26.5076C44.6644 26.3516 44.6974 26.1296 44.6974 25.8416V25.0766H46.2724V25.7066C46.2724 26.3906 46.1134 26.9246 45.7954 27.3086C45.4774 27.6866 44.9374 27.8756 44.1754 27.8756ZM47.1587 20.4776H49.0577C49.5317 20.4776 49.9337 20.5286 50.2637 20.6306C50.5997 20.7266 50.8697 20.9156 51.0737 21.1976C51.2777 21.4796 51.3797 21.8756 51.3797 22.3856C51.3797 22.8176 51.2867 23.1536 51.1007 23.3936C50.9147 23.6336 50.6507 23.7866 50.3087 23.8526C50.7287 23.9066 51.0497 24.0836 51.2717 24.3836C51.4937 24.6836 51.6047 25.0916 51.6047 25.6076C51.6047 27.0476 50.8697 27.7676 49.3997 27.7676H47.1587V20.4776ZM49.0847 23.3936C49.4267 23.3936 49.6577 23.3156 49.7777 23.1596C49.9037 23.0036 49.9667 22.7606 49.9667 22.4306C49.9667 22.1426 49.8887 21.9266 49.7327 21.7826C49.5767 21.6326 49.3487 21.5576 49.0487 21.5576H48.7697V23.3936H49.0847ZM49.1117 26.6426C49.4537 26.6426 49.6937 26.5586 49.8317 26.3906C49.9757 26.2166 50.0477 25.9466 50.0477 25.5806C50.0477 25.1666 49.9757 24.8756 49.8317 24.7076C49.6937 24.5396 49.4507 24.4556 49.1027 24.4556H48.7697V26.6426H49.1117ZM52.4497 20.4776H55.7257V21.5756H54.0607V23.3846H55.3297V24.5006H54.0607V26.6786H55.7437V27.7676H52.4497V20.4776ZM57.1321 21.6746H56.0341V20.4776H59.8411V21.6746H58.7521V27.7676H57.1321V21.6746ZM20.1329 42.8756C19.3409 42.8756 18.7769 42.6686 18.4409 42.2546C18.1109 41.8346 17.9459 41.2316 17.9459 40.4456V37.8176C17.9459 37.0136 18.1109 36.4076 18.4409 35.9996C18.7709 35.5856 19.3349 35.3786 20.1329 35.3786C20.8949 35.3786 21.4349 35.5616 21.7529 35.9276C22.0709 36.2936 22.2299 36.8126 22.2299 37.4846V38.1146H20.6549V37.3856C20.6549 37.1036 20.6249 36.8876 20.5649 36.7376C20.5049 36.5876 20.3609 36.5126 20.1329 36.5126C19.9049 36.5126 19.7549 36.5936 19.6829 36.7556C19.6109 36.9116 19.5749 37.1306 19.5749 37.4126V40.8416C19.5749 41.1296 19.6109 41.3516 19.6829 41.5076C19.7609 41.6576 19.9109 41.7326 20.1329 41.7326C20.3549 41.7326 20.4959 41.6576 20.5559 41.5076C20.6219 41.3516 20.6549 41.1296 20.6549 40.8416V40.0766H22.2299V40.7066C22.2299 41.3906 22.0709 41.9246 21.7529 42.3086C21.4349 42.6866 20.8949 42.8756 20.1329 42.8756ZM23.1432 35.4776H24.7542V38.3666H24.9162L25.9872 35.4776H27.5892L26.2572 38.8976L27.6342 42.7676H25.9782L24.9162 39.5906H24.7542V42.7676H23.1432V35.4776ZM30.3546 42.8756C29.5686 42.8756 29.0076 42.6746 28.6716 42.2726C28.3356 41.8646 28.1676 41.2646 28.1676 40.4726V37.7636C28.1676 36.9716 28.3356 36.3776 28.6716 35.9816C29.0076 35.5796 29.5686 35.3786 30.3546 35.3786C31.1466 35.3786 31.7106 35.5796 32.0466 35.9816C32.3886 36.3836 32.5596 36.9776 32.5596 37.7636V40.4726C32.5596 41.2646 32.3886 41.8646 32.0466 42.2726C31.7106 42.6746 31.1466 42.8756 30.3546 42.8756ZM30.3546 41.7326C30.5826 41.7326 30.7326 41.6576 30.8046 41.5076C30.8766 41.3516 30.9126 41.1416 30.9126 40.8776V37.3676C30.9126 37.0976 30.8766 36.8876 30.8046 36.7376C30.7326 36.5876 30.5826 36.5126 30.3546 36.5126C30.1386 36.5126 29.9946 36.5906 29.9226 36.7466C29.8506 36.8966 29.8146 37.1036 29.8146 37.3676V40.8776C29.8146 41.1416 29.8476 41.3516 29.9136 41.5076C29.9796 41.6576 30.1266 41.7326 30.3546 41.7326ZM33.54 35.4776H35.988C36.63 35.4776 37.11 35.6606 37.428 36.0266C37.746 36.3866 37.905 36.9086 37.905 37.5926C37.905 38.3726 37.719 38.9156 37.347 39.2216C36.981 39.5216 36.465 39.6716 35.799 39.6716H35.151V42.7676H33.54V35.4776ZM35.691 38.5466C35.973 38.5466 36.159 38.4716 36.249 38.3216C36.345 38.1716 36.393 37.9196 36.393 37.5656C36.393 37.2416 36.348 37.0016 36.258 36.8456C36.168 36.6896 35.976 36.6116 35.682 36.6116H35.151V38.5466H35.691ZM40.7696 42.8756C39.9836 42.8756 39.4226 42.6746 39.0866 42.2726C38.7506 41.8646 38.5826 41.2646 38.5826 40.4726V37.7636C38.5826 36.9716 38.7506 36.3776 39.0866 35.9816C39.4226 35.5796 39.9836 35.3786 40.7696 35.3786C41.5616 35.3786 42.1256 35.5796 42.4616 35.9816C42.8036 36.3836 42.9746 36.9776 42.9746 37.7636V40.4726C42.9746 41.2646 42.8036 41.8646 42.4616 42.2726C42.1256 42.6746 41.5616 42.8756 40.7696 42.8756ZM40.7696 41.7326C40.9976 41.7326 41.1476 41.6576 41.2196 41.5076C41.2916 41.3516 41.3276 41.1416 41.3276 40.8776V37.3676C41.3276 37.0976 41.2916 36.8876 41.2196 36.7376C41.1476 36.5876 40.9976 36.5126 40.7696 36.5126C40.5536 36.5126 40.4096 36.5906 40.3376 36.7466C40.2656 36.8966 40.2296 37.1036 40.2296 37.3676V40.8776C40.2296 41.1416 40.2626 41.3516 40.3286 41.5076C40.3946 41.6576 40.5416 41.7326 40.7696 41.7326ZM46.043 42.8756C45.251 42.8756 44.687 42.6686 44.351 42.2546C44.021 41.8346 43.856 41.2316 43.856 40.4456V37.8176C43.856 37.0136 44.021 36.4076 44.351 35.9996C44.681 35.5856 45.245 35.3786 46.043 35.3786C46.805 35.3786 47.345 35.5616 47.663 35.9276C47.981 36.2936 48.14 36.8126 48.14 37.4846V38.1146H46.565V37.3856C46.565 37.1036 46.535 36.8876 46.475 36.7376C46.415 36.5876 46.271 36.5126 46.043 36.5126C45.815 36.5126 45.665 36.5936 45.593 36.7556C45.521 36.9116 45.485 37.1306 45.485 37.4126V40.8416C45.485 41.1296 45.521 41.3516 45.593 41.5076C45.671 41.6576 45.821 41.7326 46.043 41.7326C46.265 41.7326 46.406 41.6576 46.466 41.5076C46.532 41.3516 46.565 41.1296 46.565 40.8416V40.0766H48.14V40.7066C48.14 41.3906 47.981 41.9246 47.663 42.3086C47.345 42.6866 46.805 42.8756 46.043 42.8756ZM49.6833 36.6746H48.5853V35.4776H52.3923V36.6746H51.3033V42.7676H49.6833V36.6746ZM53.0611 35.4776H54.6721V38.5556H55.0321C56.4601 38.5556 57.1741 39.2576 57.1741 40.6616C57.1741 41.2256 57.0751 41.6636 56.8771 41.9756C56.6851 42.2816 56.4211 42.4916 56.0851 42.6056C55.7551 42.7136 55.3531 42.7676 54.8791 42.7676H53.0611V35.4776ZM54.8881 41.7146C55.1701 41.7146 55.3741 41.6336 55.5001 41.4716C55.6261 41.3096 55.6891 41.0546 55.6891 40.7066C55.6891 40.3766 55.6321 40.1216 55.5181 39.9416C55.4041 39.7616 55.1881 39.6716 54.8701 39.6716H54.6721V41.7146H54.8881ZM14.2926 57.8756C13.5006 57.8756 12.9366 57.6686 12.6006 57.2546C12.2706 56.8346 12.1056 56.2316 12.1056 55.4456V52.8176C12.1056 52.0136 12.2706 51.4076 12.6006 50.9996C12.9306 50.5856 13.4946 50.3786 14.2926 50.3786C15.0546 50.3786 15.5946 50.5616 15.9126 50.9276C16.2306 51.2936 16.3896 51.8126 16.3896 52.4846V53.1146H14.8146V52.3856C14.8146 52.1036 14.7846 51.8876 14.7246 51.7376C14.6646 51.5876 14.5206 51.5126 14.2926 51.5126C14.0646 51.5126 13.9146 51.5936 13.8426 51.7556C13.7706 51.9116 13.7346 52.1306 13.7346 52.4126V55.8416C13.7346 56.1296 13.7706 56.3516 13.8426 56.5076C13.9206 56.6576 14.0706 56.7326 14.2926 56.7326C14.5146 56.7326 14.6556 56.6576 14.7156 56.5076C14.7816 56.3516 14.8146 56.1296 14.8146 55.8416V55.0766H16.3896V55.7066C16.3896 56.3906 16.2306 56.9246 15.9126 57.3086C15.5946 57.6866 15.0546 57.8756 14.2926 57.8756ZM19.3638 57.8756C18.5778 57.8756 18.0168 57.6746 17.6808 57.2726C17.3448 56.8646 17.1768 56.2646 17.1768 55.4726V52.7636C17.1768 51.9716 17.3448 51.3776 17.6808 50.9816C18.0168 50.5796 18.5778 50.3786 19.3638 50.3786C20.1558 50.3786 20.7198 50.5796 21.0558 50.9816C21.3978 51.3836 21.5688 51.9776 21.5688 52.7636V55.4726C21.5688 56.2646 21.3978 56.8646 21.0558 57.2726C20.7198 57.6746 20.1558 57.8756 19.3638 57.8756ZM19.3638 56.7326C19.5918 56.7326 19.7418 56.6576 19.8138 56.5076C19.8858 56.3516 19.9218 56.1416 19.9218 55.8776V52.3676C19.9218 52.0976 19.8858 51.8876 19.8138 51.7376C19.7418 51.5876 19.5918 51.5126 19.3638 51.5126C19.1478 51.5126 19.0038 51.5906 18.9318 51.7466C18.8598 51.8966 18.8238 52.1036 18.8238 52.3676V55.8776C18.8238 56.1416 18.8568 56.3516 18.9228 56.5076C18.9888 56.6576 19.1358 56.7326 19.3638 56.7326ZM22.5763 50.4776H24.1873V53.3666H24.3493L25.4203 50.4776H27.0223L25.6903 53.8976L27.0673 57.7676H25.4113L24.3493 54.5906H24.1873V57.7676H22.5763V50.4776ZM27.6997 50.4776H30.1477C30.7897 50.4776 31.2697 50.6606 31.5877 51.0266C31.9057 51.3866 32.0647 51.9086 32.0647 52.5926C32.0647 53.3726 31.8787 53.9156 31.5067 54.2216C31.1407 54.5216 30.6247 54.6716 29.9587 54.6716H29.3107V57.7676H27.6997V50.4776ZM29.8507 53.5466C30.1327 53.5466 30.3187 53.4716 30.4087 53.3216C30.5047 53.1716 30.5527 52.9196 30.5527 52.5656C30.5527 52.2416 30.5077 52.0016 30.4177 51.8456C30.3277 51.6896 30.1357 51.6116 29.8417 51.6116H29.3107V53.5466H29.8507ZM33.7179 50.4776H35.5539L36.9129 57.7676H35.4279L35.1849 56.2286H34.1139L33.8619 57.7676H32.3409L33.7179 50.4776ZM35.0319 55.2656L34.6449 52.4216L34.2579 55.2656H35.0319ZM43.5979 57.7676H37.6759V50.4776H39.1969V56.6786H40.0879V50.4776H41.5999V56.6786H42.4549V50.4776H43.9759V56.6786H44.9659V59.3426H43.7869L43.5979 57.7676ZM45.893 50.4776H49.169V51.5756H47.504V53.3846H48.773V54.5006H47.504V56.6786H49.187V57.7676H45.893V50.4776ZM49.9454 50.4776H51.5564V53.4296H52.6814V50.4776H54.3014V57.7676H52.6814V54.5816H51.5564V57.7676H49.9454V50.4776ZM55.4386 50.4776H56.7076V54.6536L58.5706 50.4776H59.6146V57.7676H58.3186V53.5196L56.4196 57.7676H55.4386V50.4776ZM61.6562 54.5276C61.3682 54.3536 61.1372 54.1046 60.9632 53.7806C60.7952 53.4506 60.7112 53.0756 60.7112 52.6556C60.7112 51.8516 60.9152 51.2876 61.3232 50.9636C61.7372 50.6396 62.3582 50.4776 63.1862 50.4776H65.0582V57.7676H63.4562V54.8876H63.1682H63.0692L62.0072 57.7676H60.2702L61.6562 54.5276ZM63.4562 53.7536V51.5846H63.2042C62.5442 51.5846 62.2142 51.9446 62.2142 52.6646C62.2142 53.3906 62.5502 53.7536 63.2222 53.7536H63.4562Z" fill="#0069B7"></path></svg> 