<?xml version="1.0" encoding="UTF-8"?> <svg xmlns="http://www.w3.org/2000/svg" width="75" height="76" viewBox="0 0 75 76" fill="none"><rect x="1" y="1.26758" width="73" height="73" rx="7" fill="white" stroke="#F5A41F" stroke-width="2"></rect><path d="M7.05416 24.4776H8.95316C9.42716 24.4776 9.82916 24.5286 10.1592 24.6306C10.4952 24.7266 10.7652 24.9156 10.9692 25.1976C11.1732 25.4796 11.2752 25.8756 11.2752 26.3856C11.2752 26.8176 11.1822 27.1536 10.9962 27.3936C10.8102 27.6336 10.5462 27.7866 10.2042 27.8526C10.6242 27.9066 10.9452 28.0836 11.1672 28.3836C11.3892 28.6836 11.5002 29.0916 11.5002 29.6076C11.5002 31.0476 10.7652 31.7676 9.29516 31.7676H7.05416V24.4776ZM8.98016 27.3936C9.32216 27.3936 9.55316 27.3156 9.67316 27.1596C9.79916 27.0036 9.86216 26.7606 9.86216 26.4306C9.86216 26.1426 9.78416 25.9266 9.62816 25.7826C9.47216 25.6326 9.24416 25.5576 8.94416 25.5576H8.66516V27.3936H8.98016ZM9.00716 30.6426C9.34916 30.6426 9.58916 30.5586 9.72716 30.3906C9.87116 30.2166 9.94316 29.9466 9.94316 29.5806C9.94316 29.1666 9.87116 28.8756 9.72716 28.7076C9.58916 28.5396 9.34616 28.4556 8.99816 28.4556H8.66516V30.6426H9.00716ZM12.3722 24.4776H13.6412V28.6536L15.5042 24.4776H16.5482V31.7676H15.2522V27.5196L13.3532 31.7676H12.3722V24.4776ZM17.2758 30.6156H17.4828C17.8428 30.5016 18.1278 30.1716 18.3378 29.6256C18.5478 29.0796 18.6948 28.2126 18.7788 27.0246L18.9768 24.4776H22.3698V30.6156H23.1888V33.3426H22.1268L22.0458 31.7676H18.4728L18.3828 33.3426H17.2758V30.6156ZM20.8668 30.6156V25.6206H20.1918L20.1108 27.1866C20.0628 27.9906 19.9818 28.6206 19.8678 29.0766C19.7598 29.5266 19.6398 29.8506 19.5078 30.0486C19.3758 30.2466 19.2078 30.4356 19.0038 30.6156H20.8668ZM23.921 24.4776H25.19V28.6536L27.053 24.4776H28.097V31.7676H26.801V27.5196L24.902 31.7676H23.921V24.4776ZM29.3016 24.4776H31.0296L31.8306 28.7166L32.6946 24.4776H34.3596L34.4856 31.7676H33.3426L33.2076 26.9166L32.3616 31.7676H31.3446L30.4446 26.8806L30.3366 31.7676H29.1756L29.3016 24.4776ZM35.5665 24.4776H37.1775V27.5556H37.5375C38.9715 27.5556 39.6885 28.2576 39.6885 29.6616C39.6885 30.2256 39.5895 30.6636 39.3915 30.9756C39.1995 31.2816 38.9385 31.4916 38.6085 31.6056C38.2785 31.7136 37.8735 31.7676 37.3935 31.7676H35.5665V24.4776ZM40.3005 24.4776H41.9115V31.7676H40.3005V24.4776ZM37.4025 30.7146C37.6845 30.7146 37.8885 30.6336 38.0145 30.4716C38.1405 30.3096 38.2035 30.0546 38.2035 29.7066C38.2035 29.3766 38.1465 29.1216 38.0325 28.9416C37.9185 28.7616 37.7025 28.6716 37.3845 28.6716H37.1775V30.7146H37.4025ZM43.046 24.4776H44.315V28.6536L46.178 24.4776H47.222V31.7676H45.926V27.5196L44.027 31.7676H43.046V24.4776ZM45.251 23.8926C44.819 23.8926 44.474 23.7726 44.216 23.5326C43.964 23.2866 43.838 22.9386 43.838 22.4886H44.666C44.666 22.7166 44.711 22.8846 44.801 22.9926C44.891 23.0946 45.041 23.1456 45.251 23.1456C45.455 23.1456 45.602 23.0916 45.692 22.9836C45.788 22.8756 45.836 22.7106 45.836 22.4886H46.664C46.664 22.9326 46.535 23.2776 46.277 23.5236C46.025 23.7696 45.683 23.8926 45.251 23.8926ZM52.7183 31.8756C51.9263 31.8756 51.3623 31.6686 51.0263 31.2546C50.6963 30.8346 50.5313 30.2316 50.5313 29.4456V26.8176C50.5313 26.0136 50.6963 25.4076 51.0263 24.9996C51.3563 24.5856 51.9203 24.3786 52.7183 24.3786C53.4803 24.3786 54.0203 24.5616 54.3383 24.9276C54.6563 25.2936 54.8153 25.8126 54.8153 26.4846V27.1146H53.2403V26.3856C53.2403 26.1036 53.2103 25.8876 53.1503 25.7376C53.0903 25.5876 52.9463 25.5126 52.7183 25.5126C52.4903 25.5126 52.3403 25.5936 52.2683 25.7556C52.1963 25.9116 52.1603 26.1306 52.1603 26.4126V29.8416C52.1603 30.1296 52.1963 30.3516 52.2683 30.5076C52.3463 30.6576 52.4963 30.7326 52.7183 30.7326C52.9403 30.7326 53.0813 30.6576 53.1413 30.5076C53.2073 30.3516 53.2403 30.1296 53.2403 29.8416V29.0766H54.8153V29.7066C54.8153 30.3906 54.6563 30.9246 54.3383 31.3086C54.0203 31.6866 53.4803 31.8756 52.7183 31.8756ZM55.7016 24.4776H57.6006C58.0746 24.4776 58.4766 24.5286 58.8066 24.6306C59.1426 24.7266 59.4126 24.9156 59.6166 25.1976C59.8206 25.4796 59.9226 25.8756 59.9226 26.3856C59.9226 26.8176 59.8296 27.1536 59.6436 27.3936C59.4576 27.6336 59.1936 27.7866 58.8516 27.8526C59.2716 27.9066 59.5926 28.0836 59.8146 28.3836C60.0366 28.6836 60.1476 29.0916 60.1476 29.6076C60.1476 31.0476 59.4126 31.7676 57.9426 31.7676H55.7016V24.4776ZM57.6276 27.3936C57.9696 27.3936 58.2006 27.3156 58.3206 27.1596C58.4466 27.0036 58.5096 26.7606 58.5096 26.4306C58.5096 26.1426 58.4316 25.9266 58.2756 25.7826C58.1196 25.6326 57.8916 25.5576 57.5916 25.5576H57.3126V27.3936H57.6276ZM57.6546 30.6426C57.9966 30.6426 58.2366 30.5586 58.3746 30.3906C58.5186 30.2166 58.5906 29.9466 58.5906 29.5806C58.5906 29.1666 58.5186 28.8756 58.3746 28.7076C58.2366 28.5396 57.9936 28.4556 57.6456 28.4556H57.3126V30.6426H57.6546ZM60.9926 24.4776H64.2686V25.5756H62.6036V27.3846H63.8726V28.5006H62.6036V30.6786H64.2866V31.7676H60.9926V24.4776ZM65.675 25.6746H64.577V24.4776H68.384V25.6746H67.295V31.7676H65.675V25.6746ZM4.28561 39.4776H8.65061V46.7676H7.06661V40.6296H5.86961V46.7676H4.28561V39.4776ZM9.73482 39.4776H12.1828C12.8248 39.4776 13.3048 39.6606 13.6228 40.0266C13.9408 40.3866 14.0998 40.9086 14.0998 41.5926C14.0998 42.3726 13.9138 42.9156 13.5418 43.2216C13.1758 43.5216 12.6598 43.6716 11.9938 43.6716H11.3458V46.7676H9.73482V39.4776ZM11.8858 42.5466C12.1678 42.5466 12.3538 42.4716 12.4438 42.3216C12.5398 42.1716 12.5878 41.9196 12.5878 41.5656C12.5878 41.2416 12.5428 41.0016 12.4528 40.8456C12.3628 40.6896 12.1708 40.6116 11.8768 40.6116H11.3458V42.5466H11.8858ZM16.9644 46.8756C16.1784 46.8756 15.6174 46.6746 15.2814 46.2726C14.9454 45.8646 14.7774 45.2646 14.7774 44.4726V41.7636C14.7774 40.9716 14.9454 40.3776 15.2814 39.9816C15.6174 39.5796 16.1784 39.3786 16.9644 39.3786C17.7564 39.3786 18.3204 39.5796 18.6564 39.9816C18.9984 40.3836 19.1694 40.9776 19.1694 41.7636V44.4726C19.1694 45.2646 18.9984 45.8646 18.6564 46.2726C18.3204 46.6746 17.7564 46.8756 16.9644 46.8756ZM16.9644 45.7326C17.1924 45.7326 17.3424 45.6576 17.4144 45.5076C17.4864 45.3516 17.5224 45.1416 17.5224 44.8776V41.3676C17.5224 41.0976 17.4864 40.8876 17.4144 40.7376C17.3424 40.5876 17.1924 40.5126 16.9644 40.5126C16.7484 40.5126 16.6044 40.5906 16.5324 40.7466C16.4604 40.8966 16.4244 41.1036 16.4244 41.3676V44.8776C16.4244 45.1416 16.4574 45.3516 16.5234 45.5076C16.5894 45.6576 16.7364 45.7326 16.9644 45.7326ZM20.1769 39.4776H21.7879V42.4296H22.9129V39.4776H24.5329V46.7676H22.9129V43.5816H21.7879V46.7676H20.1769V39.4776ZM25.67 39.4776H26.939V43.6536L28.802 39.4776H29.846V46.7676H28.55V42.5196L26.651 46.7676H25.67V39.4776ZM35.0286 46.7676H30.9786V39.4776H32.5896V45.6786H33.8136V39.4776H35.4246V45.6786H36.4146V48.3426H35.2356L35.0286 46.7676ZM38.1475 39.4776H39.9835L41.3425 46.7676H39.8575L39.6145 45.2286H38.5435L38.2915 46.7676H36.7705L38.1475 39.4776ZM39.4615 44.2656L39.0745 41.4216L38.6875 44.2656H39.4615ZM42.0786 39.4776H45.3546V40.5756H43.6896V42.3846H44.9586V43.5006H43.6896V45.6786H45.3726V46.7676H42.0786V39.4776ZM46.203 39.4776H47.931L48.732 43.7166L49.596 39.4776H51.261L51.387 46.7676H50.244L50.109 41.9166L49.263 46.7676H48.246L47.346 41.8806L47.238 46.7676H46.077L46.203 39.4776ZM54.5289 46.8756C53.7429 46.8756 53.1819 46.6746 52.8459 46.2726C52.5099 45.8646 52.3419 45.2646 52.3419 44.4726V41.7636C52.3419 40.9716 52.5099 40.3776 52.8459 39.9816C53.1819 39.5796 53.7429 39.3786 54.5289 39.3786C55.3209 39.3786 55.8849 39.5796 56.2209 39.9816C56.5629 40.3836 56.7339 40.9776 56.7339 41.7636V44.4726C56.7339 45.2646 56.5629 45.8646 56.2209 46.2726C55.8849 46.6746 55.3209 46.8756 54.5289 46.8756ZM54.5289 45.7326C54.7569 45.7326 54.9069 45.6576 54.9789 45.5076C55.0509 45.3516 55.0869 45.1416 55.0869 44.8776V41.3676C55.0869 41.0976 55.0509 40.8876 54.9789 40.7376C54.9069 40.5876 54.7569 40.5126 54.5289 40.5126C54.3129 40.5126 54.1689 40.5906 54.0969 40.7466C54.0249 40.8966 53.9889 41.1036 53.9889 41.3676V44.8776C53.9889 45.1416 54.0219 45.3516 54.0879 45.5076C54.1539 45.6576 54.3009 45.7326 54.5289 45.7326ZM59.8023 46.8756C59.0103 46.8756 58.4463 46.6686 58.1103 46.2546C57.7803 45.8346 57.6153 45.2316 57.6153 44.4456V41.8176C57.6153 41.0136 57.7803 40.4076 58.1103 39.9996C58.4403 39.5856 59.0043 39.3786 59.8023 39.3786C60.5643 39.3786 61.1043 39.5616 61.4223 39.9276C61.7403 40.2936 61.8993 40.8126 61.8993 41.4846V42.1146H60.3243V41.3856C60.3243 41.1036 60.2943 40.8876 60.2343 40.7376C60.1743 40.5876 60.0303 40.5126 59.8023 40.5126C59.5743 40.5126 59.4243 40.5936 59.3523 40.7556C59.2803 40.9116 59.2443 41.1306 59.2443 41.4126V44.8416C59.2443 45.1296 59.2803 45.3516 59.3523 45.5076C59.4303 45.6576 59.5803 45.7326 59.8023 45.7326C60.0243 45.7326 60.1653 45.6576 60.2253 45.5076C60.2913 45.3516 60.3243 45.1296 60.3243 44.8416V44.0766H61.8993V44.7066C61.8993 45.3906 61.7403 45.9246 61.4223 46.3086C61.1043 46.6866 60.5643 46.8756 59.8023 46.8756ZM63.4426 40.6746H62.3446V39.4776H66.1516V40.6746H65.0626V46.7676H63.4426V40.6746ZM66.8204 39.4776H68.4314V42.5556H68.7914C70.2194 42.5556 70.9334 43.2576 70.9334 44.6616C70.9334 45.2256 70.8344 45.6636 70.6364 45.9756C70.4444 46.2816 70.1804 46.4916 69.8444 46.6056C69.5144 46.7136 69.1124 46.7676 68.6384 46.7676H66.8204V39.4776ZM68.6474 45.7146C68.9294 45.7146 69.1334 45.6336 69.2594 45.4716C69.3854 45.3096 69.4484 45.0546 69.4484 44.7066C69.4484 44.3766 69.3914 44.1216 69.2774 43.9416C69.1634 43.7616 68.9474 43.6716 68.6294 43.6716H68.4314V45.7146H68.6474Z" fill="#F5A41F"></path></svg> 