<?xml version="1.0" encoding="UTF-8"?> <svg xmlns="http://www.w3.org/2000/svg" width="75" height="76" viewBox="0 0 75 76" fill="none"><rect x="1" y="1.26758" width="73" height="73" rx="7" fill="white" stroke="#EE85A1" stroke-width="2"></rect><path d="M23.5914 31.8756C22.7994 31.8756 22.2354 31.6686 21.8994 31.2546C21.5694 30.8346 21.4044 30.2316 21.4044 29.4456V26.8176C21.4044 26.0136 21.5694 25.4076 21.8994 24.9996C22.2294 24.5856 22.7934 24.3786 23.5914 24.3786C24.3534 24.3786 24.8934 24.5616 25.2114 24.9276C25.5294 25.2936 25.6884 25.8126 25.6884 26.4846V27.1146H24.1134V26.3856C24.1134 26.1036 24.0834 25.8876 24.0234 25.7376C23.9634 25.5876 23.8194 25.5126 23.5914 25.5126C23.3634 25.5126 23.2134 25.5936 23.1414 25.7556C23.0694 25.9116 23.0334 26.1306 23.0334 26.4126V29.8416C23.0334 30.1296 23.0694 30.3516 23.1414 30.5076C23.2194 30.6576 23.3694 30.7326 23.5914 30.7326C23.8134 30.7326 23.9544 30.6576 24.0144 30.5076C24.0804 30.3516 24.1134 30.1296 24.1134 29.8416V29.0766H25.6884V29.7066C25.6884 30.3906 25.5294 30.9246 25.2114 31.3086C24.8934 31.6866 24.3534 31.8756 23.5914 31.8756ZM27.2317 25.6746H26.1337V24.4776H29.9407V25.6746H28.8517V31.7676H27.2317V25.6746ZM30.5825 24.4776H33.8585V25.5756H32.1935V27.3846H33.4625V28.5006H32.1935V30.6786H33.8765V31.7676H30.5825V24.4776ZM34.6079 24.4776H38.9729V31.7676H37.3889V25.6296H36.1919V31.7676H34.6079V24.4776ZM40.0571 24.4776H43.3331V25.5756H41.6681V27.3846H42.9371V28.5006H41.6681V30.6786H43.3511V31.7676H40.0571V24.4776ZM44.1095 24.4776H45.7205V27.4296H46.8455V24.4776H48.4655V31.7676H46.8455V28.5816H45.7205V31.7676H44.1095V24.4776ZM49.6026 24.4776H51.2136V27.5556H51.5736C53.0016 27.5556 53.7156 28.2576 53.7156 29.6616C53.7156 30.2256 53.6166 30.6636 53.4186 30.9756C53.2266 31.2816 52.9626 31.4916 52.6266 31.6056C52.2966 31.7136 51.8946 31.7676 51.4206 31.7676H49.6026V24.4776ZM51.4296 30.7146C51.7116 30.7146 51.9156 30.6336 52.0416 30.4716C52.1676 30.3096 52.2306 30.0546 52.2306 29.7066C52.2306 29.3766 52.1736 29.1216 52.0596 28.9416C51.9456 28.7616 51.7296 28.6716 51.4116 28.6716H51.2136V30.7146H51.4296ZM9.68209 39.4776H14.0471V46.7676H12.4631V40.6296H11.2661V46.7676H9.68209V39.4776ZM17.2193 46.8756C16.4333 46.8756 15.8723 46.6746 15.5363 46.2726C15.2003 45.8646 15.0323 45.2646 15.0323 44.4726V41.7636C15.0323 40.9716 15.2003 40.3776 15.5363 39.9816C15.8723 39.5796 16.4333 39.3786 17.2193 39.3786C18.0113 39.3786 18.5753 39.5796 18.9113 39.9816C19.2533 40.3836 19.4243 40.9776 19.4243 41.7636V44.4726C19.4243 45.2646 19.2533 45.8646 18.9113 46.2726C18.5753 46.6746 18.0113 46.8756 17.2193 46.8756ZM17.2193 45.7326C17.4473 45.7326 17.5973 45.6576 17.6693 45.5076C17.7413 45.3516 17.7773 45.1416 17.7773 44.8776V41.3676C17.7773 41.0976 17.7413 40.8876 17.6693 40.7376C17.5973 40.5876 17.4473 40.5126 17.2193 40.5126C17.0033 40.5126 16.8593 40.5906 16.7873 40.7466C16.7153 40.8966 16.6793 41.1036 16.6793 41.3676V44.8776C16.6793 45.1416 16.7123 45.3516 16.7783 45.5076C16.8443 45.6576 16.9913 45.7326 17.2193 45.7326ZM19.9277 45.6336C20.2697 45.6396 20.5037 45.5946 20.6297 45.4986C20.7557 45.4026 20.8427 45.2046 20.8907 44.9046C20.9447 44.5986 21.0047 43.9986 21.0707 43.1046L21.0977 42.7356L21.3317 39.4776H25.1927V46.7676H23.5907V40.7106H22.7897L22.6457 43.0416C22.5677 44.1636 22.4837 44.9556 22.3937 45.4176C22.3037 45.8736 22.1117 46.2156 21.8177 46.4436C21.5297 46.6656 21.0527 46.7766 20.3867 46.7766C20.1887 46.7766 20.0357 46.7736 19.9277 46.7676V45.6336ZM27.247 43.5276C26.959 43.3536 26.728 43.1046 26.554 42.7806C26.386 42.4506 26.302 42.0756 26.302 41.6556C26.302 40.8516 26.506 40.2876 26.914 39.9636C27.328 39.6396 27.949 39.4776 28.777 39.4776H30.649V46.7676H29.047V43.8876H28.759H28.66L27.598 46.7676H25.861L27.247 43.5276ZM29.047 42.7536V40.5846H28.795C28.135 40.5846 27.805 40.9446 27.805 41.6646C27.805 42.3906 28.141 42.7536 28.813 42.7536H29.047ZM31.769 39.4776H34.217C34.859 39.4776 35.339 39.6606 35.657 40.0266C35.975 40.3866 36.134 40.9086 36.134 41.5926C36.134 42.3726 35.948 42.9156 35.576 43.2216C35.21 43.5216 34.694 43.6716 34.028 43.6716H33.38V46.7676H31.769V39.4776ZM33.92 42.5466C34.202 42.5466 34.388 42.4716 34.478 42.3216C34.574 42.1716 34.622 41.9196 34.622 41.5656C34.622 41.2416 34.577 41.0016 34.487 40.8456C34.397 40.6896 34.205 40.6116 33.911 40.6116H33.38V42.5466H33.92ZM36.9376 39.4776H38.2066V43.6536L40.0696 39.4776H41.1136V46.7676H39.8176V42.5196L37.9186 46.7676H36.9376V39.4776ZM44.0732 46.9026C43.3472 46.9026 42.8312 46.7046 42.5252 46.3086C42.2192 45.9126 42.0662 45.3486 42.0662 44.6166V44.3556H43.5782V44.6346C43.5782 45.0006 43.6142 45.2586 43.6862 45.4086C43.7642 45.5586 43.9022 45.6336 44.1002 45.6336C44.2922 45.6336 44.4212 45.5586 44.4872 45.4086C44.5592 45.2586 44.5952 45.0126 44.5952 44.6706C44.5952 44.2806 44.5352 43.9986 44.4152 43.8246C44.3012 43.6446 44.0822 43.5516 43.7582 43.5456C43.7402 43.5396 43.6052 43.5366 43.3532 43.5366V42.5556H43.7222C44.0582 42.5496 44.2862 42.4596 44.4062 42.2856C44.5322 42.1116 44.5952 41.8296 44.5952 41.4396C44.5952 41.1516 44.5502 40.9356 44.4602 40.7916C44.3702 40.6416 44.2262 40.5666 44.0282 40.5666C43.8422 40.5666 43.7072 40.6416 43.6232 40.7916C43.5452 40.9416 43.5032 41.1576 43.4972 41.4396V41.8446H41.9852V41.4036C41.9852 40.7556 42.1682 40.2546 42.5342 39.9006C42.9062 39.5466 43.4072 39.3696 44.0372 39.3696C44.6792 39.3696 45.1772 39.5376 45.5312 39.8736C45.8912 40.2096 46.0712 40.6986 46.0712 41.3406C46.0712 41.7546 45.9872 42.1086 45.8192 42.4026C45.6512 42.6966 45.4382 42.8796 45.1802 42.9516C45.4622 43.0596 45.6812 43.2456 45.8372 43.5096C45.9932 43.7676 46.0712 44.1396 46.0712 44.6256C46.0712 45.3396 45.9122 45.8976 45.5942 46.2996C45.2762 46.7016 44.7692 46.9026 44.0732 46.9026ZM47.9825 39.4776H49.8185L51.1775 46.7676H49.6925L49.4495 45.2286H48.3785L48.1265 46.7676H46.6055L47.9825 39.4776ZM49.2965 44.2656L48.9095 41.4216L48.5225 44.2656H49.2965ZM55.9905 46.7676H51.9405V39.4776H53.5515V45.6786H54.7755V39.4776H56.3865V45.6786H57.3765V48.3426H56.1975L55.9905 46.7676ZM58.1105 39.4776H59.3795V43.6536L61.2425 39.4776H62.2865V46.7676H60.9905V42.5196L59.0915 46.7676H58.1105V39.4776ZM63.4191 39.4776H64.6881V43.6536L66.5511 39.4776H67.5951V46.7676H66.2991V42.5196L64.4001 46.7676H63.4191V39.4776Z" fill="#EE85A1"></path></svg> 