<svg width="160" height="49" viewBox="0 0 160 49" fill="none" xmlns="http://www.w3.org/2000/svg">
<path d="M79.9872 15.5168H83.44C87.6119 15.5168 88.17 20.822 88.17 20.822C88.17 20.822 91.008 39.2584 99.5975 44.8469C105.472 48.6795 117.41 48.5001 117.41 48.5001C117.41 48.5001 119.463 48.6795 130.91 48.217C142.195 47.7638 145.582 40.4101 145.582 40.4101L153.623 24.2299C154.664 21.8038 159.299 16.0548 159.299 16.0548L159.375 4.99115C154.105 2.6217 142.725 1.82872 132.253 1.0452C122.302 0.517136 112.328 1.43936 102.644 3.7828C96.5325 5.46312 84.2158 7.50216 84.2158 7.50216L75.8816 7.44553C75.8816 7.44553 63.5837 5.22712 57.5105 3.46184C47.8588 0.984464 37.8972 -0.0776577 27.9389 0.308877C17.4668 0.941358 6.07706 1.57386 0.770062 3.86778L0.694366 14.9315C0.694366 14.9315 5.22569 20.7465 6.22844 23.1915L14.0423 39.4755C14.0423 39.4755 17.3154 46.8859 28.601 47.4901C40.038 48.1131 42.0909 47.9715 42.0909 47.9715C42.0909 47.9715 54.0292 48.3114 59.9606 44.5731C68.6164 39.0979 71.7192 20.7088 71.7192 20.7088C71.7192 20.7088 72.372 15.4412 76.5343 15.4695L79.9872 15.5168ZM147.446 23.2009C144.712 35.0481 141.987 38.6542 139.206 41.1369C135.678 44.3088 125.631 44.5448 119.842 44.507C114.052 44.4693 107.071 44.9507 101.868 41.1275C95.9176 36.7757 91.9351 22.2947 94.2243 15.1014C96.5136 7.9081 110.145 6.19002 110.145 6.19002C121.034 5.04778 134.041 5.6425 139.528 6.89802C145.014 8.15354 150.17 11.3443 147.446 23.2009ZM20.5696 6.06729C26.0753 4.88729 39.0921 4.47192 49.9615 5.76521C49.9615 5.76521 63.5743 7.65321 65.7595 14.9126C67.9447 22.172 63.7446 36.5586 57.7375 40.8254C52.4778 44.6014 45.5154 43.9878 39.7638 43.9501C34.0121 43.9123 23.9279 43.5347 20.4466 40.3157C17.6938 37.7763 15.0261 34.1325 12.4625 22.2475C9.89884 10.3625 15.0734 7.24729 20.5696 6.06729Z" fill="black"/>
</svg>
