<svg width="75" height="76" viewBox="0 0 75 76" fill="none" xmlns="http://www.w3.org/2000/svg">
<mask id="mask0" mask-type="alpha" maskUnits="userSpaceOnUse" x="0" y="0" width="76" height="76">
<rect x="0.000244141" y="0.267578" width="75" height="75" fill="#EA3210"/>
</mask>
<g mask="url(#mask0)">
<rect x="0.000244141" y="0.267578" width="75" height="75" fill="#E30613"/>
<path d="M20.9477 24.8538L15.1506 29.0945L14.0769 38.3804L16.3851 46.4859C19.3196 48.7046 25.2207 53.1958 25.3495 53.4105C25.4783 53.6252 34.958 53.5 39.6818 53.4105L50.0955 50.7266L52.8868 46.4859L56.376 41.0643L57.2348 26.5173C55.0877 25.5153 50.7397 23.5113 50.525 23.5113C50.3103 23.5113 43.2067 22.5093 39.6818 22.0083L20.9477 24.8538Z" fill="black" stroke="black"/>
<rect x="22.12" y="33.04" width="1.48259" height="0.127309" fill="white"/>
<rect x="22.9885" y="32.3604" width="1.48259" height="0.127309" transform="rotate(90 22.9885 32.3604)" fill="white"/>
<rect x="24.3722" y="43.0049" width="6.08964" height="0.522917" fill="white"/>
<rect x="27.9394" y="40.2212" width="6.08964" height="0.522917" transform="rotate(90 27.9394 40.2212)" fill="white"/>
<rect x="43.1387" y="30.4219" width="3.4497" height="0.296225" fill="white"/>
<rect x="45.1592" y="28.8442" width="3.4497" height="0.296225" transform="rotate(90 45.1592 28.8442)" fill="white"/>
<rect x="31.8203" y="32.0635" width="3.4497" height="0.296225" fill="white"/>
<rect x="33.8408" y="30.4854" width="3.4497" height="0.296225" transform="rotate(90 33.8408 30.4854)" fill="white"/>
<rect x="43.4319" y="47.3691" width="3.4497" height="0.296225" fill="white"/>
<rect x="45.4525" y="45.7925" width="3.4497" height="0.296225" transform="rotate(90 45.4525 45.7925)" fill="white"/>
<rect x="37.8604" y="37.46" width="3.4497" height="0.296225" fill="white"/>
<rect x="39.8809" y="35.8828" width="3.4497" height="0.296225" transform="rotate(90 39.8809 35.8828)" fill="white"/>
<path d="M5.72364 31.185H8.28151C11.372 31.185 11.7854 35.1234 11.7854 35.1234C11.7854 35.1234 13.8878 48.8096 20.2509 52.9582C24.6027 55.8034 33.4465 55.6703 33.4465 55.6703C33.4465 55.6703 34.9673 55.8034 43.4467 55.46C51.807 55.1237 54.3158 49.6646 54.3158 49.6646L60.2725 37.6532C61.0433 35.8522 64.4772 31.5844 64.4772 31.5844L64.5332 23.3713C60.6299 21.6123 52.1995 21.0236 44.4418 20.442C37.0704 20.05 29.6813 20.7346 22.5074 22.4742C17.9803 23.7216 8.85616 25.2353 8.85616 25.2353L2.68227 25.1933C2.68227 25.1933 -6.42792 23.5464 -10.9269 22.236C-18.0768 20.3969 -25.4563 19.6084 -32.8333 19.8954C-40.591 20.3649 -49.0284 20.8344 -52.9598 22.5373L-53.0159 30.7505C-53.0159 30.7505 -49.6591 35.0673 -48.9163 36.8823L-43.1278 48.9708C-43.1278 48.9708 -40.7031 54.4719 -32.3428 54.9204C-23.8704 55.383 -22.3497 55.2778 -22.3497 55.2778C-22.3497 55.2778 -13.5058 55.5301 -9.11189 52.755C-2.69974 48.6905 -0.401184 35.0393 -0.401184 35.0393C-0.401184 35.0393 0.0823746 31.1289 3.16581 31.1499L5.72364 31.185ZM55.6964 36.8893C53.6711 45.6841 51.6529 48.3611 49.5926 50.2042C46.9787 52.5588 39.5363 52.734 35.2476 52.706C30.9588 52.6779 25.787 53.0353 21.9327 50.1972C17.5248 46.9666 14.5745 36.2166 16.2704 30.8766C17.9663 25.5367 28.0646 24.2612 28.0646 24.2612C36.1305 23.4133 45.7663 23.8548 49.8308 24.7868C53.8954 25.7189 57.7146 28.0875 55.6964 36.8893ZM-38.2924 24.1701C-34.2139 23.2942 -24.5711 22.9858 -16.5192 23.9459C-16.5192 23.9459 -6.43491 25.3475 -4.8161 30.7365C-3.1973 36.1255 -6.30875 46.8054 -10.7587 49.9729C-14.6551 52.776 -19.8128 52.3205 -24.0736 52.2925C-28.3343 52.2645 -35.8047 51.9842 -38.3835 49.5945C-40.4228 47.7094 -42.399 45.0044 -44.2981 36.1815C-46.1973 27.3587 -42.364 25.0461 -38.2924 24.1701Z" fill="#9C9B9B"/>
</g>
</svg>
