<svg width="77" height="85" viewBox="0 0 77 85" fill="none" xmlns="http://www.w3.org/2000/svg">
<path d="M76.7286 11.0404C76.6086 10.9201 76.3818 10.8418 76.0671 10.8418C75.7626 10.8418 75.3761 10.9151 74.9243 11.0947L68.6965 13.5712C68.0263 13.8374 67.3379 14.3037 66.757 14.8849L51.4941 30.1478V42.4015L72.8836 21.012C73.4643 20.4316 73.9309 19.7427 74.1976 19.0723L76.6738 12.8447C77.0397 11.9258 76.9648 11.2766 76.7286 11.0404Z" fill="#E30613"/>
<path d="M69.2746 73.5121L51.4934 55.731V67.9844L63.1477 79.6387C64.0942 80.5855 65.2378 81.2575 66.2858 81.4824C67.0465 81.6458 67.6642 81.5578 67.9802 81.241L70.8764 78.3449C71.1932 78.0283 71.2811 77.4106 71.1178 76.6502C70.8928 75.6022 70.2211 74.4581 69.2746 73.5121Z" fill="#E30613"/>
<path d="M25.9113 55.731L8.13017 73.5121C7.18366 74.4584 6.51194 75.6022 6.28673 76.6502C6.12337 77.4106 6.21131 78.0283 6.52812 78.3449L9.42428 81.241C9.74056 81.5578 10.358 81.6455 11.1187 81.4824C12.1667 81.2575 13.3105 80.5855 14.257 79.639L25.9113 67.9847V55.731Z" fill="#E30613"/>
<path d="M25.9105 30.148L10.6479 14.8851C10.067 14.304 9.3783 13.8376 8.70893 13.5715L2.48029 11.0947C2.02883 10.9151 1.64208 10.8418 1.33754 10.8418C1.02282 10.8418 0.796042 10.9201 0.676 11.0404C0.439829 11.2766 0.364933 11.9258 0.730541 12.8447L3.20707 19.0725C3.47351 19.7427 3.94011 20.4316 4.52075 21.012L25.9102 42.4015V30.148H25.9105Z" fill="#E30613"/>
<rect x="29.3015" y="1.70947" width="18.633" height="81.3849" rx="9.31648" stroke="#E30613" stroke-width="2"/>
<rect x="34.0134" y="34.7505" width="9.20847" height="2.51101" fill="#E30613"/>
<rect x="34.0134" y="48.7007" width="9.20847" height="2.51101" fill="#E30613"/>
</svg>
