<svg width="24" height="24" viewBox="0 0 24 24" fill="none" xmlns="http://www.w3.org/2000/svg">
<path d="M11.6591 0.110827C6.89649 0.110827 2.37388 -0.31284 0.646422 4.12058C-0.0671222 5.95165 0.0364992 8.3297 0.0364992 11.7348C0.0364992 14.7227 -0.0592522 17.531 0.646422 19.3477C2.36994 23.7837 6.92928 23.3587 11.6565 23.3587C16.2172 23.3587 20.9195 23.8335 22.6679 19.3477C23.3828 17.4982 23.2778 15.1556 23.2778 11.7348C23.2778 7.1938 23.5284 4.26224 21.3261 2.06127C19.0963 -0.168557 16.0807 0.110827 11.6539 0.110827H11.6591ZM10.6177 2.20555C20.5522 2.18981 21.8166 1.08539 21.1188 16.4279C20.8709 21.8542 16.7392 21.2587 11.6604 21.2587C2.40011 21.2587 2.13385 20.9938 2.13385 11.7295C2.13385 2.3577 2.86838 2.2108 10.6177 2.20293V2.20555ZM17.8633 4.135C17.0933 4.135 16.469 4.75935 16.469 5.5293C16.469 6.29925 17.0933 6.9236 17.8633 6.9236C18.6332 6.9236 19.2576 6.29925 19.2576 5.5293C19.2576 4.75935 18.6332 4.135 17.8633 4.135ZM11.6591 5.7654C8.36293 5.7654 5.69107 8.43857 5.69107 11.7348C5.69107 15.031 8.36293 17.7028 11.6591 17.7028C14.9553 17.7028 17.6259 15.031 17.6259 11.7348C17.6259 8.43857 14.9553 5.7654 11.6591 5.7654ZM11.6591 7.86012C16.7812 7.86012 16.7877 15.6094 11.6591 15.6094C6.5384 15.6094 6.53053 7.86012 11.6591 7.86012Z" fill="#E30613"/>
</svg>
