<svg width="24" height="15" viewBox="0 0 24 15" fill="none" xmlns="http://www.w3.org/2000/svg">
<path d="M19.111 8.54179C18.7387 8.07157 18.8452 7.86237 19.111 7.44206C19.1158 7.43726 22.1895 3.18994 22.5062 1.74954L22.5081 1.74858C22.6655 1.22366 22.5081 0.837891 21.7471 0.837891H19.229C18.588 0.837891 18.2924 1.16896 18.1341 1.53938C18.1341 1.53938 16.852 4.60827 15.0383 6.59758C14.453 7.1724 14.1824 7.35665 13.8628 7.35665C13.7054 7.35665 13.4607 7.1724 13.4607 6.64748V1.74858C13.4607 1.11906 13.2813 0.837891 12.7506 0.837891H8.79116C8.38908 0.837891 8.15013 1.13154 8.15013 1.40503C8.15013 2.00192 9.05698 2.13915 9.15102 3.8185V7.46221C9.15102 8.26062 9.00612 8.40744 8.68464 8.40744C7.82865 8.40744 5.75106 5.32607 4.51985 1.79944C4.27131 1.11522 4.02852 0.83885 3.38269 0.83885H0.863666C0.144904 0.83885 0 1.16992 0 1.54034C0 2.19481 0.855989 5.44891 3.98054 9.74804C6.06293 12.6826 8.99556 14.2727 11.6633 14.2727C13.2669 14.2727 13.4626 13.9196 13.4626 13.3121C13.4626 10.5081 13.3177 10.2432 14.1209 10.2432C14.4933 10.2432 15.1343 10.4275 16.6313 11.8429C18.3423 13.5213 18.6235 14.2727 19.5812 14.2727H22.0993C22.8171 14.2727 23.1808 13.9196 22.9716 13.2229C22.4927 11.7575 19.2569 8.74331 19.111 8.54179Z" fill="black"/>
</svg>
