<svg width="23" height="24" viewBox="0 0 23 24" fill="none" xmlns="http://www.w3.org/2000/svg">
<path d="M19.6648 3.37056C17.4798 1.22542 14.6048 0.0136719 11.543 0.0136719C2.75517 0.0136719 -2.76284 9.68335 1.62531 17.3753L0 23.3727L6.07097 21.7648C8.71593 23.216 10.8827 23.0876 11.5487 23.1732C21.7386 23.1732 26.811 10.6527 19.6504 3.40852L19.6648 3.37056Z" fill="#ECEFF1"/>
<path d="M11.5639 21.1847L11.5581 21.1837H11.5428C8.49339 21.1837 6.54512 19.717 6.35346 19.6323L2.75976 20.5813L3.72287 17.0336L3.49383 16.6686C2.54509 15.1347 2.04102 13.3682 2.04102 11.5491C2.04102 2.99095 12.3382 -1.28862 18.297 4.7604C24.2415 10.7462 20.068 21.1847 11.5639 21.1847Z" fill="#E30613"/>
<path d="M16.7786 13.9395L16.7699 14.0125C16.4815 13.8665 15.0766 13.1686 14.8149 13.0723C14.2275 12.8513 14.3933 13.0372 13.2653 14.3492C13.0976 14.539 12.9309 14.5536 12.6463 14.4222C12.3588 14.2762 11.4359 13.9696 10.3434 12.9769C9.49241 12.2031 8.92125 11.2541 8.75258 10.9622C8.47179 10.4697 9.05925 10.3996 9.59399 9.37179C9.68982 9.1674 9.64095 9.00681 9.57003 8.86178C9.49816 8.71579 8.92604 7.28505 8.68646 6.7147C8.45646 6.14629 8.21975 6.21832 8.04246 6.21832C7.49047 6.16965 7.08701 6.17744 6.73147 6.55313C5.18474 8.27975 5.57478 10.0609 6.89822 11.9549C9.49912 15.4121 10.8849 16.0486 13.4187 16.9323C14.1029 17.1533 14.7268 17.1221 15.2203 17.0501C15.7704 16.9615 16.9137 16.3484 17.1523 15.6622C17.3967 14.976 17.3967 14.4066 17.3248 14.2752C17.2539 14.1439 17.066 14.0709 16.7786 13.9395Z" fill="#FAFAFA"/>
</svg>
