<svg width="95" height="94" viewBox="0 0 95 94" fill="none" xmlns="http://www.w3.org/2000/svg">
<path d="M72.1688 46.9315C72.1688 60.5034 61.1271 71.5451 47.5552 71.5451C33.9832 71.5451 22.9416 60.5034 22.9416 46.9315C22.9416 33.3595 33.9832 22.3179 47.5552 22.3179C61.1271 22.3179 72.1688 33.3595 72.1688 46.9315ZM47.5552 27.7876C36.9992 27.7876 28.4112 36.3755 28.4112 46.9315C28.4112 57.4874 36.9992 66.0754 47.5552 66.0754C58.1111 66.0754 66.6991 57.4874 66.6991 46.9315C66.6991 36.3755 58.1111 27.7876 47.5552 27.7876Z" fill="#E30613"/>
<path d="M26.282 68.2035C27.3501 69.2716 27.3501 71.0031 26.282 72.0711L13.0771 85.2761C12.0092 86.3441 10.2775 86.3443 9.20949 85.2761C8.14144 84.208 8.14144 82.4765 9.20949 81.4084L22.4144 68.2035C23.4825 67.1353 25.2142 67.1353 26.282 68.2035Z" fill="#E30613"/>
<path d="M82.0318 8.58668C83.0997 7.51863 84.8314 7.51863 85.8995 8.58668C86.9675 9.65473 86.9675 11.3863 85.8995 12.4543L72.6945 25.6592C71.6267 26.7273 69.895 26.7275 68.8269 25.6592C67.7589 24.5912 67.7589 22.8597 68.8269 21.7916L82.0318 8.58668Z" fill="#E30613"/>
<path d="M85.8995 85.2764C84.8316 86.3445 83.0999 86.3446 82.0318 85.2764L68.8269 72.0715C67.7589 71.0034 67.7589 69.2719 68.8269 68.2039C69.8948 67.1358 71.6265 67.1358 72.6945 68.2039L85.8995 81.4088C86.9675 82.4768 86.9675 84.2084 85.8995 85.2764Z" fill="#E30613"/>
<path d="M9.20949 8.58668C10.2774 7.51863 12.0091 7.51863 13.0771 8.58668L26.282 21.7916C27.3501 22.8597 27.3501 24.5912 26.282 25.6592C25.2142 26.7273 23.4825 26.7275 22.4144 25.6592L9.20949 12.4543C8.14144 11.3863 8.14144 9.65473 9.20949 8.58668Z" fill="#E30613"/>
<path d="M36.0411 74.7252C37.4366 75.3031 38.0991 76.903 37.5212 78.2985L35.4281 83.3518C34.8509 84.7451 33.2523 85.4107 31.8547 84.8319C30.4592 84.2539 29.7967 82.654 30.3747 81.2585L32.4677 76.2053C33.0459 74.8098 34.6456 74.1474 36.0411 74.7252Z" fill="#E30613"/>
<path d="M59.0662 19.1383C57.6707 18.5603 57.0081 16.9604 57.5861 15.5649L59.6791 10.5117C60.2573 9.11616 61.857 8.45378 63.2525 9.03156C64.648 9.60952 65.3106 11.2094 64.7326 12.6049L62.6395 17.6582C62.0621 19.0515 60.4637 19.7171 59.0662 19.1383Z" fill="#E30613"/>
<path d="M78.9202 56.9636L83.9734 59.0567C85.3689 59.6346 86.0315 61.2345 85.4535 62.63C84.8763 64.0233 83.2777 64.689 81.8802 64.1101L76.8269 62.017C75.4314 61.4391 74.7689 59.8392 75.3468 58.4437C75.9248 57.0484 77.5245 56.386 78.9202 56.9636Z" fill="#E30613"/>
<path d="M16.1869 36.8993L11.1336 34.8062C9.73812 34.2282 9.07556 32.6283 9.65352 31.2328C10.2315 29.8373 11.8312 29.175 13.2269 29.7527L18.2801 31.8458C19.6756 32.4238 20.3382 34.0237 19.7602 35.4192C19.183 36.8125 17.5844 37.478 16.1869 36.8993Z" fill="#E30613"/>
<path d="M62.6395 76.2053L64.7326 81.2585C65.3106 82.654 64.648 84.2537 63.2525 84.8319C61.8513 85.412 60.2549 84.7416 59.6791 83.3518L57.5861 78.2985C57.0081 76.903 57.6707 75.3033 59.0662 74.7252C60.4619 74.1474 62.0616 74.8098 62.6395 76.2053Z" fill="#E30613"/>
<path d="M32.4677 17.6582L30.3746 12.6049C29.7967 11.2094 30.4592 9.6097 31.8547 9.03156C33.2502 8.45378 34.8499 9.11616 35.4281 10.5117L37.5212 15.5649C38.0991 16.9604 37.4366 18.5601 36.0411 19.1383C34.6399 19.7184 33.0433 19.048 32.4677 17.6582Z" fill="#E30613"/>
<path d="M76.8269 31.8459L81.8802 29.7528C83.2757 29.1749 84.8754 29.8374 85.4535 31.2329C86.0315 32.6284 85.3689 34.2281 83.9734 34.8063L78.9202 36.8993C77.519 37.4795 75.9226 36.8091 75.3468 35.4192C74.7689 34.0237 75.4314 32.4239 76.8269 31.8459Z" fill="#E30613"/>
<path d="M11.1336 59.0568L16.1869 56.9637C17.5824 56.3859 19.1821 57.0483 19.7602 58.4438C20.3382 59.8393 19.6756 61.439 18.2801 62.0171L13.2269 64.1102C11.8257 64.6904 10.2293 64.02 9.65352 62.6301C9.07556 61.2346 9.73812 59.6347 11.1336 59.0568Z" fill="#E30613"/>
<path d="M50.2894 79.749V90.8707C50.2894 92.3811 49.0649 93.6056 47.5545 93.6056C46.0442 93.6056 44.8197 92.3811 44.8197 90.8707V79.749C44.8197 78.2386 46.0442 77.0142 47.5545 77.0142C49.0649 77.0142 50.2894 78.2386 50.2894 79.749Z" fill="#E30613"/>
<path d="M44.8197 14.1134V2.99168C44.8197 1.48132 46.0442 0.256836 47.5545 0.256836C49.0649 0.256836 50.2894 1.48132 50.2894 2.99168V14.1134C50.2894 15.6237 49.0649 16.8482 47.5545 16.8482C46.0442 16.8482 44.8197 15.6237 44.8197 14.1134Z" fill="#E30613"/>
<path d="M94.2288 46.9311C94.2288 48.4415 93.0043 49.666 91.494 49.666H80.3723C78.8619 49.666 77.6374 48.4415 77.6374 46.9311C77.6374 45.4208 78.8619 44.1963 80.3723 44.1963H91.494C93.0043 44.1963 94.2288 45.4208 94.2288 46.9311Z" fill="#E30613"/>
<path d="M3.61538 44.1963H14.7371C16.2474 44.1963 17.4719 45.4208 17.4719 46.9311C17.4719 48.4415 16.2474 49.666 14.7371 49.666H3.61538C2.10501 49.666 0.880529 48.4415 0.880529 46.9311C0.880529 45.4208 2.10501 44.1963 3.61538 44.1963Z" fill="#E30613"/>
</svg>
