<svg width="28" height="23" viewBox="0 0 28 23" fill="none" xmlns="http://www.w3.org/2000/svg">
<path fill-rule="evenodd" clip-rule="evenodd" d="M24.5115 13.8086H11.6016C9.44156 9.29859 7.50155 4.56859 5.46155 0.0585938H0.601562V1.76859H4.26154C6.20154 6.39859 8.26154 10.9086 10.2615 15.4286H24.4615C24.5164 14.89 24.5164 14.3472 24.4615 13.8086H24.5115ZM21.3915 17.1386C20.9017 17.2501 20.4559 17.5044 20.1106 17.8693C19.7653 18.2342 19.5359 18.6933 19.4515 19.1886C19.3731 19.5203 19.3612 19.8642 19.4164 20.2005C19.4716 20.5368 19.5929 20.8588 19.7733 21.148C19.9536 21.4372 20.1895 21.6877 20.4673 21.8852C20.7451 22.0827 21.0592 22.2232 21.3915 22.2986C21.7768 22.3822 22.1758 22.3784 22.5594 22.2876C22.943 22.1967 23.3015 22.0212 23.6083 21.7737C23.9152 21.5263 24.1627 21.2133 24.3328 20.8576C24.5029 20.502 24.5912 20.1128 24.5912 19.7186C24.5912 19.3244 24.5029 18.9352 24.3328 18.5796C24.1627 18.2239 23.9152 17.9109 23.6083 17.6635C23.3015 17.416 22.943 17.2405 22.5594 17.1496C22.1758 17.0588 21.7768 17.055 21.3915 17.1386ZM12.8915 17.1386C12.4064 17.2724 11.9657 17.5328 11.6143 17.893C11.2628 18.2532 11.0134 18.7003 10.8915 19.1886C10.7764 19.8631 10.9178 20.5563 11.2879 21.1318C11.658 21.7073 12.23 22.1235 12.8915 22.2986C13.3171 22.3741 13.7546 22.3459 14.1669 22.2165C14.5793 22.0871 14.9544 21.8602 15.2605 21.5551C15.5666 21.25 15.7947 20.8756 15.9254 20.4637C16.0562 20.0517 16.0857 19.6144 16.0115 19.1886C15.8696 18.503 15.4612 17.9019 14.8761 17.5175C14.291 17.133 13.5771 16.9967 12.8915 17.1386ZM12.6016 11.9886H24.6016L27.9416 3.4986H9.23157L9.77155 5.2186H12.9916L13.6415 6.9386H10.5215L11.1716 8.54858H14.4016L15.0416 10.3686H11.9216L12.6016 11.9886Z" fill="black"/>
</svg>
