<svg width="24" height="24" viewBox="0 0 24 24" fill="none" xmlns="http://www.w3.org/2000/svg">
<path d="M11.6591 0.661608C6.89649 0.661608 2.37388 0.237942 0.646422 4.67136C-0.0671222 6.50244 0.0364992 8.88048 0.0364992 12.2856C0.0364992 15.2735 -0.0592522 18.0818 0.646422 19.8984C2.36994 24.3345 6.92928 23.9095 11.6565 23.9095C16.2172 23.9095 20.9195 24.3843 22.6679 19.8984C23.3828 18.049 23.2778 15.7064 23.2778 12.2856C23.2778 7.74458 23.5284 4.81302 21.3261 2.61205C19.0963 0.382224 16.0807 0.661608 11.6539 0.661608H11.6591ZM10.6177 2.75633C20.5522 2.74059 21.8166 1.63617 21.1188 16.9787C20.8709 22.405 16.7392 21.8095 11.6604 21.8095C2.40011 21.8095 2.13385 21.5446 2.13385 12.2803C2.13385 2.90848 2.86838 2.76158 10.6177 2.75371V2.75633ZM17.8633 4.68578C17.0933 4.68578 16.469 5.31014 16.469 6.08008C16.469 6.85003 17.0933 7.47438 17.8633 7.47438C18.6332 7.47438 19.2576 6.85003 19.2576 6.08008C19.2576 5.31014 18.6332 4.68578 17.8633 4.68578ZM11.6591 6.31618C8.36293 6.31618 5.69107 8.98935 5.69107 12.2856C5.69107 15.5818 8.36293 18.2536 11.6591 18.2536C14.9553 18.2536 17.6259 15.5818 17.6259 12.2856C17.6259 8.98935 14.9553 6.31618 11.6591 6.31618ZM11.6591 8.4109C16.7812 8.4109 16.7877 16.1602 11.6591 16.1602C6.5384 16.1602 6.53053 8.4109 11.6591 8.4109Z" fill="black"/>
</svg>
