<svg width="13" height="13" viewBox="0 0 13 13" fill="none" xmlns="http://www.w3.org/2000/svg">
<path d="M11.5012 1.54374C10.73 0.771376 9.69944 0.313032 8.6094 0.257632C7.51936 0.202232 6.44759 0.553731 5.60208 1.24392C4.75656 1.93411 4.19758 2.91378 4.03359 3.99285C3.8696 5.07191 4.1123 6.17341 4.71459 7.08364L3.90456 7.89366L3.7813 7.7704C3.76493 7.75389 3.74545 7.74079 3.72399 7.73185C3.70253 7.72291 3.67952 7.71831 3.65627 7.71831C3.63302 7.71831 3.61001 7.72291 3.58855 7.73185C3.56709 7.74079 3.54761 7.75389 3.53124 7.7704L0.667966 10.6442C0.602371 10.7102 0.565552 10.7995 0.565552 10.8925C0.565552 10.9856 0.602371 11.0748 0.667966 11.1408L1.66113 12.1375C1.69387 12.1705 1.73283 12.1967 1.77574 12.2146C1.81866 12.2325 1.86469 12.2417 1.91118 12.2417C1.95768 12.2417 2.00371 12.2325 2.04663 12.2146C2.08954 12.1967 2.1285 12.1705 2.16124 12.1375L5.02451 9.27423C5.04102 9.25786 5.05412 9.23839 5.06306 9.21693C5.072 9.19547 5.0766 9.17246 5.0766 9.14921C5.0766 9.12596 5.072 9.10295 5.06306 9.08149C5.05412 9.06003 5.04102 9.04055 5.02451 9.02418L4.90125 8.90091L5.67254 8.12962C6.5555 8.8172 7.66717 9.14271 8.78155 9.03996C9.89592 8.93721 10.9293 8.41391 11.6717 7.57647C12.414 6.73903 12.8096 5.65032 12.7779 4.53167C12.7463 3.41302 12.2898 2.34841 11.5012 1.5543V1.54374ZM10.5045 6.77019C10.0147 7.25999 9.37009 7.56474 8.68067 7.63249C7.99126 7.70024 7.29968 7.5268 6.72383 7.14172C6.14799 6.75664 5.72351 6.18377 5.52277 5.52075C5.32202 4.85774 5.35743 4.14563 5.62296 3.50581C5.88849 2.86598 6.3677 2.33804 6.97891 2.01199C7.59011 1.68594 8.29548 1.58195 8.97478 1.71775C9.65407 1.85356 10.2652 2.22076 10.7041 2.75674C11.143 3.29273 11.3824 3.96433 11.3815 4.65706C11.3814 5.04964 11.3039 5.43834 11.1534 5.80093C11.0029 6.16352 10.7824 6.49288 10.5045 6.77019Z" fill="white"/>
</svg>
