<svg width="23" height="25" viewBox="0 0 23 25" fill="none" xmlns="http://www.w3.org/2000/svg">
<path d="M22.3337 14.8957C23.999 7.29503 17.4433 0.390188 9.74446 1.71568C5.56498 -0.918765 0 2.05825 0 7.10915C0 8.2838 0.319066 9.38352 0.87384 10.3314C-0.673585 17.9496 5.93578 24.7552 13.6279 23.3392C14.5247 23.8209 15.548 24.0954 16.6355 24.0954C21.3774 24.0954 24.4139 19.0999 22.3337 14.8957ZM11.5899 20.0848C9.34587 20.0848 7.1536 19.535 5.85626 17.6528C3.9227 14.8753 6.47235 13.4856 7.72371 14.5444C8.7681 15.4388 8.44041 17.6022 11.5075 17.6022C12.8594 17.6022 14.5285 17.0163 14.5285 15.6548C14.5285 12.9153 8.54485 14.2116 6.16574 11.2248C5.2919 10.1309 5.1271 8.20108 6.20024 6.80162C8.07056 4.35695 13.5589 4.20805 15.9188 6.05421C18.0977 7.76704 17.5094 10.0404 15.7511 10.0404C13.6365 10.0404 14.748 7.22983 11.334 7.22983C8.85912 7.22983 7.88564 9.0176 9.62852 9.88764C11.9482 11.0574 18.0124 10.6925 18.0124 15.3405C18.0047 18.6075 14.9013 20.0848 11.5899 20.0848Z" fill="#E30613"/>
</svg>
