<svg width="23" height="24" viewBox="0 0 23 24" fill="none" xmlns="http://www.w3.org/2000/svg">
<path d="M19.6654 3.68502C17.4804 1.53988 14.6054 0.328125 11.5436 0.328125C2.75578 0.328125 -2.76223 9.9978 1.62592 17.6897L0.000610352 23.6872L6.07158 22.0793C8.71654 23.5305 10.8833 23.402 11.5493 23.4877C21.7392 23.4877 26.8116 10.9672 19.651 3.72297L19.6654 3.68502Z" fill="#ECEFF1"/>
<path d="M11.5645 21.4992L11.5587 21.4982H11.5434C8.494 21.4982 6.54573 20.0314 6.35407 19.9468L2.76037 20.8957L3.72348 17.3481L3.49444 16.9831C2.5457 15.4492 2.04163 13.6827 2.04163 11.8636C2.04163 3.3054 12.3388 -0.974165 18.2976 5.07485C24.2421 11.0606 20.0686 21.4992 11.5645 21.4992Z" fill="black"/>
<path d="M16.7792 14.2539L16.7705 14.3269C16.4821 14.1809 15.0772 13.4831 14.8156 13.3867C14.2281 13.1658 14.3939 13.3517 13.2659 14.6637C13.0982 14.8535 12.9315 14.8681 12.6469 14.7367C12.3594 14.5907 11.4365 14.2841 10.344 13.2913C9.49302 12.5176 8.92186 11.5686 8.75319 11.2766C8.4724 10.7841 9.05986 10.714 9.5946 9.68624C9.69043 9.48185 9.64156 9.32126 9.57064 9.17624C9.49877 9.03024 8.92665 7.5995 8.68707 7.02915C8.45707 6.46075 8.22036 6.53277 8.04307 6.53277C7.49108 6.48411 7.08762 6.49189 6.73208 6.86758C5.18535 8.59421 5.57539 10.3753 6.89883 12.2694C9.49973 15.7265 10.8855 16.363 13.4193 17.2468C14.1035 17.4677 14.7274 17.4366 15.2209 17.3646C15.771 17.276 16.9143 16.6628 17.1529 15.9766C17.3973 15.2905 17.3973 14.7211 17.3254 14.5897C17.2545 14.4583 17.0667 14.3853 16.7792 14.2539Z" fill="#FAFAFA"/>
</svg>
