<svg width="24" height="18" viewBox="0 0 24 18" fill="none" xmlns="http://www.w3.org/2000/svg">
<path d="M0.816469 15.141C1.29909 16.8528 2.77551 17.1661 2.874 17.2261C5.30384 17.888 18.9236 17.89 21.3898 17.2261C23.079 16.7376 23.3893 15.2395 23.4474 15.141C24.0905 11.7194 24.1329 7.25857 23.4178 3.37595L23.4474 3.569C22.9648 1.85718 21.4883 1.54397 21.3898 1.48389C18.9925 0.832844 5.33733 0.80822 2.874 1.48389C1.18484 1.9734 0.87458 3.47051 0.816469 3.569C0.127998 7.16501 0.093525 11.2909 0.816469 15.141ZM9.76561 12.9515V5.76836L15.9372 9.36536L9.76561 12.9515Z" fill="#E30613"/>
</svg>
