<svg id="Bold" enable-background="new 0 0 32 32" height="512" viewBox="0 0 32 32" width="512" xmlns="http://www.w3.org/2000/svg"><path d="m26 32h-20c-3.314 0-6-2.686-6-6v-20c0-3.314 2.686-6 6-6h20c3.314 0 6 2.686 6 6v20c0 3.314-2.686 6-6 6z" fill="#f5e6fe"/><path d="m23.786 14.193c-1.009-4.297-5.139-6.91-9.457-6.019-5.171 1.066-7.932 6.952-5.35 11.558.149.266.149.009-.98 4.258.431-.097 1.949-.52 3.815-1.007.103-.027.242-.02.333.029 1.756.935 3.606 1.219 5.553.798 4.322-.935 7.115-5.233 6.086-9.617zm-6.358-1.761c.568-.003 1.001.424 1.002.99.001.565-.432 1-.995.999-1.306-.001-1.327-1.982-.007-1.989zm-4.051.732c.538.008.991.462.998 1s-.463 1.011-1.005 1.014c-.54.002-1.009-.468-1.007-1.01.003-.545.475-1.013 1.014-1.004zm7.859 3.308c-2.574 3.6-6.644 4.007-9.936 1.835-.709-.468-.027-1.502.694-1.04 3.078 1.973 6.343 1.221 8.236-1.502.521-.749 1.528-.023 1.006.707z" fill="#be63f9"/></svg>