<svg width="541" height="213" viewBox="0 0 541 213" fill="none" xmlns="http://www.w3.org/2000/svg">
<mask id="mask0" mask-type="alpha" maskUnits="userSpaceOnUse" x="0" y="0" width="541" height="213">
<rect x="0.00195312" y="0.439819" width="540" height="211.958" fill="white"/>
</mask>
<g mask="url(#mask0)">
<path opacity="0.8" d="M489.962 129.855C762.264 129.855 1122.6 4.13406 1122.6 -132.378C1122.6 -252.638 823.08 -401.891 451.155 -405.401C445.035 -273.83 131.06 30.9165 -297.252 -18.8778C124.81 151.177 538.537 -36.4295 683.999 -222.605C841.963 -222.605 987.555 -168.001 987.555 -92.5943C987.555 -25.2485 839.619 34.4268 757.446 53.0184C725.541 24.1559 718.379 -1.19664 722.155 -51.771C722.155 -51.771 491.004 128.815 489.962 129.465" fill="#E30613"/>
</g>
</svg>
