<svg width="334" height="55" viewBox="0 0 334 55" fill="none" xmlns="http://www.w3.org/2000/svg">
<path d="M188.856 31.7266H190.429L191.027 35.0815H191.039L192.064 31.7266H193.26L191.723 36.5656H190.161L189.539 33.2107H189.527L188.49 36.5656H187.307L188.856 31.7266Z" fill="black"/>
<path d="M174.878 51.0326H173.694L174.012 50.0723H177.647L177.33 51.0326H176.158L174.926 54.9113H173.646L174.878 51.0326Z" fill="black"/>
<path d="M180.416 50.0723H181.684L181.111 51.9181H182.599L183.185 50.0723H184.441L182.928 54.9113H181.66L182.306 52.841H180.818L180.172 54.9113H178.903L180.416 50.0723Z" fill="black"/>
<path d="M187.651 50.0723H190.981L190.688 50.9952H188.614L188.285 51.9805H190.249L189.956 52.8909H188.004L187.651 54.0009H189.81L189.517 54.9113H186.102L187.651 50.0723Z" fill="black"/>
<path d="M201.409 51.2317C201.064 51.0218 200.664 50.9219 200.263 50.9449C199.767 50.9275 199.284 51.1076 198.915 51.4473C198.546 51.7869 198.321 52.2596 198.287 52.7658C198.201 53.6388 198.689 54.0129 199.507 54.0129C199.927 54.0186 200.344 53.9292 200.726 53.751L200.47 54.7862C200.074 54.9055 199.663 54.9684 199.25 54.9733C197.726 54.9733 196.957 54.0504 197.103 52.7283C197.187 51.9399 197.564 51.2147 198.157 50.7037C198.75 50.1926 199.513 49.935 200.287 49.9845C200.847 49.9605 201.405 50.0451 201.934 50.234L201.409 51.2317Z" fill="black"/>
<path d="M204.741 50.0723H206.022L204.814 53.951H206.778L206.486 54.9113H203.229L204.741 50.0723Z" fill="black"/>
<path d="M212.255 50.0723H213.84L214.084 54.9113H212.864V53.8637H210.937L210.266 54.9113H208.888L212.255 50.0723ZM212.779 51.07L211.559 52.9532H212.779V51.07Z" fill="black"/>
<path d="M218.391 50.0723H219.903C220.806 50.0723 221.892 50.0723 221.757 51.3194C221.66 52.1675 220.977 52.4668 220.245 52.5666C220.611 52.5666 220.684 53.1154 220.708 53.4272L220.879 54.9238H219.659L219.549 53.6766C219.549 53.0406 219.464 52.9907 218.891 52.9907H218.769L218.171 54.9113H216.951L218.391 50.0723ZM219.001 52.0802H219.476C220.025 52.0802 220.464 51.943 220.513 51.4816C220.562 51.0201 220.367 50.9827 219.989 50.9827H219.391L219.001 52.0802Z" fill="black"/>
<path d="M225.379 50.0723H226.66L225.135 54.9113H223.867L225.379 50.0723Z" fill="black"/>
<path d="M230.416 51.0326H229.245L229.55 50.0723H233.185L232.88 51.0326H231.697L230.465 54.9113H229.184L230.416 51.0326Z" fill="black"/>
<path d="M236.357 53.1154L235.589 50.0723H236.931L237.297 52.0179L238.822 50.0723H240.371L237.65 53.1154L237.089 54.9113H235.796L236.357 53.1154Z" fill="black"/>
<path d="M247.875 54.9854C246.338 54.9854 245.887 54.0126 245.996 53.0149C245.999 52.6066 246.083 52.2032 246.241 51.8285C246.4 51.4539 246.631 51.1156 246.92 50.834C247.209 50.5524 247.55 50.3332 247.924 50.1893C248.298 50.0455 248.696 49.98 249.095 49.9967C250.632 49.9967 251.083 50.9695 250.973 51.9673C250.969 52.375 250.884 52.7776 250.725 53.1515C250.566 53.5254 250.335 53.8629 250.047 54.1442C249.758 54.4254 249.417 54.6448 249.044 54.7892C248.671 54.9337 248.274 55.0004 247.875 54.9854ZM248.9 50.9446C247.936 50.9446 247.399 52.092 247.302 52.9151C247.302 53.5262 247.399 54.0251 248.058 54.0251C249.034 54.0251 249.571 52.8777 249.668 52.067C249.668 51.4559 249.558 50.9446 248.9 50.9446Z" fill="black"/>
<path d="M254.546 50.0723H257.706L257.437 50.9952H255.51L255.156 52.0553H257.01L256.73 52.9657H254.9L254.29 54.9113H253.009L254.546 50.0723Z" fill="black"/>
<path d="M265.804 54.9113H264.255L264.17 50.0723H265.426L265.341 53.7265H265.353L267.597 50.0723H268.951L265.804 54.9113Z" fill="black"/>
<path d="M271.77 50.0723H273.038L271.526 54.9113H270.257L271.77 50.0723Z" fill="black"/>
<path d="M279.018 51.1695C278.704 51.0083 278.356 50.931 278.005 50.945C277.505 50.945 277.091 51.0198 277.042 51.4064C276.969 52.0924 278.835 51.8305 278.676 53.3021C278.518 54.7738 277.274 54.9858 276.237 54.9858C275.747 54.977 275.262 54.8929 274.797 54.7364L275.212 53.7511C275.559 53.9454 275.951 54.0402 276.347 54.0255C276.737 54.0255 277.359 53.9507 277.42 53.4643C277.505 52.6786 275.627 52.9779 275.785 51.606C275.944 50.2341 277.005 49.9971 278.079 49.9971C278.56 49.9664 279.042 50.0386 279.494 50.2092L279.018 51.1695Z" fill="black"/>
<path d="M282.76 50.0723H284.041L282.528 54.9113H281.248L282.76 50.0723Z" fill="black"/>
<path d="M288.116 54.9854C286.579 54.9854 286.128 54.0126 286.238 53.0149C286.241 52.6066 286.324 52.2032 286.483 51.8285C286.641 51.4539 286.872 51.1156 287.161 50.834C287.45 50.5524 287.792 50.3332 288.165 50.1893C288.539 50.0455 288.937 49.98 289.336 49.9967C290.873 49.9967 291.325 50.9695 291.215 51.9673C291.21 52.375 291.126 52.7776 290.967 53.1515C290.807 53.5254 290.577 53.8629 290.288 54.1442C289.999 54.4254 289.658 54.6448 289.285 54.7892C288.912 54.9337 288.515 55.0004 288.116 54.9854ZM289.141 50.9446C288.177 50.9446 287.641 52.092 287.543 52.9151C287.543 53.5262 287.653 54.0251 288.299 54.0251C289.287 54.0251 289.812 52.8777 289.91 52.067C289.91 51.4559 289.8 50.9446 289.141 50.9446Z" fill="black"/>
<path d="M294.861 50.0723H296.435L297.033 53.4272H297.045L298.082 50.0723H299.277L297.74 54.9113H296.166L295.544 51.5564L294.508 54.9113H293.312L294.861 50.0723Z" fill="black"/>
<path d="M275.147 17.7453L276.806 13.218C266.188 14.252 255.899 17.5488 246.603 22.8961L233.721 13.006H214.082L235.734 29.3066C229.806 32.6288 223.56 35.3201 217.095 37.3385C213.896 38.3293 210.636 39.1001 207.336 39.6457L201.371 44.6345C202.591 44.5721 203.591 44.4848 204.457 44.3725C209.169 43.8232 213.823 42.8423 218.364 41.4417C225.734 39.1308 232.832 35.9938 239.528 32.0879L251.58 41.1798C254.727 43.4571 258.495 44.6656 262.351 44.6345H275.05L250.36 25.6649C258.087 21.4561 266.506 18.7377 275.196 17.6455L275.147 17.7453ZM211.435 12.9062H195.174C186.473 12.9237 177.949 15.4199 170.558 20.1149C158.36 27.7103 133.353 44.5846 133.353 44.5846H145.551C152.395 44.5846 160.067 39.7954 160.067 39.7954L193.857 17.1841L186.27 40.4564H173.815L168.411 44.7966H189.295C200.822 44.7966 204.043 35.5675 204.043 35.5675L211.435 12.9062ZM332.467 17.3711L333.687 12.9312H280.807L273.781 35.0686C273.781 35.0686 270.719 44.6594 286.736 44.6594H324.697L325.917 40.3442H288.309L291.42 30.5039H328.698L329.918 26.2012H292.786L295.677 17.3587L332.467 17.3711Z" fill="black"/>
<path d="M74.644 52.1666C100.151 52.1666 133.904 40.1064 133.904 27.011C133.904 15.4747 105.848 1.15705 71.0089 0.820312C70.4356 13.4418 41.0252 42.6756 0.904724 37.8989C40.4397 54.212 79.194 36.2152 92.8196 18.3556C107.616 18.3556 121.254 23.5938 121.254 30.8274C121.254 37.2878 107.397 43.0124 99.6995 44.7958C96.7109 42.0271 96.04 39.5951 96.3937 34.7435C96.3937 34.7435 74.7416 52.0668 74.644 52.1292" fill="#E30613"/>
</svg>
