<svg width="333" height="55" viewBox="0 0 333 55" fill="none" xmlns="http://www.w3.org/2000/svg">
<g clip-path="url(#clip0)">
<path d="M188.082 31.7617H189.656L190.254 35.1087H190.267L191.292 31.7617H192.488L190.95 36.5894H189.388L188.765 33.2424H188.753L187.715 36.5894H186.531L188.082 31.7617Z" fill="white"/>
<path d="M174.093 51.0225H172.909L173.226 50.0645H176.864L176.546 51.0225H175.374L174.141 54.8921H172.86L174.093 51.0225Z" fill="white"/>
<path d="M179.634 50.0645H180.904L180.33 51.9059H181.819L182.405 50.0645H183.663L182.149 54.8921H180.88L181.527 52.8267H180.037L179.39 54.8921H178.121L179.634 50.0645Z" fill="white"/>
<path d="M186.873 50.0645H190.206L189.913 50.9852H187.837L187.508 51.9681H189.473L189.18 52.8764H187.227L186.873 53.9838H189.034L188.741 54.8921H185.323L186.873 50.0645Z" fill="white"/>
<path d="M200.642 51.2209C200.296 51.0115 199.897 50.9119 199.495 50.9348C198.999 50.9175 198.515 51.0971 198.146 51.436C197.777 51.7748 197.552 52.2464 197.517 52.7514C197.432 53.6223 197.92 53.9956 198.738 53.9956C199.159 54.0012 199.576 53.912 199.959 53.7343L199.702 54.767C199.306 54.886 198.895 54.9488 198.482 54.9537C196.956 54.9537 196.187 54.0329 196.333 52.714C196.417 51.9275 196.794 51.204 197.388 50.6941C197.981 50.1843 198.745 49.9273 199.519 49.9767C200.079 49.9527 200.638 50.0372 201.167 50.2256L200.642 51.2209Z" fill="white"/>
<path d="M203.975 50.0645H205.256L204.048 53.934H206.013L205.72 54.8921H202.461L203.975 50.0645Z" fill="white"/>
<path d="M211.494 50.0645H213.081L213.325 54.8921H212.104V53.847H210.176L209.504 54.8921H208.125L211.494 50.0645ZM212.019 51.0599L210.798 52.9387H212.019V51.0599Z" fill="white"/>
<path d="M217.634 50.0645H219.148C220.051 50.0645 221.137 50.0645 221.003 51.3087C220.906 52.1548 220.222 52.4534 219.49 52.5529C219.856 52.5529 219.929 53.1004 219.953 53.4115L220.124 54.9046H218.904L218.794 53.6603C218.794 53.0258 218.708 52.976 218.135 52.976H218.013L217.414 54.8921H216.194L217.634 50.0645ZM218.244 52.0677H218.721C219.27 52.0677 219.709 51.9308 219.758 51.4705C219.807 51.0101 219.612 50.9728 219.233 50.9728H218.635L218.244 52.0677Z" fill="white"/>
<path d="M224.629 50.0645H225.91L224.384 54.8921H223.115L224.629 50.0645Z" fill="white"/>
<path d="M229.67 51.0225H228.498L228.803 50.0645H232.441L232.136 51.0225H230.952L229.719 54.8921H228.437L229.67 51.0225Z" fill="white"/>
<path d="M235.615 53.1004L234.846 50.0645H236.188L236.554 52.0055L238.08 50.0645H239.631L236.908 53.1004L236.347 54.8921H235.053L235.615 53.1004Z" fill="white"/>
<path d="M247.138 54.9658C245.6 54.9658 245.148 53.9953 245.258 53C245.261 52.5927 245.344 52.1902 245.503 51.8164C245.662 51.4426 245.892 51.1052 246.182 50.8242C246.471 50.5433 246.813 50.3246 247.187 50.1811C247.561 50.0375 247.959 49.9722 248.358 49.9889C249.896 49.9889 250.348 50.9594 250.238 51.9548C250.234 52.3616 250.149 52.7632 249.99 53.1362C249.831 53.5092 249.6 53.846 249.311 54.1266C249.022 54.4072 248.681 54.626 248.307 54.7701C247.934 54.9143 247.537 54.9808 247.138 54.9658ZM248.163 50.9345C247.199 50.9345 246.662 52.0792 246.564 52.9004C246.564 53.5101 246.662 54.0078 247.321 54.0078C248.297 54.0078 248.834 52.8631 248.932 52.0543C248.932 51.4446 248.822 50.9345 248.163 50.9345Z" fill="white"/>
<path d="M253.815 50.0645H256.976L256.708 50.9852H254.779L254.425 52.0428H256.281L256 52.9511H254.169L253.558 54.8921H252.277L253.815 50.0645Z" fill="white"/>
<path d="M265.082 54.8921H263.531L263.446 50.0645H264.703L264.618 53.7101H264.63L266.876 50.0645H268.231L265.082 54.8921Z" fill="white"/>
<path d="M271.051 50.0645H272.32L270.807 54.8921H269.537L271.051 50.0645Z" fill="white"/>
<path d="M278.302 51.1589C277.988 50.9981 277.639 50.921 277.288 50.9349C276.788 50.9349 276.373 51.0096 276.324 51.3953C276.251 52.0796 278.118 51.8183 277.96 53.2865C277.801 54.7547 276.556 54.9663 275.518 54.9663C275.029 54.9574 274.543 54.8735 274.078 54.7174L274.493 53.7345C274.84 53.9283 275.233 54.0229 275.628 54.0082C276.019 54.0082 276.641 53.9335 276.702 53.4483C276.788 52.6644 274.908 52.963 275.067 51.5944C275.225 50.2257 276.287 49.9893 277.362 49.9893C277.843 49.9587 278.325 50.0307 278.778 50.2008L278.302 51.1589Z" fill="white"/>
<path d="M282.049 50.0645H283.331L281.817 54.8921H280.536L282.049 50.0645Z" fill="white"/>
<path d="M287.408 54.9658C285.87 54.9658 285.418 53.9953 285.528 53C285.531 52.5927 285.614 52.1902 285.773 51.8164C285.932 51.4426 286.163 51.1052 286.452 50.8242C286.741 50.5433 287.083 50.3246 287.457 50.1811C287.831 50.0375 288.229 49.9722 288.629 49.9889C290.167 49.9889 290.618 50.9594 290.508 51.9548C290.504 52.3616 290.419 52.7632 290.26 53.1362C290.101 53.5092 289.87 53.846 289.581 54.1266C289.292 54.4072 288.951 54.626 288.578 54.7701C288.204 54.9143 287.807 54.9808 287.408 54.9658ZM288.433 50.9345C287.469 50.9345 286.932 52.0792 286.834 52.9004C286.834 53.5101 286.944 54.0078 287.591 54.0078C288.58 54.0078 289.105 52.8631 289.202 52.0543C289.202 51.4446 289.092 50.9345 288.433 50.9345Z" fill="white"/>
<path d="M294.158 50.0645H295.733L296.331 53.4115H296.343L297.381 50.0645H298.577L297.039 54.8921H295.464L294.842 51.5451L293.804 54.8921H292.608L294.158 50.0645Z" fill="white"/>
<path d="M274.432 17.814L276.092 13.2974C265.467 14.3289 255.171 17.6179 245.868 22.9527L232.978 13.0859H213.325L234.992 29.3481C229.06 32.6624 222.81 35.3474 216.34 37.361C213.139 38.3495 209.877 39.1185 206.575 39.6628L200.606 44.6398C201.826 44.5776 202.827 44.4905 203.694 44.3785C208.409 43.8304 213.066 42.8519 217.61 41.4545C224.985 39.1491 232.088 36.0195 238.788 32.1227L250.849 41.1932C253.998 43.4652 257.769 44.6708 261.627 44.6398H274.334L249.628 25.7149C257.36 21.5161 265.785 18.8041 274.481 17.7144L274.432 17.814ZM210.676 12.9863H194.405C185.697 13.0037 177.167 15.4941 169.771 20.178C157.565 27.7555 132.541 44.59 132.541 44.59H144.748C151.596 44.59 159.274 39.8121 159.274 39.8121L193.086 17.2541L185.494 40.4716H173.031L167.623 44.8015H188.521C200.056 44.8015 203.279 35.5941 203.279 35.5941L210.676 12.9863ZM331.792 17.4407L333.012 13.0112H280.096L273.065 35.0965C273.065 35.0965 270.001 44.6647 286.029 44.6647H324.016L325.237 40.3596H287.603L290.716 30.5425H328.02L329.24 26.2499H292.083L294.976 17.4283L331.792 17.4407Z" fill="white"/>
<path d="M73.7898 52.155C99.3141 52.155 133.09 40.1232 133.09 27.0587C133.09 15.5495 105.015 1.26563 70.1522 0.929688C69.5785 13.5214 40.148 42.6864 0 37.9209C39.5621 54.1956 78.3429 36.2412 91.9778 18.4237C106.785 18.4237 120.432 23.6495 120.432 30.8661C120.432 37.3113 106.565 43.0223 98.8624 44.8016C95.8718 42.0394 95.2004 39.6131 95.5544 34.773C95.5544 34.773 73.8874 52.0555 73.7898 52.1177" fill="#E30613"/>
</g>
<defs>
<clipPath id="clip0">
<rect width="333" height="54" fill="white" transform="translate(0 0.966797)"/>
</clipPath>
</defs>
</svg>
