<svg width="26" height="26" viewBox="0 0 26 26" fill="none" xmlns="http://www.w3.org/2000/svg">
<path d="M12.062 4.20603C12.062 4.37924 12.1308 4.54535 12.2533 4.66782C12.3758 4.7903 12.5419 4.8591 12.7151 4.8591C12.8883 4.8591 13.0544 4.7903 13.1769 4.66782C13.2993 4.54535 13.3681 4.37924 13.3681 4.20603V1.44017C13.3681 1.26697 13.2993 1.10086 13.1769 0.978387C13.0544 0.855914 12.8883 0.787109 12.7151 0.787109C12.5419 0.787109 12.3758 0.855914 12.2533 0.978387C12.1308 1.10086 12.062 1.26697 12.062 1.44017V4.20603Z" fill="#E6C705"/>
<path d="M12.062 22.0339V24.7998C12.062 24.973 12.1308 25.1391 12.2533 25.2616C12.3758 25.384 12.5419 25.4529 12.7151 25.4529C12.8883 25.4529 13.0544 25.384 13.1769 25.2616C13.2993 25.1391 13.3681 24.973 13.3681 24.7998V22.0339C13.3681 21.8607 13.2993 21.6946 13.1769 21.5721C13.0544 21.4497 12.8883 21.3809 12.7151 21.3809C12.5419 21.3809 12.3758 21.4497 12.2533 21.5721C12.1308 21.6946 12.062 21.8607 12.062 22.0339Z" fill="#E6C705"/>
<path d="M8.2585 6.05345C8.37304 6.05371 8.48558 6.02335 8.58445 5.96551C8.65848 5.92236 8.72327 5.86505 8.77513 5.79684C8.82698 5.72863 8.86488 5.65087 8.88666 5.568C8.90844 5.48513 8.91367 5.39878 8.90205 5.31389C8.89043 5.229 8.86219 5.14723 8.81894 5.07326L7.43542 2.6779C7.3942 2.60056 7.33783 2.53231 7.26967 2.47722C7.20151 2.42212 7.12296 2.38131 7.0387 2.35721C6.95443 2.33311 6.86618 2.32621 6.7792 2.33694C6.69222 2.34767 6.60828 2.37579 6.5324 2.41964C6.45651 2.46348 6.39023 2.52216 6.3375 2.59216C6.28476 2.66216 6.24666 2.74206 6.22546 2.8271C6.20426 2.91213 6.20038 3.00057 6.21407 3.08714C6.22777 3.1737 6.25875 3.25662 6.30516 3.33096L7.68751 5.72632C7.7453 5.82643 7.82858 5.90944 7.92888 5.9669C8.02918 6.02436 8.14291 6.05422 8.2585 6.05345Z" fill="#E6C705"/>
<path d="M16.8459 20.2749C16.6966 20.3623 16.5881 20.5053 16.5442 20.6726C16.5002 20.8399 16.5244 21.0177 16.6114 21.1672L17.9938 23.5626C18.0512 23.662 18.1337 23.7445 18.2331 23.8019C18.3325 23.8594 18.4453 23.8896 18.5601 23.8897C18.6746 23.8899 18.7871 23.8596 18.886 23.8017C18.96 23.7586 19.0248 23.7013 19.0767 23.6331C19.1285 23.5649 19.1664 23.4871 19.1882 23.4042C19.21 23.3214 19.2152 23.235 19.2036 23.1501C19.192 23.0652 19.1637 22.9835 19.1205 22.9095L17.737 20.5141C17.6942 20.4399 17.6373 20.3748 17.5693 20.3225C17.5014 20.2703 17.4238 20.232 17.341 20.2098C17.2583 20.1876 17.1719 20.1819 17.087 20.1931C17.002 20.2043 16.9201 20.2321 16.8459 20.2749Z" fill="#E6C705"/>
<path d="M2.03383 6.95318C1.94711 7.10271 1.92311 7.28049 1.96705 7.44767C2.01098 7.61485 2.11929 7.75785 2.26832 7.84543L4.66485 9.22895C4.81489 9.31555 4.99319 9.339 5.16052 9.29414C5.32785 9.24928 5.47051 9.1398 5.55711 8.98976C5.64371 8.83972 5.66716 8.66143 5.6223 8.4941C5.57745 8.32677 5.46796 8.18411 5.31792 8.09751L2.92139 6.71399C2.77172 6.62915 2.59465 6.60667 2.42853 6.65144C2.26241 6.69621 2.1206 6.80461 2.03383 6.95318Z" fill="#E6C705"/>
<path d="M23.157 18.3948L20.7605 17.0113C20.6862 16.9684 20.6042 16.9406 20.5191 16.9294C20.4341 16.9182 20.3477 16.9239 20.2648 16.9461C20.182 16.9683 20.1043 17.0066 20.0363 17.0588C19.9682 17.1111 19.9111 17.1762 19.8682 17.2505C19.8254 17.3248 19.7975 17.4068 19.7863 17.4918C19.7752 17.5769 19.7808 17.6633 19.803 17.7461C19.8252 17.829 19.8636 17.9067 19.9158 17.9747C19.968 18.0428 20.0331 18.0999 20.1074 18.1427L22.5039 19.5262C22.6028 19.5841 22.7154 19.6144 22.8299 19.6142C22.9735 19.6136 23.1128 19.5659 23.2266 19.4783C23.3403 19.3907 23.4221 19.2681 23.4593 19.1295C23.4965 18.9908 23.487 18.8438 23.4324 18.711C23.3778 18.5783 23.281 18.4671 23.157 18.3948Z" fill="#E6C705"/>
<path d="M4.455 13.1199C4.455 12.9467 4.3862 12.7805 4.26372 12.6581C4.14125 12.5356 3.97514 12.4668 3.80193 12.4668H1.0349C0.861699 12.4668 0.695588 12.5356 0.573114 12.6581C0.45064 12.7805 0.381836 12.9467 0.381836 13.1199C0.381836 13.2931 0.45064 13.4592 0.573114 13.5816C0.695588 13.7041 0.861699 13.7729 1.0349 13.7729H3.80193C3.97504 13.7726 4.14097 13.7037 4.26338 13.5813C4.38579 13.4589 4.45469 13.293 4.455 13.1199Z" fill="#E6C705"/>
<path d="M24.3952 12.4668H21.6282C21.455 12.4668 21.2888 12.5356 21.1664 12.6581C21.0439 12.7805 20.9751 12.9467 20.9751 13.1199C20.9751 13.2931 21.0439 13.4592 21.1664 13.5816C21.2888 13.7041 21.455 13.7729 21.6282 13.7729H24.3952C24.5684 13.7729 24.7345 13.7041 24.857 13.5816C24.9795 13.4592 25.0483 13.2931 25.0483 13.1199C25.0483 12.9467 24.9795 12.7805 24.857 12.6581C24.7345 12.5356 24.5684 12.4668 24.3952 12.4668Z" fill="#E6C705"/>
<path d="M4.66942 17.0113L2.27288 18.3948C2.14788 18.4666 2.05015 18.5777 1.99492 18.7109C1.93968 18.844 1.93005 18.9917 1.96752 19.1309C2.005 19.2701 2.08747 19.393 2.20209 19.4804C2.31671 19.5678 2.45703 19.6149 2.60118 19.6142C2.71572 19.6144 2.82826 19.5841 2.92713 19.5262L5.32365 18.1427C5.39794 18.0999 5.46306 18.0428 5.51529 17.9747C5.56751 17.9067 5.60583 17.829 5.62804 17.7461C5.65025 17.6633 5.65592 17.5769 5.64473 17.4918C5.63355 17.4068 5.60572 17.3248 5.56284 17.2505C5.51996 17.1762 5.46286 17.1111 5.39482 17.0588C5.32677 17.0066 5.2491 16.9683 5.16625 16.9461C5.0834 16.9239 4.99698 16.9182 4.91193 16.9294C4.82689 16.9406 4.74488 16.9684 4.67059 17.0113H4.66942Z" fill="#E6C705"/>
<path d="M22.5039 6.71248L20.1074 8.09599C20.0331 8.13887 19.968 8.19597 19.9158 8.26401C19.8636 8.33206 19.8252 8.40973 19.803 8.49258C19.7808 8.57543 19.7752 8.66185 19.7863 8.7469C19.7975 8.83194 19.8254 8.91395 19.8682 8.98824C19.9111 9.06253 19.9682 9.12765 20.0363 9.17988C20.1043 9.2321 20.182 9.27041 20.2648 9.29262C20.3477 9.31483 20.4341 9.32051 20.5191 9.30933C20.6042 9.29814 20.6862 9.27031 20.7605 9.22743L23.157 7.84391C23.3071 7.75731 23.4165 7.61465 23.4614 7.44732C23.5063 7.27999 23.4828 7.1017 23.3962 6.95166C23.3096 6.80162 23.1669 6.69213 22.9996 6.64728C22.8323 6.60242 22.654 6.62588 22.5039 6.71248Z" fill="#E6C705"/>
<path d="M7.69218 20.5142L6.30984 22.9095C6.26659 22.9835 6.23835 23.0653 6.22673 23.1501C6.21511 23.235 6.22033 23.3214 6.24211 23.4043C6.26389 23.4871 6.3018 23.5649 6.35366 23.6331C6.40551 23.7013 6.47031 23.7586 6.54433 23.8018C6.6432 23.8596 6.75573 23.89 6.87028 23.8897C6.98492 23.8897 7.09754 23.8594 7.19676 23.802C7.29598 23.7446 7.37829 23.662 7.43541 23.5626L8.81893 21.1672C8.86181 21.0929 8.88964 21.0109 8.90083 20.9259C8.91201 20.8408 8.90633 20.7544 8.88412 20.6716C8.86191 20.5887 8.8236 20.511 8.77138 20.443C8.71915 20.3749 8.65403 20.3179 8.57974 20.275C8.50545 20.2321 8.42344 20.2043 8.3384 20.1931C8.25335 20.1819 8.16693 20.1876 8.08408 20.2098C8.00123 20.232 7.92356 20.2703 7.85551 20.3225C7.78747 20.3748 7.73037 20.4399 7.68749 20.5142H7.69218Z" fill="#E6C705"/>
<path d="M16.8457 5.96584C16.9446 6.02368 17.0571 6.05404 17.1716 6.05377C17.2863 6.05375 17.3989 6.0235 17.4981 5.96607C17.5973 5.90864 17.6797 5.82605 17.7368 5.72665L19.1203 3.33129C19.2069 3.18125 19.2303 3.00296 19.1855 2.83563C19.1406 2.6683 19.0311 2.52564 18.8811 2.43904C18.7311 2.35244 18.5528 2.32898 18.3854 2.37384C18.2181 2.4187 18.0755 2.52818 17.9889 2.67822L16.6065 5.07359C16.5635 5.14783 16.5355 5.22985 16.5242 5.31493C16.5129 5.40001 16.5186 5.48648 16.5408 5.56938C16.563 5.65228 16.6014 5.72998 16.6537 5.79802C16.706 5.86605 16.7713 5.92308 16.8457 5.96584Z" fill="#E6C705"/>
<path d="M13.8725 19.1449C17.2011 18.507 19.3823 15.2914 18.7443 11.9628C18.1064 8.63414 14.8908 6.45295 11.5622 7.09093C8.23354 7.72891 6.05234 10.9445 6.69032 14.2731C7.3283 17.6017 10.5439 19.7829 13.8725 19.1449Z" fill="#E6C705"/>
</svg>
