<svg width="17" height="21" viewBox="0 0 17 21" fill="none" xmlns="http://www.w3.org/2000/svg">
<path d="M5.64315 12.0485C4.68297 9.72368 4.51098 7.14828 5.15348 4.71641C5.58803 3.06675 6.37739 1.53181 7.46646 0.21875C7.15964 0.312917 6.85634 0.421211 6.55657 0.543628C4.02788 1.57899 2.01406 3.57645 0.958115 6.09661C-0.0978293 8.61678 -0.109395 11.4532 0.925962 13.9819C1.96132 16.5106 3.95879 18.5244 6.47895 19.5803C8.99911 20.6363 11.8355 20.6478 14.3642 19.6125C14.6632 19.4901 14.9551 19.3543 15.24 19.2052C13.543 19.0339 11.904 18.4939 10.4374 17.6232C8.27298 16.3389 6.58897 14.3808 5.64315 12.0485Z" fill="#E7C229"/>
<path d="M10.9447 11.1045L10.4869 12.8136L12.1218 12.1379L13.605 13.102L13.4672 11.3375L14.8421 10.224L13.1224 9.80966L12.4879 8.1582L11.5627 9.66606L9.7959 9.75905L10.9447 11.1045Z" fill="white"/>
<path d="M15.7674 4.2302L15.0906 3.32031L14.7798 4.41147L13.7063 4.77402L14.6468 5.40611L14.6597 6.53965L15.552 5.83928L16.6337 6.17828L16.2441 5.11302L16.8997 4.18901L15.7674 4.2302Z" fill="white"/>
</svg>
