<svg width="92" height="63" viewBox="0 0 92 63" fill="none" xmlns="http://www.w3.org/2000/svg">
<path d="M36.7466 32.0298C36.0499 31.3608 34.9173 31.3608 34.2206 32.0298C33.5222 32.697 33.5222 33.7816 34.2206 34.4488C34.9173 35.1177 36.0499 35.1177 36.7466 34.4488C37.4451 33.7816 37.4451 32.697 36.7466 32.0298Z" fill="#E30613"/>
<path d="M46.203 34.9504C43.2479 34.9504 40.8438 37.2527 40.8438 40.0825C40.8438 42.9124 43.2479 45.2146 46.203 45.2146C49.158 45.2146 51.5622 42.9124 51.5622 40.0825C51.5622 37.2527 49.158 34.9504 46.203 34.9504ZM46.203 41.7932C45.2179 41.7932 44.4166 41.0258 44.4166 40.0825C44.4166 39.1393 45.2179 38.3718 46.203 38.3718C47.188 38.3718 47.9894 39.1393 47.9894 40.0825C47.9894 41.0258 47.188 41.7932 46.203 41.7932Z" fill="#E30613"/>
<path d="M46.2034 26.397C44.2065 26.397 42.2756 26.7834 40.4647 27.5457C39.5615 27.926 39.1512 28.9354 39.5481 29.8003C39.945 30.6653 40.9992 31.058 41.9024 30.6781C43.2574 30.1077 44.7046 29.8184 46.2034 29.8184C52.1135 29.8184 56.9218 34.423 56.9218 40.0828C56.9218 45.7426 52.1135 50.3472 46.2034 50.3472C40.2932 50.3472 35.4849 45.7426 35.4849 40.0828C35.4849 40.0243 35.4847 39.9672 35.4862 39.9087C35.509 38.9642 34.728 38.1807 33.7417 38.1588C32.7539 38.1352 31.9373 38.8846 31.9144 39.8293C31.9123 39.9145 31.9121 39.9976 31.9121 40.0828C31.9121 47.6292 38.3232 53.7687 46.2034 53.7687C54.0836 53.7687 60.4946 47.6292 60.4946 40.0828C60.4946 32.5365 54.0836 26.397 46.2034 26.397Z" fill="#E30613"/>
<path d="M46.2019 0.736328C45.2153 0.736328 44.4155 1.50222 44.4155 2.44706V12.7115C44.4155 13.6563 45.2153 14.4222 46.2019 14.4222C47.1885 14.4222 47.9883 13.6563 47.9883 12.7115V2.44706C47.9883 1.50222 47.1885 0.736328 46.2019 0.736328Z" fill="#E30613"/>
<path d="M26.2458 13.419L18.6679 6.16216C17.9703 5.49412 16.8391 5.49412 16.1414 6.16216C15.4438 6.8302 15.4438 7.91342 16.1414 8.58163L23.7193 15.8385C24.4169 16.5065 25.5482 16.5067 26.2458 15.8385C26.9434 15.1705 26.9434 14.0872 26.2458 13.419Z" fill="#E30613"/>
<path d="M76.2653 6.16216C75.5677 5.49412 74.4366 5.49412 73.7388 6.16216L66.1609 13.419C65.4633 14.0871 65.4633 15.1703 66.1609 15.8385C66.8583 16.5065 67.9896 16.5067 68.6874 15.8385L76.2653 8.58163C76.9629 7.91359 76.9629 6.83037 76.2653 6.16216Z" fill="#E30613"/>
<path d="M91.4871 40.3747C80.139 28.0713 63.2889 17.8428 46.2027 17.8428C29.1141 17.8428 12.2642 28.0739 0.918182 40.3747C0.265072 41.0829 0.335099 42.1639 1.07449 42.7894C1.81406 43.4148 2.94307 43.3477 3.596 42.6397C3.97669 42.2269 4.36666 41.8156 4.76163 41.4069C13.5892 54.1798 29.5914 62.3215 46.2027 62.3215C62.8139 62.3215 78.8162 54.1798 87.6437 41.4069C88.0387 41.8158 88.4286 42.227 88.8093 42.6397C89.4603 43.3455 90.5891 43.4167 91.3308 42.7894C92.0702 42.1639 92.1402 41.0827 91.4871 40.3747ZM46.2027 58.9001C30.4975 58.9001 15.3924 51.0857 7.31458 38.8881C13.6792 32.9158 28.3852 21.2642 46.2027 21.2642C64.0203 21.2642 78.7261 32.9158 85.0907 38.8879C77.013 51.0857 61.9078 58.9001 46.2027 58.9001Z" fill="#E30613"/>
</svg>
