<svg width="109" height="142" viewBox="0 0 109 142" fill="none" xmlns="http://www.w3.org/2000/svg">
<path d="M99.2643 63.3518C98.8002 60.1991 96.0091 57.419 92.7892 57.6196C87.0262 54.2586 82.4195 49.189 78.9064 43.555C77.831 41.8346 76.8429 40.0613 75.9456 38.2417C75.6942 37.7303 74.7506 37.9518 74.8267 38.5449L75.66 45.0156C75.8519 46.5059 76.6025 49.1339 75.0879 50.1866C73.5733 51.2393 71.7214 50.1866 70.586 49.1041C69.2379 47.8243 68.0947 46.2976 67.1192 44.7213C65.9795 42.8923 65.0856 40.9213 64.4604 38.859C64.2465 38.148 63.0648 38.245 63.1177 39.0409C63.4021 43.3753 63.7471 47.7042 64.0613 52.0363C62.8939 51.5754 61.8497 50.8493 61.0111 49.9154C60.6099 49.4745 59.9805 49.7633 59.7986 50.2362L59.1438 51.9007C57.3073 48.8991 56.1036 45.5579 55.1137 42.187C53.8987 38.0453 53.014 33.8138 52.4681 29.5322C52.1881 27.3275 51.8915 25.1295 50.8796 23.1221C50.5831 22.5324 49.6373 22.6812 49.484 23.304C48.5287 27.1394 47.7174 31.0053 47.0501 34.9017C46.3975 38.7146 45.9698 42.5463 45.487 46.3825C45.2665 48.1043 45.002 49.9871 44.2336 51.5634C43.9095 52.2248 43.462 52.8554 42.6904 52.9788C41.749 53.1276 40.6819 52.8377 39.7494 52.7088C39.3084 52.6481 38.8675 52.5985 38.4376 52.5269C37.9823 52.4508 37.7674 52.3792 37.5745 51.9404C37.226 51.1034 36.9275 50.2465 36.6805 49.3742C36.1493 47.6354 35.769 45.8541 35.544 44.0499C35.0391 39.9454 35.3277 35.7821 36.3938 31.7865C36.6 31.0148 35.4194 30.693 35.2033 31.4558C34.8937 32.558 34.6409 33.6754 34.446 34.8036C34.3616 34.7724 34.2683 34.7753 34.186 34.8117C34.1037 34.8481 34.0388 34.9152 34.0051 34.9987C32.3681 38.4159 30.8568 41.8728 29.663 45.4708C28.4649 49.086 27.5129 52.778 26.8135 56.5217C26.1114 60.3036 25.6405 64.1247 25.4036 67.9639C25.1456 72.0426 24.9086 76.1543 24.8138 80.2428C24.7698 82.1168 25.5226 83.5421 26.722 84.931C27.8108 86.1777 29.0303 87.3037 30.3597 88.2898C34.3172 91.2562 39.0978 92.9213 44.0418 93.0552C44.8972 93.0806 45.8056 93.0662 46.5596 93.5215C47.2838 93.9558 47.8603 94.5963 48.5868 95.0328C50.0121 95.8915 51.6733 96.2377 53.3069 96.3876C55.0067 96.543 56.8234 96.6014 58.5177 96.3876C60.1392 96.1847 61.8247 95.444 62.5169 93.8588C62.6426 93.5711 62.6613 93.1809 62.8157 92.9163C62.992 92.6165 63.4693 92.6022 63.7879 92.5294C64.6977 92.3222 65.6009 92.0877 66.4975 91.8261C68.544 91.2272 70.5488 90.4937 72.4986 89.6303C72.5202 89.6325 72.542 89.6325 72.5636 89.6303C75.7603 88.9854 78.816 87.7321 81.476 85.8405C84.123 83.9699 86.3859 81.6081 88.1418 78.8836C88.4956 78.3325 88.8583 77.3404 89.6167 77.2996C90.0499 77.2764 90.4776 77.4098 90.9119 77.3845C91.3234 77.3571 91.7247 77.2444 92.0903 77.0538C92.819 76.6823 93.3866 76.0617 93.9169 75.4532C94.5441 74.7367 95.168 74.0202 95.7611 73.2717C97.9878 70.4618 99.8132 67.0743 99.2643 63.3518Z" fill="#FFEFD6"/>
<path d="M83.3913 109.304C83.3417 109.194 83.2943 109.092 83.2348 108.989C83.2105 108.947 83.1785 108.911 83.151 108.872C82.9275 108.506 82.6691 108.162 82.3794 107.845C81.9891 107.423 81.212 107.993 81.5658 108.472C81.5868 108.5 81.6044 108.53 81.6242 108.558C81.5956 108.581 81.5647 108.598 81.5361 108.625C81.2318 108.93 81.2715 109.323 81.2682 109.713C81.2682 109.796 81.2594 109.88 81.2528 109.964C81.191 109.915 81.1304 109.867 81.0676 109.822C80.738 109.571 80.3313 109.441 79.9167 109.455C79.1231 109.504 78.4099 110.104 78.0516 110.786C77.2678 112.276 77.797 114.269 78.5873 115.66C79.4394 117.158 81.3233 117.804 82.6549 116.494C83.6988 115.465 84.1222 113.814 84.1277 112.388C84.1337 111.316 83.8811 110.258 83.3913 109.304Z" fill="#FFEFD6"/>
<path d="M71.9638 125.714C71.7566 124.222 70.9353 122.861 69.5387 122.224C67.9171 121.486 66.1479 121.753 64.4767 122.154C62.5885 122.607 60.7222 123.14 58.8372 123.604L56.0516 124.29C55.668 124.385 55.2513 124.426 54.8776 124.55C54.7566 124.592 54.6408 124.648 54.5326 124.717C54.3629 124.497 54.1104 124.235 54.0344 124.145C53.7902 123.857 53.5209 123.591 53.2297 123.351C52.6607 122.877 52.0238 122.49 51.3403 122.205C50.2496 121.76 49.0649 121.596 47.8945 121.728C46.7241 121.859 45.6053 122.281 44.6403 122.957C44.4055 123.124 44.2126 123.368 43.9304 123.319C43.7551 123.288 43.5909 123.176 43.4101 123.142C43.1807 123.101 42.946 123.101 42.7167 123.142C41.8348 123.283 41.0169 123.882 40.3136 124.4C39.6356 124.885 39.0095 125.439 38.4452 126.053C37.8782 126.685 37.4052 127.395 37.0408 128.162C36.827 128.651 36.6855 129.169 36.6208 129.7C36.3221 129.938 36.2074 130.418 36.5238 130.72C36.5562 130.806 36.6143 130.879 36.6902 130.93C36.766 130.981 36.8558 131.007 36.9471 131.005C38.0494 131.712 38.9412 132.622 40.3037 132.871C41.6838 133.125 43.0849 132.89 44.4727 133.037C45.1341 133.108 45.7702 133.294 46.307 133.707C46.8438 134.119 47.0544 134.671 47.4391 135.195C47.7775 135.654 48.3099 135.844 48.8556 135.636C49.517 135.387 49.7452 134.727 49.9579 134.117C50.7871 131.737 52.4784 129.754 54.698 128.56C55.1911 128.293 55.7077 128.071 56.2412 127.898C56.5444 127.801 56.8541 127.733 57.1606 127.649C57.5828 127.539 57.8936 127.298 58.2816 127.12C58.9243 126.827 59.5725 127.241 60.246 127.105C60.9923 126.954 61.7022 126.505 62.4099 126.234C63.9862 125.629 65.4964 125.649 66.914 126.633C68.2908 127.589 69.0713 129.126 69.5971 130.673C69.8341 131.371 70.6928 131.304 70.953 130.673C71.6066 129.096 72.2063 127.454 71.9638 125.714Z" fill="#FFEFD6"/>
<path d="M74.1686 68.6406C73.9578 68.3423 73.6519 68.1247 73.301 68.0233C71.7247 67.5162 70.4791 69.1675 70.9784 70.6226C71.0273 70.759 71.092 70.8893 71.1713 71.0106C71.1857 71.0778 71.2 71.1451 71.2198 71.2123C71.2382 71.4217 71.2751 71.629 71.3301 71.8318C71.5186 72.5087 72.4765 73.0444 73.1136 72.5572C73.8235 72.006 74.3505 71.3567 74.5985 70.476C74.7848 69.819 74.6481 69.0815 74.1686 68.6406Z" fill="white"/>
<path d="M59.7025 68.7588C57.7183 67.0833 54.5359 67.2773 52.2662 68.2242C51.5508 68.5229 51.801 69.6572 52.5969 69.4257C54.9361 68.7544 57.3976 69.6947 59.664 68.9076C59.6787 68.9031 59.692 68.8948 59.7026 68.8837C59.7132 68.8726 59.7208 68.8589 59.7247 68.844C59.7286 68.8291 59.7286 68.8134 59.7247 68.7985C59.7208 68.7836 59.7132 68.77 59.7025 68.7588Z" fill="#FFBDAE"/>
<path d="M90.3571 57.6564C89.5656 56.6797 88.4357 56.1727 87.4161 55.4606C86.1269 54.5627 84.9435 53.5217 83.8886 52.3575C82.1877 50.4758 80.5155 48.1554 79.5575 45.7248C79.3466 43.9919 79.0894 42.2649 78.7859 40.5438C78.5202 39.0369 76.2748 39.6906 76.5052 41.1721C77.116 45.1938 77.46 49.2516 77.5348 53.3187C74.4978 52.8238 71.4267 52.6849 68.3523 53.0299C66.8973 53.1942 65.3849 53.3121 63.9628 53.4995C63.6993 53.5333 63.4404 53.5969 63.1912 53.6891L62.8936 53.3C62.4108 52.6717 61.2125 52.4258 60.6889 53.052C60.5717 52.9441 60.4331 52.8623 60.2822 52.8117C60.0298 52.5938 59.7449 52.4167 59.4378 52.2869C58.7014 51.8846 57.8945 52.1822 57.5197 52.8613C53.1975 44.9443 51.9011 35.6098 51.9331 26.6809C51.9331 25.2291 49.9213 25.3283 49.745 26.6809C49.1122 31.5168 48.5699 36.3549 48.2965 41.2317C48.1609 43.6568 48.0882 46.0907 48.1146 48.5214C48.1345 50.2851 48.3009 52.0786 48.2006 53.8478C44.5838 52.2671 40.4214 51.523 36.571 52.2958C36.3637 50.6897 35.8457 49.099 35.5789 47.5116C35.1762 45.0428 34.9895 42.5435 35.0211 40.0422C35.2835 39.3279 35.5436 38.6092 35.8203 37.907C36.1697 37.0163 34.6584 36.3704 34.2627 37.2456C34.0804 37.6527 33.9 38.0595 33.7214 38.4659C33.5425 38.5337 33.3858 38.6499 33.2691 38.8015C33.1523 38.9532 33.0799 39.1343 33.06 39.3246C33.0237 39.6156 32.9939 39.9078 32.9641 40.1988C31.6568 43.261 30.4619 46.3487 29.4554 49.5476C28.1646 53.6483 26.7679 58.1227 26.7735 62.4538C26.7735 63.3797 27.9926 63.4459 28.298 62.661C29.8545 58.6783 30.5545 54.291 31.7328 50.176C32.0911 48.9237 32.4692 47.6715 32.8572 46.428C32.898 46.9638 32.9476 47.5006 33.0171 48.0375C33.2552 49.8706 33.5032 51.7942 34.3498 53.4246C34.3053 53.6614 34.3531 53.9064 34.4835 54.1091C34.6139 54.3118 34.8169 54.457 35.0509 54.5148C35.1754 54.6735 35.3066 54.83 35.4499 54.9799C35.8622 55.4098 36.442 55.0957 36.5721 54.6151C40.7797 54.8642 44.6698 55.3525 48.6338 57.1207C49.6358 57.5682 50.5971 57.0303 50.7073 55.9313C51.1813 51.2298 50.5893 46.417 50.7966 41.688V41.6197C51.7082 46.9682 53.408 52.1161 56.6081 56.8484C57.2937 57.8625 58.7775 57.6884 59.1688 56.5177C59.2695 56.2237 59.3691 55.9254 59.4675 55.6226C59.9614 55.9279 60.4817 56.1418 61.1673 56.0514C61.2997 56.0336 61.4306 56.0056 61.5587 55.9676L61.8221 56.3149C62.3799 57.049 63.6388 57.307 64.137 56.3149C64.1921 56.2046 65.8578 56.1275 66.0793 56.0944C67.5642 55.8431 69.0237 55.616 70.5305 55.5432C73.2046 55.4216 75.8834 55.6341 78.5048 56.176C79.3228 56.3413 80.1782 55.8111 80.1671 54.9094C80.155 53.9173 80.1197 52.9362 80.0701 51.9507C80.5279 52.7208 81.0477 53.4523 81.6244 54.1378C83.0365 55.8177 85.2125 58.0687 87.5362 58.9968C87.7887 59.548 87.9584 60.1267 88.1646 60.7044C88.3453 61.2125 88.8811 62.1517 89.5601 61.6965C90.3064 61.2015 90.0473 60.2811 89.5601 59.4212C89.5788 59.4212 89.5976 59.4212 89.6152 59.4212C90.593 59.4036 90.8984 58.3178 90.3571 57.6564Z" fill="#FFBDAE"/>
<path d="M96.0366 68.4961C96.0473 68.3051 96.0358 68.1135 96.0025 67.9251C95.8867 67.3155 95.2187 67.0939 94.6885 67.1799C92.5764 67.5194 91.1379 69.5323 91.0188 71.5893C90.9924 72.0379 91.3859 72.6078 91.85 72.6817C92.452 72.7868 93.0703 72.7504 93.6558 72.5751C94.2413 72.3998 94.7779 72.0906 95.2231 71.6719C96.0488 70.9179 96.5658 69.5621 96.0366 68.4961Z" fill="#FFBDAE"/>
<path d="M84.7053 81.9504C75.0048 88.5468 63.1415 90.8727 51.5174 90.3645C45.8955 90.1187 40.063 89.0087 34.7939 87.0156C32.1207 86.0048 27.8712 84.3469 27.1404 81.3001C26.7733 79.7689 27.05 78.0934 27.0831 76.5325C27.1172 74.9076 27.0919 73.2927 27.2936 71.6822C27.3697 71.0737 26.3335 70.9326 26.2199 71.5367C25.6214 74.7257 24.346 78.2752 24.9181 81.5679C25.359 84.0945 27.5504 85.6984 29.6195 86.9429C34.7806 90.0449 41.5159 91.705 47.5391 92.1426C47.5675 92.3239 47.6376 92.4962 47.7437 92.6459C47.8498 92.7957 47.9892 92.9188 48.1508 93.0057C50.4481 94.3759 52.7465 95.3835 55.4736 95.2104C57.7885 95.0671 60.9368 94.5258 62.5627 92.7709C62.72 92.6119 62.8269 92.4102 62.8702 92.1908C62.9135 91.9715 62.8913 91.7442 62.8064 91.5374C64.612 91.2453 66.4154 90.8694 68.2254 90.3954C74.1659 88.8367 80.652 86.9539 85.0437 82.3936C85.2565 82.1687 84.9765 81.7663 84.7053 81.9504Z" fill="#FFBDAE"/>
<path d="M83.3091 115.357C83.2648 115.202 83.1613 115.07 83.0209 114.991C82.8805 114.911 82.7144 114.89 82.5584 114.932C81.8507 115.165 81.2511 115.319 80.5742 114.873C79.6604 114.274 79.3859 113.239 79.7144 112.228C79.9349 111.546 78.8866 111.096 78.5525 111.737C77.6707 113.43 78.0907 115.496 79.7376 116.543C80.4221 116.984 81.3602 117.251 82.1627 117.032C82.9211 116.823 83.5064 116.167 83.3091 115.357Z" fill="#FFBDAE"/>
<path d="M54.2437 125.509C53.7742 125.819 53.3205 126.153 52.8845 126.509C51.048 127.859 48.9768 129.293 46.9176 129.809C45.2641 130.223 42.6791 130.911 41.5911 129.118C40.3179 127.015 42.3859 124.866 43.9611 123.749C44.5939 123.302 44.0438 122.307 43.3449 122.695C42.7088 123.06 42.1258 123.51 41.6121 124.034C41.3354 123.682 40.7798 123.52 40.4193 123.918C38.7912 125.716 34.8162 128.444 37.0231 131.193C38.3569 132.855 41.8204 133.9 44.2158 133.539C44.86 133.528 45.4921 133.363 46.0589 133.056C46.1205 133.021 46.1782 132.979 46.2309 132.931C46.4094 133.466 46.6861 133.971 47.1303 134.279C47.2902 134.49 47.461 134.7 47.6506 134.908C48.0839 135.378 49.0462 135.311 49.3306 134.688C50.7383 131.616 52.7754 129.053 55.1223 126.641C55.6767 126.082 54.9327 125.009 54.2437 125.509Z" fill="#FFBDAE"/>
<path d="M66.3221 122.323C65.3749 122.28 64.4364 122.521 63.6269 123.015C63.5472 122.919 63.4391 122.851 63.3183 122.822C62.0727 122.589 61.0277 123.795 59.9088 124.262C59.8473 124.288 59.7883 124.32 59.7324 124.356C59.2903 124.273 58.8331 124.327 58.4228 124.511C58.2465 124.588 58.0028 124.646 57.8408 124.745L57.7846 124.763C56.9369 123.744 55.1191 125.134 55.9205 126.225C57.0229 127.723 59.243 127.251 60.4919 126.137C60.924 126.156 61.538 126.151 61.5094 125.854C61.6086 126.873 62.9501 127.101 63.3029 126.097C63.5356 125.452 63.9397 124.883 64.4717 124.451C65.0037 124.019 65.6435 123.74 66.3221 123.645C67.1412 123.537 67.1996 122.355 66.3221 122.323Z" fill="#FFBDAE"/>
<path d="M108.003 73.4282C107.444 65.1144 105.489 56.8932 103.603 48.7954C101.855 41.2941 99.6796 33.7651 95.7201 27.0982C91.9159 20.6815 86.7272 13.9375 80.7912 9.37491C80.6889 9.29391 80.5633 9.24792 80.4329 9.24374C80.3106 9.1335 80.1937 9.01225 80.0658 8.90201C77.4371 6.62518 74.4596 4.78546 71.2472 3.45318C64.3918 0.603652 56.4473 0.3898 49.3207 2.41699H49.2997C38.3139 1.64536 27.0028 7.27717 19.259 14.7488C9.83512 23.8419 6.48954 35.8893 4.34991 48.4339C3.55513 53.0945 2.79893 57.775 2.14525 62.4666C-0.764911 76.4904 -0.876247 92.665 11.6253 101.251C12.4124 101.791 13.3152 100.81 13.0176 100.054C13.0591 100.035 13.0986 100.012 13.1355 99.9856C14.1089 100.995 15.4008 101.774 16.7181 101.654C16.9695 101.637 17.2145 101.568 17.4374 101.45C17.6603 101.333 17.8561 101.17 18.0122 100.972C20.3448 101.581 22.7897 101.386 25.1774 101.32C25.2329 101.319 25.2882 101.311 25.3416 101.296C26.8573 102.411 28.5593 100.848 29.4137 99.4586C30.43 97.8051 31.1983 96.3611 33.1726 95.6997C35.1237 95.046 37.2931 95.2698 39.3005 95.4274C39.6929 95.4583 40.0313 95.132 40.1438 94.7848C40.5362 93.581 41.6253 93.0761 42.7122 92.6903C42.8105 92.6558 42.8987 92.5975 42.969 92.5206C42.9933 92.5095 43.0186 92.5007 43.0429 92.4886C43.3549 92.3365 43.346 91.9176 43.1454 91.6905C42.2205 90.6367 41.051 90.6058 39.7194 90.2575C37.9457 89.7923 36.1919 89.2841 34.4491 88.7021C31.1498 87.5997 27.5265 85.8305 26.0383 82.4662C25.8862 82.1245 25.5213 82.0815 25.2303 82.2138C25.0506 78.5529 25.4993 74.8766 25.9744 71.2488C26.5623 66.7704 27.3648 62.3244 28.3819 57.9106C29.9351 51.139 31.8421 44.3012 34.2143 37.717C34.1041 39.0177 34.0446 40.3075 33.9762 41.5167C33.7414 45.6846 33.866 49.8327 34.6123 53.9466C34.6982 54.4217 35.213 54.7304 35.6606 54.7447C39.2674 54.855 43.9126 54.2619 47.2031 55.9683C47.8579 56.3089 48.9547 55.9066 48.8478 55.0247C47.7003 45.5017 47.2814 35.8133 49.41 26.4302C49.8619 28.2976 50.0714 30.2288 50.3392 32.126C50.7611 35.139 51.3273 38.1282 52.0379 41.0934C52.717 43.9095 53.5279 46.6892 54.4708 49.4326C55.227 51.6372 55.8862 54.0624 57.4162 55.8548C58.1393 56.7058 59.4699 56.1678 59.7686 55.2342C59.9692 54.6091 60.1621 53.9819 60.3572 53.3602C61.0903 53.9819 61.841 54.5893 62.628 55.0379C63.8748 55.7478 65.2174 55.3598 66.5964 55.2C70.4932 54.7513 73.8718 54.9222 77.7112 55.7688C78.7739 56.0025 79.6073 55.1272 79.3989 54.0822C78.7552 50.8678 78.2371 47.6358 77.8954 44.3751C77.859 44.0312 77.8292 43.685 77.8016 43.3389C79.2225 45.5215 80.9444 47.5652 82.3741 49.5583C83.6594 51.3495 85.1299 53.8011 86.9157 55.7809C86.585 56.0532 86.4075 56.5217 86.671 56.9593C87.2464 57.9117 87.9233 58.7352 88.7776 59.3844C88.7754 59.608 88.8051 59.8307 88.8658 60.0458C89.0443 60.7072 89.7906 60.9597 90.3715 60.6587C92.5762 59.5134 94.5373 59.8254 96.3043 61.5935C97.6271 62.9163 98.4671 64.7837 98.7482 66.6179C98.8442 67.2475 98.8542 67.8872 98.7779 68.5195C98.6648 68.5228 98.5573 68.5696 98.4777 68.65C98.3981 68.7305 98.3525 68.8384 98.3502 68.9516C98.3657 70.5577 96.6868 72.4316 95.6793 73.5604C94.8444 74.5117 93.8377 75.2971 92.7118 75.8753C91.7032 76.3846 90.1919 76.3438 89.1943 76.9038C88.8569 76.7098 88.3774 76.7363 88.1493 77.143C85.8586 81.2216 82.9573 84.5474 79.4529 86.9372C77.5977 87.3914 76.0004 88.4805 74.2654 89.2588C73.0719 89.8141 71.8377 90.2773 70.5737 90.6444C69.3778 90.8818 68.1672 91.0379 66.9503 91.1118C66.787 91.097 66.6235 91.1382 66.4869 91.2288C66.3502 91.3194 66.2485 91.4539 66.1985 91.61C65.5272 91.7589 65.3486 92.7554 66.139 93.0265C67.8069 93.5977 69.2622 94.6617 70.3124 96.0778C70.6199 96.4867 71.0311 96.7017 71.5492 96.5816C76.4414 95.4473 81.0469 97.2793 85.7462 98.4114C88.739 99.1324 91.9655 99.2933 94.297 97.1382C97.1322 97.9518 99.9861 96.4008 102.268 94.5004C102.65 94.7407 103.15 94.7616 103.504 94.335C108.203 88.6889 108.473 80.4247 108.003 73.4282Z" fill="#B35E57"/>
<path d="M92.7536 80.7965C92.8184 79.8394 92.6678 78.88 92.3126 77.9889C92.2546 77.6758 92.1947 77.3642 92.1329 77.0541C92.0525 76.6517 91.6777 76.5239 91.3514 76.6054C91.1334 76.4143 90.8863 76.2591 90.6194 76.1457C90.2181 75.9774 89.7729 75.9447 89.3513 76.0526C88.9297 76.1604 88.5548 76.4029 88.2836 76.7432C87.7468 77.3936 87.7324 78.1112 87.9 78.831C87.8845 78.8465 87.8647 78.8553 87.8493 78.8729C84.0385 83.2205 79.4914 87.8955 73.9092 89.7772C72.2832 90.0362 70.6793 90.4254 69.0468 90.6723C68.8648 90.6944 68.6917 90.764 68.5451 90.8741C68.3984 90.9842 68.2833 91.1309 68.2112 91.2995C67.9621 91.1276 67.713 90.9578 67.4671 90.7969C66.9082 90.4298 66.216 91.2984 66.7429 91.7349C68.8373 93.4722 71.0883 96.5202 74.0514 96.2931C76.3817 96.1145 78.4938 95.9624 80.6202 96.1222C82.0532 96.9324 83.6218 97.7382 85.2665 97.3679C85.0835 97.863 85.063 98.4036 85.2081 98.9111C85.3844 99.61 86.3821 100.136 87.0192 99.6486C92.9906 95.0684 93.6486 87.7235 92.7536 80.7965Z" fill="#A84D4D"/>
<path d="M98.2696 78.9754C97.9907 78.0825 96.6745 78.4495 96.8719 79.3612C97.503 82.2727 97.6276 85.2712 97.2401 88.225C96.8796 90.8001 95.7508 92.9596 94.8149 95.3439C94.4148 96.368 95.8985 97.1076 96.6007 96.3834C101.012 91.8473 99.9628 84.3911 98.2696 78.9754Z" fill="#A84D4D"/>
<path d="M96.4895 56.0904C94.341 53.7568 91.1707 52.3987 88.7731 50.3065C86.3241 48.1882 84.1615 45.7599 82.3399 43.0829C80.3557 40.1474 78.7529 36.9572 77.2538 33.7549C76.448 32.0331 75.5925 30.3377 74.7316 28.6401C74.7316 28.6401 74.7316 28.6401 74.7316 28.6313C73.6293 26.9172 72.6163 25.1391 71.8523 23.2596C71.353 23.0722 70.6309 23.5242 70.8459 24.1415C71.3486 25.5844 71.838 27.0351 72.3175 28.4836C72.8224 33.2236 73.3229 37.9471 73.4717 42.7224C73.4915 43.3838 73.9016 45.8729 73.3493 46.4296C72.3473 47.4382 71.095 46.725 70.3631 45.9589C69.8173 45.3635 69.312 44.7323 68.8507 44.0695C67.049 41.5724 65.6205 38.8264 64.61 35.9177C64.1492 34.6048 62.0746 34.7459 62.0945 36.2583C62.1276 39.573 62.2819 42.9109 62.1959 46.2245C62.2165 46.7365 62.1873 47.2493 62.1088 47.7557L60.6383 47.9364C60.0871 47.7016 59.3331 46.2587 59.0102 45.7726C58.2414 44.605 57.5602 43.3821 56.9719 42.1139C54.2955 36.4104 52.9595 30.0026 51.2762 23.9607C50.9973 22.9587 49.6084 23.4018 49.7561 24.3807C50.445 28.9598 51.2795 33.8222 52.7522 38.4178C53.7079 44.3704 55.2744 50.1819 57.1009 55.9361C57.1817 56.1988 57.3446 56.4288 57.5658 56.5921C57.7869 56.7555 58.0546 56.8436 58.3295 56.8436C58.6044 56.8436 58.872 56.7555 59.0932 56.5921C59.3143 56.4288 59.4772 56.1988 59.558 55.9361C59.7785 55.2317 59.9604 54.3818 60.2437 53.6212C60.8698 54.0467 61.7869 54.7235 62.143 54.9594C62.6765 55.3088 63.5044 55.1071 63.8461 54.5736C64.2306 54.7389 64.6533 54.7946 65.0675 54.7345C65.2807 54.7083 65.4858 54.6369 65.6692 54.5251C65.8527 54.4134 66.0102 54.2638 66.1312 54.0864C66.3579 54.2534 66.575 54.433 66.7816 54.6243C67.4662 55.1942 68.2863 55.074 68.8055 54.363C69.3732 53.5859 71.8193 54.0941 72.5832 54.1316C74.1198 54.2076 75.6565 54.2859 77.1931 54.352C77.8468 54.3796 78.5413 53.738 78.4829 53.0634C78.2117 49.9339 78.0871 46.6456 77.3508 43.5833C77.1965 42.9429 76.61 42.7015 76.0776 42.7985C76.017 41.1218 75.8714 39.4375 75.7469 37.7773C76.9892 40.6434 78.4465 43.4147 80.3238 46.0007C82.3095 48.7577 84.6342 51.2539 87.2431 53.4305C88.3223 54.3245 89.4731 55.2747 90.6989 56.0893C90.463 55.9647 90.2293 55.8358 90 55.6958C88.8602 54.9958 87.8692 56.7408 88.9605 57.4738C89.9692 58.1518 91.0693 58.8407 92.2411 59.1902C93.2332 59.4845 93.9188 58.2355 93.3776 57.5367C94.1056 57.8334 94.8682 58.0368 95.6473 58.1418C96.7474 58.273 97.1156 56.7749 96.4895 56.0904Z" fill="#A84D4D"/>
<path d="M44.5849 24.6096C44.769 23.72 43.4539 23.3386 43.2125 24.2315C41.8556 29.2273 40.7874 33.9508 40.5217 39.156C40.3874 41.6383 40.3793 44.1258 40.4975 46.6089C40.6077 48.959 40.6562 51.4172 41.72 53.5536C42.0154 54.1455 43.0284 54.0176 43.1607 53.3651C43.5895 51.2706 43.2246 49.1652 43.1089 47.0454C42.9744 44.5629 42.9292 42.0794 43.0163 39.5936C43.1927 34.6717 43.5873 29.4356 44.5849 24.6096Z" fill="#A84D4D"/>
<path d="M42.3475 90.648C36.1193 90.8795 30.0135 88.9946 26.2976 83.7122C26.3064 83.3517 26.3119 82.9924 26.3218 82.633C26.3339 82.2251 25.893 82.0212 25.5645 82.1094C25.6035 81.312 25.6505 80.5154 25.7056 79.7195C26.1069 74.0403 26.7153 68.3501 27.5101 62.7127C28.9619 52.3982 31.3319 42.1818 35.8879 32.7811C33.9731 39.3951 33.4352 46.611 35.8416 52.9538C36.1447 53.7541 37.5568 53.7364 37.4653 52.7333C37.0596 48.2986 36.363 44.0811 36.7113 39.6023C37.0751 34.8877 38.1013 30.0253 40.0315 25.6964C40.3865 24.9005 39.2268 24.1972 38.8465 25.003C38.0224 26.7428 37.2934 28.5261 36.6628 30.3449C36.3696 29.904 35.6564 29.7486 35.2882 30.3449C31.4962 36.5004 29.0214 43.2356 27.3161 50.1935C25.6196 53.3484 24.4192 56.9178 23.3477 60.2589C22.0697 64.2712 21.099 68.3749 20.4442 72.5345C19.7729 76.7234 19.4521 80.9574 18.7146 85.1331C18.5184 86.2431 18.2957 87.3488 18.0257 88.4401C17.6531 89.9525 17.2981 90.8839 15.4572 90.5566C13.3529 90.1818 11.6729 88.816 10.7778 86.9067C10.3788 86.0546 9.05708 86.3291 8.83331 87.1603C8.64812 87.8503 8.53016 88.8281 8.23363 89.4752C7.84892 90.314 8.25899 90.2468 7.53366 89.656C6.44235 88.7741 5.65969 87.2694 4.95971 86.0734C4.40193 85.1221 3.8717 84.1178 3.38447 83.086C3.00968 81.9429 2.66244 80.7943 2.34607 79.6512C2.3163 79.5223 2.249 79.4051 2.15267 79.3145C2.05633 79.2238 1.93529 79.1638 1.80484 79.1419C1.6946 78.8068 1.59208 78.472 1.49728 78.1377C1.34516 77.603 0.505174 77.8312 0.66391 78.3681C0.774144 78.755 0.876671 79.1397 0.978086 79.5266C0.89533 79.6855 0.876024 79.8699 0.924073 80.0425C0.970371 80.2244 1.01446 80.4052 1.05966 80.5871C0.966746 80.651 0.893418 80.7395 0.84787 80.8426C0.802322 80.9458 0.786335 81.0596 0.801702 81.1713C1.26468 85.0923 1.96026 88.7774 3.92572 92.2597C4.61593 93.4814 5.40294 94.6459 6.2792 95.7419C7.06847 97.0416 8.01537 98.2078 9.11219 98.7866C9.93481 99.5522 10.8004 100.27 11.7049 100.937C12.3663 101.422 13.4521 100.924 13.6141 100.166L13.8258 99.1735C14.2824 99.5004 14.7612 99.795 15.2588 100.055C15.5322 100.189 15.8404 100.234 16.1407 100.184L16.5585 100.708C17.1835 101.488 18.2781 101.002 18.6463 100.267L18.7025 100.314L18.9626 100.515C19.4169 100.797 19.9345 100.962 20.4684 100.993C21.4032 101.063 23.4315 99.9925 24.0951 100.63C24.7587 101.267 26.2105 100.943 26.281 99.9539C26.3229 100.072 26.3593 100.194 26.4034 100.311C26.7716 101.277 28.0569 100.889 27.9235 99.8922C27.8904 99.6453 27.8518 99.3995 27.8133 99.1536C27.9539 99.1246 28.0848 99.0603 28.1937 98.9667C28.3026 98.8732 28.386 98.7536 28.4361 98.619C29.6376 95.8158 32.1146 94.1502 34.8561 94.0994C35.3751 94.2756 35.9251 94.3417 36.471 94.2935C36.5051 94.2886 36.5389 94.2819 36.5724 94.2736C37.1615 94.4045 37.7336 94.6024 38.2777 94.8634C38.5533 94.9968 38.916 95.0563 39.1882 94.8634C40.3821 94.0135 41.5737 93.1779 42.8403 92.4382C43.634 91.9631 43.3099 90.6161 42.3475 90.648Z" fill="#A84D4D"/>
<path d="M92.3922 23.449C89.1767 18.4246 85.9987 14.1133 81.1726 10.5076C76.4745 6.99889 71.5537 3.37332 65.7058 2.185C60.2129 1.06834 54.6152 1.71982 49.1411 2.60499C49.0391 2.62211 48.9459 2.67308 48.8765 2.74969C48.8071 2.82629 48.7655 2.92405 48.7585 3.02719C46.9254 3.0801 45.0238 2.6094 43.1874 2.66893C41.6085 2.7263 40.0391 2.94009 38.5024 3.30718C35.0543 4.1196 31.7782 5.64302 28.8394 7.60628C22.8284 11.6232 18.2791 17.3498 14.1784 23.2164C13.9899 23.4865 14.4286 23.7367 14.6193 23.4733C18.9405 17.4556 23.7521 11.4578 30.171 7.56659C33.2575 5.69263 36.6549 4.32022 40.2188 3.72386C42.2181 3.38649 44.2539 3.3216 46.2706 3.53095C47.3244 3.64119 48.2393 3.86827 49.1874 3.67977C49.2196 3.68251 49.2521 3.68251 49.2844 3.67977C54.5756 3.01837 60.0641 2.51901 65.3542 3.4593C70.9452 4.4514 75.8748 7.7584 80.3834 11.0654C85.2259 14.6204 88.8041 19.1124 91.8575 24.2438C94.8956 29.3553 97.744 34.4459 99.2002 40.2629C99.3104 40.7292 99.995 40.5274 99.9112 40.0667C98.8056 34.0138 95.6716 28.5726 92.3922 23.449Z" fill="#FDCFC6"/>
<path d="M69.0977 129.05C68.0604 127.492 66.5557 126.029 64.6884 125.568C63.6522 125.312 62.5278 125.348 61.5445 125.789C60.6472 126.188 59.9032 127.292 58.8835 127.322C58.8059 127.324 58.7296 127.341 58.6591 127.374C58.5887 127.406 58.5257 127.453 58.474 127.511C58.4223 127.569 58.3831 127.637 58.3587 127.71C58.3344 127.784 58.3254 127.862 58.3323 127.939C57.9801 127.654 57.5573 127.47 57.1088 127.406C55.6074 127.192 54.2317 128.167 53.0996 129.024C50.8795 130.704 48.9515 132.946 48.3904 135.738C48.3717 135.831 48.3769 135.927 48.4054 136.018C48.4338 136.108 48.4847 136.19 48.5533 136.255C48.6219 136.32 48.7059 136.367 48.7975 136.391C48.8891 136.416 48.9853 136.416 49.0772 136.393C50.8486 138.312 52.7909 140.235 55.388 140.919C57.5739 141.495 59.9495 140.93 61.323 139.132C62.4562 139.971 64.0788 139.904 65.309 139.233C66.9625 138.339 68.0373 136.435 68.9004 134.839C69.9179 132.946 70.3555 130.943 69.0977 129.05Z" fill="#FAF5F2"/>
<path d="M82.7545 103.36C82.7016 103.261 82.6443 103.166 82.5892 103.071C82.5756 103.041 82.5586 103.012 82.5385 102.985C82.4055 102.776 82.2999 102.551 82.2243 102.315C82.1191 101.913 82.0691 101.498 82.0755 101.083C82.0634 100.111 82.1978 99.1273 82.3202 98.1649C82.3217 98.132 82.319 98.0991 82.3125 98.0668C82.512 97.8144 82.2618 97.336 81.8991 97.4572C81.8671 97.4683 81.8407 97.487 81.8098 97.4991C81.7047 97.4452 81.5885 97.4162 81.4703 97.4142C80.885 97.3922 80.2688 97.1089 79.7066 96.9491C79.1003 96.776 78.494 96.6117 77.88 96.4651C76.7177 96.1809 75.535 95.9877 74.3426 95.8875C72.052 95.7067 69.8087 96.108 67.625 96.7837C63.9575 97.918 60.4598 99.8383 57.779 102.626C57.0565 103.375 56.4017 104.187 55.8223 105.051C55.539 105.474 54.903 106.935 54.1909 107.324C54.1713 107.277 54.1449 107.233 54.1126 107.193C53.7488 106.77 53.298 106.436 52.9155 106.027C52.5283 105.605 52.1636 105.164 51.8231 104.704C51.1066 103.755 50.3978 102.804 49.6184 101.908C48.0465 100.114 46.2585 98.4019 44.2401 97.1155C42.1611 95.7927 39.8143 95.2415 37.3781 95.0508C36.175 94.9496 34.9673 94.9128 33.7602 94.9406C32.7362 94.9726 31.6945 95.117 30.7839 95.6097C29.7533 96.1609 29.0919 97.1298 28.6664 98.1947C28.4497 98.7572 28.2747 99.3349 28.1428 99.9231C28.0325 100.376 27.7591 101.74 27.0151 101.287C26.9379 101.235 26.8463 101.21 26.7537 101.214C26.6611 101.219 26.5722 101.253 26.5003 101.311C26.2578 101.194 25.8962 101.383 25.9822 101.725C26.2394 102.759 26.5047 103.79 26.7781 104.819C27.0448 105.818 27.3788 106.803 27.6709 107.795C27.6599 107.811 27.6467 107.826 27.6368 107.842C27.3987 108.237 27.973 108.705 28.2872 108.344C28.5502 108.049 28.888 107.83 29.265 107.711C29.642 107.592 30.0441 107.577 30.429 107.667C31.3902 107.903 31.7849 108.865 32.0406 109.726C32.6359 111.735 32.3956 114.076 30.3099 115.078C30.2258 115.128 30.1604 115.204 30.1235 115.294C30.0867 115.385 30.0806 115.485 30.106 115.58C30.4521 116.924 30.5469 118.335 31.0077 119.658C31.4046 120.8 32.3305 121.141 33.4218 121.381C36.117 121.974 38.8233 122.58 41.5791 122.814C42.871 122.924 44.2544 122.991 45.5221 122.66C46.0733 122.518 46.5451 122.246 47.0533 122.015C47.7599 121.692 48.2372 121.771 48.9063 122.135C49.386 122.417 49.9131 122.609 50.4617 122.702C51.1065 122.795 51.6335 122.885 52.1538 123.297C52.867 123.864 53.4545 124.62 54.3717 124.871C55.0253 125.046 55.679 124.881 56.3074 124.688C57.068 124.454 57.8264 124.213 58.5859 123.976L62.454 122.763C63.2554 122.706 64.0667 122.534 64.8615 122.475C65.8216 122.401 66.7828 122.381 67.7463 122.382C69.7437 122.382 71.7444 122.536 73.6989 122.96C75.1528 123.274 77.2495 124.189 78.3287 122.611C78.8104 121.908 78.9394 120.914 79.1664 120.107C79.4516 119.091 79.7367 118.075 80.0219 117.06C80.1023 116.776 79.9601 116.545 79.7452 116.38C78.6682 115.553 78.0917 114.142 78.1435 112.803C78.1675 112.099 78.3937 111.417 78.7949 110.838C79.2568 110.177 80.2214 109.523 80.9798 110.152C81.0542 110.221 81.1469 110.267 81.2468 110.285C81.3468 110.303 81.4498 110.292 81.5436 110.253C81.6375 110.214 81.7181 110.149 81.7761 110.066C81.834 109.982 81.8668 109.884 81.8705 109.782C82.0557 107.935 82.2331 106.085 82.4944 104.247C82.7667 104.072 82.9243 103.673 82.7545 103.36Z" fill="#FAF5F2"/>
<path d="M82.003 103.349C81.6458 102.878 80.9657 102.66 80.4366 102.444C77.8681 101.4 75.0153 101.418 72.3146 101.822C69.5493 102.236 66.8332 102.929 64.208 103.891C63.0021 104.332 61.8171 104.87 60.739 105.577C60.2348 105.91 59.7532 106.275 59.2971 106.672C58.8661 107.045 58.3612 107.59 57.7649 107.677C57.1376 107.767 56.4421 107.26 55.8601 107.077C55.1935 106.871 54.5033 106.753 53.8064 106.723C52.4197 106.663 51.0219 107.029 49.7961 107.669C48.0225 106.82 46.1838 106.083 44.3848 105.297C42.4149 104.438 40.4439 103.568 38.4112 102.864C36.3785 102.16 34.2918 101.618 32.14 101.498C31.0455 101.435 29.9474 101.476 28.8606 101.621L28.7438 101.637L26.9679 101.375C26.8757 101.363 26.7819 101.376 26.6967 101.413C26.4399 101.24 26.0056 101.326 26.0552 101.712C26.3605 104.111 27.0109 106.485 27.572 108.836C27.7164 109.444 28.5641 109.378 28.7371 108.836C28.8771 108.408 29.0612 107.734 29.5165 107.524C30.1129 107.252 30.7291 107.939 31.0796 108.333C31.903 109.254 32.5777 110.459 32.5667 111.727C32.5567 112.897 32.0342 113.891 31.0234 114.476C29.7557 115.209 30.104 116.396 30.4722 117.578C30.6773 118.229 30.8635 118.891 31.0884 119.536C31.2846 120.097 31.5558 120.447 32.1423 120.622C33.5334 121.035 34.983 121.358 36.405 121.643C37.888 121.937 39.3754 122.21 40.8672 122.461C41.6131 122.585 42.3605 122.702 43.1094 122.812C43.7884 122.911 44.4884 123.059 45.1597 122.839C45.831 122.62 46.3822 122.138 47.0337 121.88C47.2233 121.807 47.4184 121.744 47.6157 121.689C49.5393 121.702 51.4673 122.57 52.9256 123.771C53.3335 124.102 53.6973 124.502 54.1922 124.702C54.7202 124.913 55.2835 124.852 55.8391 124.813C56.4751 124.761 57.109 124.689 57.7417 124.604C58.3568 124.523 59.0193 124.502 59.5551 124.163C59.6405 124.104 59.7075 124.023 59.7485 123.927C59.7894 123.832 59.8026 123.727 59.7866 123.624C60.0952 123.559 60.4039 123.493 60.7092 123.437C62.0199 123.192 63.3295 122.927 64.6456 122.713C65.9095 122.492 67.201 122.481 68.4685 122.68C69.7351 122.888 70.9818 123.168 72.2617 123.295C73.5139 123.418 74.7726 123.464 76.0305 123.431C77.0226 123.407 78.2859 123.549 78.6475 122.408C79.0333 121.196 79.2394 119.892 79.5293 118.653C79.6396 118.159 79.8148 117.619 79.7752 117.109C79.7355 116.6 79.4709 116.228 79.149 115.852C78.7529 115.409 78.4718 114.876 78.3303 114.3C78.1888 113.723 78.1914 113.12 78.3377 112.545C78.448 112.06 79.7189 109.017 80.4454 109.942C80.7055 110.273 81.3482 110.094 81.4154 109.686C81.6668 108.181 81.8641 106.665 82.0834 105.155C82.1771 104.559 82.3943 103.866 82.003 103.349Z" fill="#04BFF4"/>
<path d="M57.3948 108.289C57.3912 108.221 57.3723 108.155 57.3396 108.096C57.3068 108.036 57.2611 107.985 57.2058 107.946C57.1505 107.907 57.087 107.88 57.0201 107.869C56.9532 107.858 56.8846 107.861 56.8194 107.88C56.6994 107.736 56.5429 107.627 56.3663 107.565C55.5517 107.265 54.6136 107.267 53.7042 107.429C53.0203 107.346 52.327 107.381 51.655 107.533C51.3573 107.175 50.5526 107.362 50.6011 107.924C50.6011 107.942 50.6011 107.959 50.6011 107.975C50.5524 108.059 50.531 108.156 50.5401 108.252C50.5492 108.349 50.5883 108.44 50.6518 108.513C50.8635 110.728 51.0612 112.944 51.2449 115.16C51.4367 117.495 51.774 119.951 51.4378 122.287C51.3882 122.633 51.4797 122.897 51.7685 123.099C52.4773 123.594 53.1729 124.163 53.9236 124.592C54.7029 125.033 55.3268 124.657 56.1282 124.679C56.2357 124.681 56.3418 124.655 56.4358 124.603C56.6463 124.753 56.987 124.643 57.0972 124.371C57.3287 123.778 57.3342 123.159 57.3838 122.525C57.4367 121.832 57.494 121.138 57.526 120.444C57.5822 119.094 57.5965 117.743 57.6065 116.392C57.6329 113.686 57.5745 110.99 57.3948 108.289Z" fill="#FDE41B"/>
<path d="M50.1805 116.785C49.7396 115.433 48.3473 114.316 47.2307 113.559C45.8803 112.644 44.4021 111.892 42.9316 111.182C39.6951 109.613 35.9869 108.529 32.444 109.684C31.6801 109.933 31.9887 111.07 32.7747 110.889L32.8276 110.879C32.8893 111.559 32.81 112.228 32.7273 112.905C32.7204 112.956 32.7293 113.008 32.7527 113.053C32.7762 113.099 32.8131 113.137 32.8585 113.161C32.633 113.664 32.2447 114.077 31.7561 114.332C31.227 114.598 30.5998 114.79 30.2834 115.336C29.8855 116.02 30.2107 116.879 30.4179 117.576C30.674 118.424 30.9765 119.257 31.324 120.072C31.636 120.808 32.0207 121.395 32.8794 121.463C33.7381 121.532 34.6034 121.441 35.4578 121.478C36.4048 121.517 37.349 121.607 38.2863 121.748C40.3401 122.078 42.3582 122.601 44.3139 123.31C44.4104 123.338 44.5128 123.339 44.6099 123.313C44.7071 123.288 44.7953 123.236 44.8651 123.163C46.1713 121.73 48.4421 121.225 50.1982 122.12C50.3767 122.211 50.6666 122.185 50.7592 121.973C51.6808 119.861 51.2817 118.161 50.1805 116.785Z" fill="#04AFF4"/>
<path d="M79.6181 116.758C79.4825 116.328 79.1297 115.959 78.9126 115.565C78.6414 115.072 78.4252 114.55 78.2677 114.01C77.9341 112.929 77.8586 111.786 78.0472 110.671C78.0758 110.556 78.0592 110.435 78.0009 110.332C77.9426 110.23 77.8471 110.154 77.7342 110.12C75.7566 109.55 73.7195 109.058 71.6515 109.004C69.8073 108.955 68.0281 109.356 66.3405 110.086C64.6726 110.808 63.1437 111.81 61.6732 112.869C60.5554 113.673 59.2481 114.511 58.4368 115.668C58.32 115.7 58.2181 115.773 58.1482 115.872C58.0784 115.971 58.0448 116.091 58.0531 116.212C58.0531 116.243 58.0531 116.274 58.0531 116.304C58.0531 116.312 58.0432 116.32 58.0388 116.328C58.0051 116.397 57.9894 116.474 57.9933 116.551C57.9971 116.628 58.0204 116.703 58.0609 116.769C58.0939 118.928 58.019 121.132 57.6199 123.253C57.5317 123.723 58.0124 124.197 58.4742 123.914C59.7033 123.149 61.2301 123.274 62.6223 123.142C64.2207 122.99 65.7276 122.429 67.3072 122.178C68.985 121.911 70.7013 121.998 72.378 122.235C74.0171 122.467 75.7114 122.819 77.2591 123.414C77.3535 123.44 77.454 123.435 77.5448 123.398C77.6357 123.361 77.7116 123.295 77.7607 123.21C78.2317 122.164 78.6367 121.09 78.9732 119.993C79.1547 119.413 79.3182 118.829 79.4637 118.239C79.5784 117.769 79.7691 117.237 79.6181 116.758Z" fill="#04AFF4"/>
<path d="M43.8305 92.1376C43.7474 92.1164 43.66 92.1184 43.5779 92.1435C43.4959 92.1685 43.4223 92.2157 43.3653 92.2799C43.2777 92.2057 43.1691 92.1607 43.0546 92.1512C42.9402 92.1417 42.8257 92.1682 42.727 92.2269C41.8264 92.7472 41.0846 93.5993 40.5852 94.5033C40.4165 94.8086 40.6227 95.2749 41.0118 95.2473C41.1996 95.2313 41.3884 95.2313 41.5762 95.2473L41.6633 95.2572L41.7526 95.2716C41.8463 95.2881 41.9378 95.3091 42.0293 95.3333C42.3672 95.4124 42.6844 95.5627 42.9596 95.7742C43.2462 95.9947 43.6409 95.6949 43.6442 95.3818C43.6351 94.4711 43.8126 93.5681 44.1656 92.7285C44.2615 92.4959 44.062 92.1906 43.8305 92.1376Z" fill="white"/>
<path d="M63.3399 92.5493C63.3399 92.2627 62.9089 92.1194 62.7766 92.3972C62.199 93.6098 61.0658 94.3098 59.8565 94.7882C58.483 95.3327 56.9806 95.8453 55.5178 96.057C55.3546 96.0801 55.1871 96.0933 55.0305 96.1044C54.9551 96.0134 54.8479 95.9547 54.7307 95.9401C53.6534 95.7702 52.5988 95.4792 51.5868 95.0726C51.1053 94.7642 50.6436 94.4258 50.2045 94.0595C49.5883 93.5569 48.9919 93.0233 48.3305 92.5868C47.8025 92.2396 47.2062 91.9673 46.6131 92.3234C46.5633 92.3498 46.5199 92.3867 46.4857 92.4315C46.4516 92.4764 46.4276 92.5281 46.4155 92.5832C46.4033 92.6382 46.4033 92.6952 46.4153 92.7503C46.4273 92.8054 46.4512 92.8572 46.4852 92.9021C46.3767 93.889 46.3767 94.8849 46.4852 95.8718C46.6153 96.9002 46.9769 97.7821 47.4156 98.7103C48.2137 100.398 49.9322 101.939 51.6398 102.662C53.3473 103.385 55.2775 103.457 56.9629 102.656C57.8779 102.215 58.5293 101.517 59.1676 100.75C59.8885 99.8821 60.6888 99.1347 61.6875 98.5945C62.1285 98.3575 62.6388 98.1944 62.9464 97.7799C63.1801 97.4624 63.222 97.07 63.2594 96.6886C63.3939 95.3041 63.3223 93.9339 63.3399 92.5493Z" fill="white"/>
<path d="M70.1535 94.9595C70.0499 94.8768 69.9397 94.804 69.8339 94.7258C69.8196 94.6071 69.7808 94.4926 69.7201 94.3896C69.6594 94.2866 69.578 94.1972 69.4811 94.1272C69.145 93.8793 68.7481 93.727 68.3325 93.6863C68.0635 93.5088 67.7968 93.328 67.5267 93.1528C67.2754 92.9885 66.9755 92.7967 66.6977 92.9036C66.6757 92.7702 66.6547 92.638 66.6327 92.5046C66.6108 92.4269 66.5592 92.361 66.489 92.3212C66.4188 92.2814 66.3358 92.2708 66.2579 92.2918C66.1811 92.3152 66.1162 92.367 66.0764 92.4367C66.0367 92.5064 66.0251 92.5887 66.0441 92.6666C66.2193 93.8792 66.3494 95.0918 66.5247 96.3043C66.5555 96.516 66.8146 96.5579 66.9656 96.4862C67.4647 96.2584 67.9763 96.0589 68.4978 95.8887C69.017 95.7135 69.5219 95.4478 70.0543 95.3199C70.1998 95.2836 70.2814 95.062 70.1535 94.9595Z" fill="white"/>
<path d="M46.0313 91.896L45.3809 91.7153C45.3138 91.6777 45.2397 91.6541 45.1632 91.6458C45.0866 91.6376 45.0092 91.645 44.9356 91.6674C44.862 91.6898 44.7937 91.7269 44.7348 91.7765C44.6758 91.826 44.6275 91.8869 44.5928 91.9556C44.5401 91.954 44.4878 91.9633 44.4388 91.9828C44.3899 92.0022 44.3455 92.0315 44.3083 92.0688C44.2712 92.1061 44.242 92.1506 44.2227 92.1995C44.2034 92.2485 44.1942 92.3009 44.1959 92.3535C44.1878 93.0061 44.1585 93.6576 44.1077 94.3079C44.0835 94.6166 44.0614 94.9208 44.0504 95.2306C44.0427 95.44 44.0427 95.7311 43.8884 95.892C43.8455 95.9368 43.8131 95.9906 43.7938 96.0496C43.7744 96.1085 43.7684 96.171 43.7764 96.2325C43.7843 96.2941 43.8059 96.353 43.8396 96.4051C43.8733 96.4572 43.9182 96.5011 43.9711 96.5336C44.4307 96.8466 44.886 97.1685 45.3512 97.4727C45.6819 97.6932 46.1129 97.4011 46.1228 97.0318C46.1228 96.8863 46.1228 96.7408 46.1228 96.5909C46.1228 96.4718 46.1228 96.3517 46.1228 96.2315C46.1228 95.8898 46.1132 95.5481 46.0941 95.2063C46.089 94.9859 46.0842 94.7654 46.0798 94.5449C46.0717 94.1635 46.0673 93.7821 46.0666 93.4007C46.1316 93.1525 46.2294 92.9142 46.3576 92.6919C46.3976 92.6197 46.4209 92.5394 46.4258 92.457C46.4306 92.3745 46.4168 92.2921 46.3855 92.2157C46.3542 92.1393 46.3061 92.0709 46.2448 92.0155C46.1835 91.9602 46.1105 91.9194 46.0313 91.896Z" fill="#FDE41B"/>
<path d="M56.2572 103.19C56.1392 103.212 56.0246 103.24 55.9077 103.267C55.8508 103.217 55.7818 103.184 55.7078 103.169C55.6337 103.154 55.5571 103.159 55.4855 103.183C55.1973 103.264 54.9257 103.396 54.683 103.571C54.4462 103.632 54.2052 103.675 53.9621 103.7C53.8557 103.633 53.7418 103.579 53.6226 103.538C53.2919 103.428 52.7782 103.345 52.4387 103.457H52.4266C52.1634 103.337 51.9373 103.149 51.7718 102.912C51.5381 102.565 51.0001 102.87 51.2063 103.243C51.4099 103.599 51.7053 103.895 52.0617 104.099C52.0999 104.231 52.1497 104.36 52.2105 104.483C52.5478 105.259 53.0433 105.957 53.6656 106.531C53.7301 106.591 53.815 106.625 53.9032 106.625C53.9913 106.625 54.0762 106.591 54.1407 106.531C54.6318 106.12 55.0831 105.664 55.4889 105.168C55.9045 104.685 56.2691 104.16 56.5769 103.601C56.6021 103.552 56.6129 103.497 56.6079 103.443C56.603 103.388 56.5824 103.336 56.5488 103.293C56.5151 103.25 56.4698 103.217 56.4181 103.199C56.3664 103.18 56.3106 103.177 56.2572 103.19Z" fill="#FDE41B"/>
<path d="M66.0826 95.9287C66.0407 95.5473 65.9988 95.1659 65.9514 94.7844L65.8159 93.6898C65.7909 93.3415 65.7419 92.9952 65.6693 92.6536C65.5778 92.3119 65.3694 91.9856 65.0365 91.839C64.8655 91.7635 64.6761 91.74 64.4919 91.7713C64.3076 91.8027 64.1367 91.8876 64.0003 92.0154C63.7677 92.227 63.8262 92.5368 64.0003 92.7341C64.093 93.4455 64.1195 94.164 64.0797 94.8803C64.065 95.276 64.0282 95.6705 63.9695 96.0621C63.9331 96.2902 63.9099 96.5228 63.8713 96.751C63.863 96.8033 63.8519 96.8552 63.8383 96.9064L63.8085 97.0001C63.7975 97.0081 63.7872 97.0169 63.7776 97.0266C63.4558 97.2779 63.8107 97.7652 64.1558 97.6748C64.3355 97.6292 64.4924 97.5194 64.5967 97.3661C64.7423 97.2863 64.8956 97.2213 65.0541 97.1721C65.3275 97.0817 65.7056 97.0619 65.925 96.8623C66.2028 96.6088 66.1212 96.2583 66.0826 95.9287Z" fill="#FDE41B"/>
<path d="M45.5511 96.5688C45.3945 96.4809 45.2436 96.3833 45.0991 96.2767C45.0837 96.2624 45.0649 96.2502 45.0484 96.237L44.9382 96.1455C44.8698 96.086 44.807 96.0209 44.7364 95.9636C44.5946 95.852 44.4613 95.73 44.3374 95.5988C44.3054 95.5646 44.2768 95.5282 44.247 95.4885V95.483L44.2084 95.4334C44.1522 95.3562 44.0982 95.278 44.0475 95.1986C44.0059 95.1297 43.9392 95.0797 43.8615 95.0591C43.7837 95.0386 43.701 95.049 43.6308 95.0884C43.5627 95.1309 43.5133 95.1978 43.4929 95.2754C43.4724 95.353 43.4823 95.4356 43.5206 95.5062C43.673 95.857 43.8642 96.1898 44.0905 96.4983C44.3668 96.8419 44.7029 97.1328 45.0826 97.357C45.1874 97.4182 45.3122 97.4353 45.4296 97.4045C45.5471 97.3737 45.6474 97.2975 45.7087 97.1927C45.7699 97.0879 45.787 96.9631 45.7562 96.8456C45.7254 96.7282 45.6493 96.6278 45.5444 96.5666L45.5511 96.5688Z" fill="#FDC01B"/>
<path d="M45.0971 96.271C45.026 96.1999 45.0667 96.2507 45.0971 96.271V96.271Z" fill="#FDC01B"/>
<path d="M54.645 103.279C54.548 103.314 54.4488 103.346 54.3485 103.373C54.2501 103.406 54.1478 103.426 54.0442 103.433C54.2129 103.433 54.0211 103.433 53.9814 103.433C53.9417 103.433 53.8932 103.433 53.848 103.44C53.7378 103.44 53.6276 103.44 53.5173 103.432L53.363 103.418L53.3013 103.411C53.2032 103.394 53.1051 103.377 53.0092 103.352C52.909 103.326 52.8104 103.295 52.7137 103.259L52.6564 103.237H52.6487C52.5947 103.212 52.5384 103.186 52.4877 103.159C52.377 103.095 52.2456 103.077 52.1218 103.109C51.9981 103.142 51.892 103.221 51.8263 103.331C51.7639 103.442 51.747 103.573 51.779 103.696C51.8111 103.819 51.8897 103.926 51.9983 103.992C52.1263 104.085 52.2612 104.167 52.4018 104.239C52.48 104.68 52.6895 105.121 52.8967 105.512C53.1253 105.94 53.3921 106.346 53.6937 106.725C53.923 107.02 54.473 106.919 54.6296 106.605C55.0687 105.758 55.3397 104.833 55.4277 103.883C55.4596 103.495 55.0088 103.146 54.645 103.279ZM54.0586 104.614C54.0354 104.724 54.0156 104.827 53.988 104.931C53.9803 104.961 53.9693 104.989 53.9605 105.017C53.9417 104.985 53.9197 104.955 53.902 104.921C53.8447 104.819 53.7918 104.713 53.7455 104.608C53.8502 104.615 53.9538 104.615 54.0586 104.615V104.614Z" fill="#FDC01B"/>
<path d="M64.9278 94.3083C64.9232 94.2343 64.8907 94.1649 64.8367 94.1142C64.7827 94.0634 64.7114 94.0352 64.6373 94.0352C64.5633 94.0352 64.492 94.0634 64.438 94.1142C64.384 94.1649 64.3514 94.2343 64.3469 94.3083C64.3072 95.0975 64.1892 95.8978 64.2366 96.6882C64.242 96.7906 64.2865 96.8869 64.3608 96.9575C64.4352 97.028 64.5337 97.0674 64.6362 97.0674C64.7387 97.0674 64.8373 97.028 64.9117 96.9575C64.986 96.8869 65.0305 96.7906 65.0358 96.6882C65.0854 95.8978 64.9686 95.0975 64.9278 94.3083Z" fill="#FDC01B"/>
<path d="M63.3652 96.5018C62.9474 96.2119 62.4161 96.9538 62.1526 97.1808C61.1252 98.0627 59.8124 98.6337 58.5678 99.1485C57.245 99.6919 55.9057 100.124 54.4749 100.21C51.8205 100.37 49.0404 99.1496 47.3395 97.1081C47.0242 96.7289 46.4576 97.2183 46.6781 97.6185C47.3374 98.822 48.2794 99.8471 49.4229 100.606C49.2201 100.788 49.1319 101.112 49.3799 101.321C50.4822 102.254 51.8337 102.65 53.2381 102.614C53.992 102.816 54.7752 102.886 55.553 102.82C56.6729 102.704 57.7775 102.289 58.5789 101.479C58.645 101.412 58.6918 101.329 58.7143 101.237C58.7368 101.146 58.7342 101.051 58.7067 100.961C58.7456 100.928 58.7824 100.893 58.817 100.856C58.8548 100.813 58.8814 100.761 58.8945 100.705C58.9075 100.649 58.9067 100.591 58.8919 100.535C59.3108 100.331 59.7242 100.119 60.1221 99.886C61.2645 99.2232 62.2978 98.3881 63.1855 97.4101C63.3817 97.1963 63.7179 96.7432 63.3652 96.5018Z" fill="#E9E3FF"/>
<path d="M61.1279 135.676C60.7057 134.879 59.847 134.452 58.9707 134.75C57.8518 135.129 57.3172 136.424 56.1685 136.724C55.6879 136.851 55.021 136.706 54.8281 136.186C54.5823 135.519 55.269 134.781 55.6769 134.338C55.8213 134.178 55.7871 133.836 55.5347 133.8C55.1823 133.732 54.8171 133.787 54.5007 133.956C54.0598 134.177 53.7346 134.442 53.2066 134.384C52.1979 134.274 51.5024 133.361 50.9093 132.627C50.5367 132.167 49.7585 132.769 50.087 133.261L50.1807 133.399C49.6383 133.744 49.0596 134.261 48.9086 134.849C48.6572 135.841 49.6064 136.503 50.2545 137.065C51.1579 137.843 52.1037 138.57 53.0875 139.243C53.9694 139.849 54.9042 140.439 55.9404 140.754C56.8762 141.039 57.9135 141.073 58.8384 140.724C59.8195 140.352 60.4577 139.607 60.8711 138.662C61.2845 137.717 61.6405 136.645 61.1279 135.676Z" fill="#E9E3FF"/>
<path d="M65.4669 136.491H65.4731C65.4731 136.491 65.4679 136.491 65.4658 136.482V136.489L65.4669 136.491Z" fill="#E9E3FF"/>
<path d="M65.9644 136.803C65.8474 136.713 65.7227 136.633 65.5918 136.565C65.5665 136.55 65.5036 136.508 65.4728 136.49V136.482L65.4463 136.454C65.4559 136.461 65.4651 136.468 65.4739 136.475C65.4766 136.443 65.4814 136.412 65.4882 136.38C65.4882 136.373 65.5103 136.251 65.5191 136.204C65.5555 135.984 65.5951 135.763 65.6183 135.543C65.7043 134.715 65.4959 133.845 64.9227 133.228C64.3715 132.629 63.4202 132.311 62.6442 132.63C62.3973 132.732 62.222 132.961 62.2992 133.238C62.3223 133.311 62.3619 133.379 62.415 133.435C62.4681 133.491 62.5333 133.534 62.6056 133.561C62.5829 133.707 62.6072 133.856 62.6751 133.987C63.3365 135.283 62.9881 136.809 62.6266 138.136C62.5905 138.272 62.6091 138.417 62.6783 138.539C62.7476 138.661 62.862 138.751 62.9969 138.79C63.2436 138.842 63.4945 138.871 63.7465 138.877C64.0111 139.034 64.3837 139.081 64.603 138.808C64.8922 138.756 65.1747 138.672 65.4452 138.558C65.8112 138.398 66.2169 138.164 66.3161 137.744C66.3505 137.57 66.3359 137.39 66.2738 137.223C66.2117 137.057 66.1046 136.912 65.9644 136.803Z" fill="#E9E3FF"/>
<path d="M63.0167 126.536C63.0167 126.519 62.9925 126.325 63.0035 126.446C63.0005 126.322 62.9762 126.2 62.9319 126.084C62.9319 126.031 62.944 125.974 62.9495 125.925C63.0035 125.39 62.1624 125.235 61.9651 125.674C61.907 125.698 61.8525 125.729 61.8031 125.768C61.684 125.406 61.2232 125.237 60.8815 125.316C59.8398 125.555 59.8431 126.697 59.7957 127.541C59.7482 128.453 59.5931 129.356 59.3339 130.231C59.1751 130.776 59.8123 131.274 60.3006 130.974C60.711 130.708 61.2079 130.61 61.6884 130.701C62.1183 130.788 62.4149 130.52 62.4678 130.108C62.5802 129.237 62.6842 128.365 62.7797 127.492C62.8398 127.461 62.8921 127.417 62.9328 127.363C62.9734 127.309 63.0014 127.246 63.0145 127.18C63.0555 126.967 63.0562 126.749 63.0167 126.536Z" fill="#E9E3FF"/>
<path d="M50.5981 106.287C47.0067 102.166 41.3694 99.9788 36.0473 99.41C35.7012 99.3736 35.71 99.906 36.0473 99.9479C38.7205 100.279 41.2636 101.1 43.6909 102.257C46.0918 103.402 48.2105 104.961 50.274 106.616C50.319 106.65 50.375 106.667 50.4314 106.663C50.4879 106.659 50.541 106.635 50.5807 106.594C50.6205 106.554 50.6442 106.501 50.6474 106.444C50.6506 106.388 50.6331 106.332 50.5981 106.287Z" fill="#CFD8E8"/>
<path d="M48.5545 103.268L44.3182 100.103C44.1308 99.9635 43.9533 100.278 44.1352 100.418L48.3351 103.644C48.5556 103.814 48.7782 103.435 48.5545 103.268Z" fill="#CFD8E8"/>
<path d="M68.9217 99.5183C64.4347 100.443 60.3506 102.751 57.2435 106.118C56.9658 106.42 57.4067 106.866 57.6955 106.57C60.8053 103.397 64.7974 101.233 69.1532 100.359C69.7021 100.25 69.4717 99.4047 68.9217 99.5183Z" fill="#CFD8E8"/>
<path d="M64.8073 99.5862C63.8127 99.6867 62.8521 100.004 61.993 100.515C61.134 101.026 60.3973 101.72 59.8347 102.546C59.6208 102.857 60.1224 103.141 60.3362 102.839C60.8625 102.115 61.5299 101.505 62.2984 101.046C63.0668 100.586 63.9202 100.288 64.8073 100.167C65.1689 100.12 65.1843 99.5443 64.8073 99.5862Z" fill="#CFD8E8"/>
<path d="M57.6234 108.333C61.3052 106.128 65.2581 104.111 69.4536 103.108C73.7527 102.082 78.1786 102.362 82.3564 103.769C83.0333 103.997 83.4808 102.974 82.7974 102.745C79.3867 101.593 75.7975 101.099 72.2083 101.493C68.7139 101.876 65.3607 103.09 62.2036 104.596C60.4046 105.454 58.6585 106.417 56.9499 107.44C56.3326 107.808 57.0105 108.697 57.6212 108.331L57.6234 108.333Z" fill="#841918"/>
<path d="M25.8719 101.948C34.4216 100.924 42.7134 104.305 50.2092 108.046C50.8541 108.368 51.2939 107.341 50.6502 107.022C42.9702 103.189 34.4779 99.7927 25.7253 100.841C25.0121 100.926 25.1543 102.034 25.8686 101.943L25.8719 101.948Z" fill="#841918"/>
<path d="M29.2194 115.115L31.0052 121.067C31.0625 121.261 31.2621 121.366 31.4462 121.408C33.8823 121.969 36.324 122.566 38.7998 122.935C40.773 123.228 42.7682 123.349 44.7524 123.523C45.4656 123.586 45.6255 122.482 44.9079 122.421C42.9237 122.246 40.9251 122.124 38.9553 121.831C36.4794 121.464 34.0377 120.866 31.6005 120.305L32.0414 120.645C31.4476 118.661 30.8524 116.677 30.2556 114.693C30.0495 114.006 29.0177 114.432 29.2239 115.116L29.2194 115.115Z" fill="#841918"/>
<path d="M57.8415 124.996C61.6555 123.342 65.9425 122.839 70.0696 123.097C71.9777 123.203 73.8699 123.504 75.7169 123.994C76.4411 124.191 77.4806 124.384 78.1354 123.875C78.4297 123.646 78.5532 123.214 78.6734 122.883C79.402 120.842 79.9102 118.708 80.4371 116.609C80.6135 115.914 79.5067 115.764 79.3348 116.454C78.863 118.32 78.3934 120.194 77.7915 122.023C77.7121 122.262 77.6328 122.503 77.5391 122.736C77.5049 122.822 77.4619 122.906 77.4288 122.992C77.3792 123.126 77.3814 123.035 77.4288 123.016C77.2844 123.071 76.6869 123.096 76.3739 123.031C75.9726 122.947 75.5791 122.81 75.1801 122.716C71.5137 121.841 67.6125 121.699 63.8812 122.21C61.6556 122.498 59.48 123.089 57.4149 123.968C56.7535 124.254 57.1779 125.29 57.8393 125L57.8415 124.996Z" fill="#841918"/>
<path d="M82.1668 103.107C81.814 105.625 81.275 108.119 80.7249 110.603C80.5695 111.304 81.6751 111.456 81.8272 110.758C82.3784 108.277 82.9163 105.783 83.2691 103.262C83.3683 102.551 82.2638 102.395 82.1668 103.107Z" fill="#841918"/>
<path d="M28.2947 101.501C28.6706 100.641 29.0002 99.7611 29.3397 98.8881C29.5116 98.4472 29.6836 98.0062 29.8666 97.5653C30.0496 97.1244 30.2171 96.5479 30.6228 96.2601C31.0505 95.9559 31.6854 95.8413 32.1837 95.7156C33.8258 95.3065 35.5231 95.1647 37.2103 95.2956C41.7993 95.6671 45.6333 98.0647 48.6592 101.432C50.3005 103.259 51.7214 105.268 53.1181 107.283C53.5282 107.875 54.4178 107.202 54.0088 106.612C51.3555 102.783 48.5181 98.8539 44.4383 96.431C42.3388 95.1905 39.9903 94.4311 37.562 94.2076C35.2537 93.9937 32.6996 94.1811 30.5324 95.0608C29.365 95.5337 28.9991 96.7143 28.5691 97.7946C28.1392 98.8749 27.7402 99.9849 27.2695 101.056C26.9807 101.718 28.0059 102.159 28.2947 101.497V101.501Z" fill="#841918"/>
<path d="M55.1838 106.97C57.1173 103.737 59.8116 101.025 63.0324 99.0708C64.6991 98.0599 66.54 97.2189 68.4338 96.7371C70.5591 96.197 72.7737 96.1132 74.9475 96.3513C77.4509 96.6247 79.8837 97.3048 82.2394 98.1768C82.9118 98.4259 83.3572 97.4051 82.6804 97.1527C78.3813 95.5609 73.6798 94.5435 69.1084 95.4452C65.1489 96.2268 61.402 98.3829 58.4742 101.126C56.8509 102.64 55.4473 104.374 54.3041 106.278C53.9392 106.887 54.8123 107.585 55.186 106.97H55.1838Z" fill="#841918"/>
<path d="M82.116 97.4715C81.2915 99.1415 81.4138 101.155 81.9452 102.891C82.0333 103.178 82.4125 103.302 82.6738 103.195C82.9736 103.071 83.0662 102.754 82.978 102.466C82.5316 101.01 82.4511 99.3113 83.1401 97.9157C83.1929 97.781 83.1913 97.6309 83.1356 97.4973C83.0798 97.3637 82.9744 97.257 82.8414 97.1998C82.7084 97.1425 82.5584 97.1392 82.4231 97.1905C82.2877 97.2418 82.1776 97.3438 82.116 97.4748V97.4715Z" fill="#841918"/>
<path d="M24.8114 82.7715C29.2207 88.519 36.2315 90.9387 43.1454 92.0311C45.2398 92.3618 47.3618 92.5822 49.4805 92.7487C50.1937 92.8049 50.3535 91.7004 49.6359 91.6464C42.8323 91.1084 35.4753 90.1152 29.7774 86.0432C28.23 84.9412 26.8554 83.6148 25.6988 82.1079C25.2578 81.5369 24.3693 82.2082 24.807 82.7792L24.8114 82.7715Z" fill="#841918"/>
<path d="M51.7913 72.3801C52.0911 73.8682 53.0038 75.6187 54.5328 76.1401C54.9142 76.2704 55.3199 76.314 55.7203 76.2679C56.1207 76.2217 56.5058 76.087 56.8477 75.8734C57.4848 75.4787 57.9302 74.8184 58.2421 74.1504C58.5725 73.4069 58.7984 72.6212 58.9134 71.8157C59.0237 71.1058 57.9213 70.9504 57.8111 71.6603C57.6447 72.7141 57.3272 73.995 56.5225 74.7258C56.3385 74.904 56.1144 75.0354 55.869 75.1089C55.6237 75.1823 55.3642 75.1958 55.1126 75.148C54.5471 75.0378 54.0808 74.5969 53.7424 74.1394C53.3272 73.5729 53.0389 72.9236 52.8969 72.2357C52.7558 71.5357 51.648 71.6724 51.7946 72.3801H51.7913Z" fill="#841918"/>
<path d="M45.781 66.0653C44.0977 62.3582 38.9465 62.5114 36.7297 65.1327C36.0793 65.9044 35.6064 67.0497 35.4201 68.0484C35.2713 68.8476 35.3485 70.0833 35.6814 70.7326C35.7023 70.662 35.7255 70.5926 35.7519 70.5264C35.8779 70.1816 36.0747 69.8669 36.3296 69.6027C36.4556 69.4744 36.5979 69.3632 36.7528 69.272C36.9127 69.1821 37.0881 69.1234 37.2698 69.0989C37.5278 68.8785 37.9566 68.9523 38.187 69.1651C38.2315 69.2072 38.2687 69.2564 38.2972 69.3106C38.3744 69.3617 38.4458 69.4213 38.51 69.488C38.7659 69.7754 38.9137 70.143 38.9278 70.5275C38.9503 70.8795 38.8775 71.2309 38.7172 71.545C38.7282 71.5966 38.7359 71.6489 38.7404 71.7015C38.7492 72.3067 38.2994 72.7002 37.7725 72.8965C37.7004 72.9228 37.6268 72.9449 37.552 72.9626C38.8748 73.9988 41.214 74.2733 43.0483 73.4829C46.2792 72.0973 46.977 68.6966 45.781 66.0653Z" fill="#841918"/>
<path d="M72.7243 72.3208C72.6285 72.2616 72.5453 72.1841 72.4796 72.0926C72.4406 72.0471 72.4066 71.9976 72.3782 71.9449C72.3136 71.8026 72.2613 71.6551 72.2217 71.504C72.1677 71.3133 72.1114 71.1182 72.0707 70.9197C72.0331 70.895 71.9986 70.8658 71.9681 70.8326C71.8831 70.7471 71.8213 70.6412 71.7885 70.5251C71.7565 70.4033 71.7565 70.2754 71.7885 70.1536C71.8391 69.9775 71.955 69.8273 72.1125 69.7336L72.1555 69.7127C72.5495 69.5281 72.9576 69.3751 73.3758 69.2552C73.6823 69.1714 74.0185 69.1163 74.3106 69.2795C74.4257 69.3468 74.5209 69.4436 74.5864 69.5598C74.6518 69.676 74.6852 69.8075 74.6832 69.9409C74.6832 69.9519 74.6909 69.9607 74.6942 69.9717C74.7114 70.0558 74.7188 70.1417 74.7163 70.2275C75.1609 69.1542 75.2111 67.9581 74.858 66.8514C74.5049 65.7446 73.7713 64.7986 72.7872 64.1812C71.9229 63.6454 70.9108 63.398 69.8969 63.4746H69.8693C67.3472 63.5595 65.2472 65.569 65.1535 68.1044C65.0742 70.2308 66.3066 72.2789 68.2731 73.1079C69.8947 73.7924 71.6683 73.4386 73.0054 72.4321C72.9058 72.4121 72.8106 72.3744 72.7243 72.3208Z" fill="#841918"/>
<path d="M49.5752 24.0945C50.0911 32.8679 51.4569 41.702 54.3825 50.0147C55.104 52.0764 55.9427 54.0951 56.8947 56.061C57.2078 56.7026 58.2428 56.2815 57.9276 55.6366C54.2899 48.1628 52.4082 39.903 51.3841 31.6929C51.0633 29.12 50.8329 26.5383 50.6819 23.9512C50.64 23.2347 49.5333 23.3791 49.5796 24.0945H49.5752Z" fill="#841918"/>
<path d="M70.3802 24.5044C73.792 32.0201 76.0308 39.9668 77.1706 48.1373C77.4815 50.364 77.7152 52.6007 77.8948 54.8417C77.9511 55.5571 79.0589 55.4138 78.9972 54.6973C78.3523 46.615 76.8818 38.6121 74.1822 30.953C73.3598 28.6216 72.4295 26.331 71.4076 24.0811C71.1122 23.4285 70.0771 23.8474 70.3758 24.5044H70.3802Z" fill="#841918"/>
<path d="M89.2538 59.0969C89.3273 60.5167 89.3372 61.9372 89.2836 63.3585C89.2715 63.6606 89.439 63.9439 89.7587 63.9891C90.0343 64.0276 90.3771 63.8171 90.3892 63.5139C90.4487 61.9942 90.4395 60.4737 90.3616 58.9525C90.3451 58.6516 90.0177 58.4344 89.7355 58.4708C89.59 58.4929 89.4587 58.5704 89.3689 58.6871C89.2792 58.8037 89.2379 58.9506 89.2538 59.0969Z" fill="#841918"/>
<path d="M88.7596 69.6491C88.9117 72.2131 88.3859 74.8411 87.4268 77.2144C86.4678 79.5877 84.9752 81.4892 83.0616 83.167C79.1516 86.5996 74.2661 88.8142 69.2736 90.158C66.5123 90.8961 63.6873 91.3711 60.8364 91.5767C60.121 91.6296 60.2643 92.7363 60.9808 92.679C66.3535 92.2844 71.734 90.9759 76.6063 88.6544C81.2582 86.4376 85.996 83.1328 88.1731 78.3035C89.4033 75.573 90.0471 72.4931 89.8663 69.498C89.8233 68.7815 88.7166 68.9259 88.764 69.6414L88.7596 69.6491Z" fill="#841918"/>
<path d="M90.2171 61.4795C91.4726 60.3309 93.0974 59.9991 94.6903 60.6263C95.4476 60.9337 96.1363 61.3884 96.7165 61.964C97.2967 62.5396 97.7568 63.2248 98.0701 63.9796C98.8858 65.9638 98.2233 68.0582 97.3547 69.9101C96.5952 71.5273 95.6273 73.0727 94.3784 74.3603C92.9575 75.8264 91.0945 76.8328 89.0089 76.5131C88.2979 76.4029 88.1425 77.5052 88.8535 77.6155C93.2782 78.2923 96.4717 74.2291 98.2101 70.6983C99.2364 68.616 100.009 66.2438 99.2496 63.9509C98.6565 62.1574 97.2654 60.6252 95.5755 59.7951C93.5549 58.803 91.2191 59.0522 89.5446 60.5855C89.0188 61.0672 89.6857 61.9623 90.216 61.4762L90.2171 61.4795Z" fill="#841918"/>
<path d="M91.8355 70.5969C92.8002 69.1595 94.0782 67.9595 95.5735 67.087C95.8325 66.9349 95.8502 66.527 95.6837 66.3055C95.4853 66.042 95.1634 66.0431 94.9022 66.1952C93.3295 67.1242 91.983 68.3912 90.9602 69.9046C90.8723 70.0222 90.8329 70.1691 90.8502 70.3149C90.8674 70.4608 90.9399 70.5944 91.0528 70.6884C91.2733 70.8647 91.6679 70.8471 91.8366 70.5958L91.8355 70.5969Z" fill="#841918"/>
<path d="M49.5177 23.6779C47.7452 32.1019 47.2602 40.7762 47.5622 49.3678C47.6357 51.5533 47.7672 53.737 47.9568 55.9189C48.0175 56.6343 49.1253 56.4899 49.0592 55.7745C48.3636 47.5919 48.3834 39.3178 49.3987 31.1616C49.7051 28.7034 50.1119 26.2607 50.619 23.8333C50.7667 23.13 49.661 22.9768 49.5166 23.6779H49.5177Z" fill="#841918"/>
<path d="M43.2282 23.9666C40.6906 31.7513 39.445 39.8909 40.2861 48.0658C40.5341 50.4371 40.9343 52.7899 41.4843 55.1097C41.6463 55.8009 42.7553 55.6664 42.5866 54.9653C40.7518 47.1497 40.6878 39.0227 42.3992 31.1792C42.8994 28.8926 43.5164 26.6332 44.2478 24.4098C44.4683 23.7318 43.4465 23.2832 43.2238 23.9688L43.2282 23.9666Z" fill="#841918"/>
<path d="M43.9645 91.7973C43.6746 91.6353 43.3031 91.7146 43.0044 91.8227C42.6741 91.9558 42.3607 92.1275 42.0707 92.3342C41.4384 92.7637 40.8436 93.246 40.2927 93.776C40.0523 93.9892 39.8272 94.219 39.6191 94.4639C39.5737 94.5218 39.5401 94.588 39.5202 94.6589C39.5004 94.7298 39.4947 94.8039 39.5035 94.877C39.5123 94.9501 39.5355 95.0207 39.5716 95.0849C39.6077 95.149 39.656 95.2055 39.7139 95.2509C39.7718 95.2964 39.8381 95.33 39.909 95.3498C39.9799 95.3697 40.054 95.3753 40.1271 95.3665C40.2002 95.3577 40.2708 95.3346 40.335 95.2985C40.3991 95.2624 40.4555 95.214 40.501 95.1561C40.5561 95.0867 40.6112 95.0205 40.6785 94.9566L40.7986 94.832L40.8615 94.7703C40.9188 94.7119 40.7722 94.8552 40.8725 94.7604C41.1172 94.5267 41.3682 94.3007 41.6254 94.0824C41.9043 93.8465 42.1909 93.6184 42.4874 93.4056C42.6296 93.3031 42.774 93.205 42.9283 93.1124L43.0209 93.0551C43.0419 93.0429 43.0628 93.0319 43.0827 93.0187C43.0827 93.0187 42.9802 93.0738 43.0342 93.0463C43.0882 93.0187 43.1687 92.9746 43.237 92.9415C43.3031 92.9091 43.3708 92.8801 43.4398 92.8544C43.4685 92.8445 43.4994 92.8379 43.5269 92.8258C43.5269 92.8258 43.3957 92.8489 43.5049 92.8324C43.5302 92.8324 43.5556 92.8269 43.5809 92.8214C43.6912 92.7993 43.4707 92.8214 43.5302 92.8214C43.5732 92.8214 43.7088 92.8324 43.4718 92.7971C43.4932 92.803 43.5136 92.8119 43.5324 92.8236C43.7871 92.9669 44.1663 92.7949 44.2655 92.5337C44.3823 92.2272 44.2489 91.9527 43.9756 91.7995L43.9645 91.7973Z" fill="#841918"/>
<path d="M66.0455 92.8631C66.4224 92.9323 66.7874 93.0556 67.1291 93.2291C67.512 93.4143 67.8764 93.6357 68.2171 93.8905C68.9093 94.3862 69.518 94.989 70.0205 95.6763C70.4427 96.2594 71.3334 95.587 70.9123 95.0038C70.3376 94.2213 69.6417 93.5355 68.8509 92.9722C68.0605 92.4023 67.1698 91.9305 66.2053 91.7597C66.1306 91.7442 66.0535 91.7442 65.9789 91.7596C65.9042 91.7751 65.8334 91.8057 65.771 91.8496C65.7086 91.8935 65.6559 91.9497 65.6161 92.0148C65.5763 92.0799 65.5503 92.1524 65.5396 92.2279C65.529 92.3035 65.5339 92.3804 65.5542 92.4539C65.5745 92.5275 65.6096 92.5961 65.6574 92.6555C65.7052 92.7149 65.7647 92.7639 65.8322 92.7994C65.8997 92.835 65.9738 92.8563 66.0499 92.862L66.0455 92.8631Z" fill="#841918"/>
<path d="M47.7782 92.7735C49.6004 94.9142 52.3298 95.9769 55.1109 95.9548C56.6287 95.9252 58.1286 95.6209 59.5379 95.0565C60.2388 94.781 60.9183 94.4538 61.5706 94.0776C62.1317 93.7568 62.6729 93.371 62.8658 92.7228C63.0654 92.0416 62.0435 91.5907 61.8407 92.2819C61.6687 92.8661 61.0183 93.1329 60.5179 93.3919C59.9705 93.675 59.4057 93.9232 58.8269 94.1349C57.5835 94.6002 56.2677 94.8424 54.9401 94.8503C52.5866 94.8426 50.2133 93.9177 48.6711 92.1055C48.207 91.5543 47.313 92.229 47.7793 92.7768L47.7782 92.7735Z" fill="#841918"/>
<path d="M45.9946 93.1805C47.0098 95.9727 50.1515 96.8348 52.7618 97.4675C55.2486 98.0705 57.9923 98.2468 60.3282 97.0266C61.7502 96.2836 62.8823 95.1526 63.7961 93.8419C64.2073 93.2544 63.332 92.561 62.9209 93.1497C62.0214 94.4361 60.9047 95.5748 59.4496 96.213C58.1268 96.7951 56.6629 96.913 55.2321 96.7708C53.6194 96.6121 52.0254 96.1833 50.5009 95.6431C48.9764 95.103 47.6051 94.3468 47.0274 92.7572C46.7816 92.0826 45.7487 92.5059 45.9946 93.1816V93.1805Z" fill="#841918"/>
<path d="M43.5476 91.8703C43.4879 93.3007 43.2822 94.7213 42.9336 96.1099C42.8598 96.4031 43.1331 96.7018 43.4087 96.7404C43.7394 96.7867 43.9599 96.5596 44.0393 96.2653C44.3878 94.8767 44.5935 93.4561 44.6533 92.0257C44.6665 91.7248 44.4978 91.4404 44.1781 91.3952C43.9026 91.3566 43.5608 91.5671 43.5476 91.8703Z" fill="#841918"/>
<path d="M45.6893 92.4152C45.5901 94.3994 45.5515 96.3836 45.8348 98.3579C45.9373 99.0667 47.0474 98.9267 46.9371 98.2135C46.6671 96.3318 46.6946 94.4655 46.7894 92.5706C46.8049 92.2697 46.6318 91.9853 46.3143 91.9401C46.0365 91.9015 45.6992 92.1121 45.6838 92.4152H45.6893Z" fill="#841918"/>
<path d="M63.2002 92.2499C63.3314 93.2982 63.262 94.2892 63.2002 95.3464C63.1705 95.9096 63.1308 96.4718 63.0646 97.0318C63.0404 97.238 63.0139 97.4441 62.9742 97.648C62.9621 97.7109 62.885 97.9324 62.9566 97.7583C62.9324 97.82 62.8464 97.9864 62.9654 97.7946C62.8078 98.0504 62.8023 98.3767 63.058 98.5784C63.2785 98.7482 63.683 98.7448 63.8418 98.4869C64.0545 98.1419 64.103 97.723 64.1538 97.3273C64.2287 96.7474 64.264 96.1621 64.3026 95.579C64.3654 94.438 64.4459 93.2486 64.3026 92.111C64.2133 91.3989 63.1065 91.54 63.2002 92.2554V92.2499Z" fill="#841918"/>
<path d="M65.0029 92.3504C65.0719 92.5119 65.1294 92.678 65.1749 92.8476C65.1859 92.8861 65.1837 92.8773 65.1683 92.8222C65.1738 92.8454 65.1804 92.8696 65.1859 92.8928C65.197 92.9413 65.2091 92.9898 65.2201 93.0383C65.2421 93.1397 65.2631 93.2422 65.2818 93.3436C65.3656 93.7845 65.4251 94.2332 65.4781 94.6807C65.5563 95.3421 65.553 96.0554 65.7536 96.6914C65.844 96.9791 66.2199 97.1037 66.4823 96.9956C66.617 96.937 66.7239 96.8286 66.7806 96.693C66.8372 96.5574 66.8394 96.4052 66.7865 96.2681C66.7634 96.1931 66.8163 96.4224 66.8053 96.3409C66.8053 96.3188 66.7953 96.2979 66.792 96.2769C66.7821 96.2174 66.7711 96.1579 66.7634 96.0983C66.7413 95.9495 66.7248 95.8007 66.7083 95.6519C66.6631 95.244 66.6212 94.8351 66.5727 94.4283C66.4713 93.5972 66.3765 92.6999 66.0358 91.9271C65.7459 91.2712 64.713 91.6901 65.0029 92.3504Z" fill="#841918"/>
<path d="M81.9884 110.713C81.5022 110 80.886 109.308 79.9469 109.345C79.0077 109.381 78.6241 110.237 78.3165 111.007C77.6496 112.661 77.428 114.659 78.613 116.138C79.6426 117.423 81.349 117.81 82.7446 116.87C84.1401 115.931 84.806 114.086 84.8688 112.461C84.9371 110.697 84.3793 108.174 82.5429 107.433C81.8815 107.164 81.4328 108.188 82.1019 108.457C83.2472 108.92 83.6452 110.525 83.7433 111.631C83.8535 112.844 83.5956 114.184 82.8747 115.183C82.243 116.058 81.1749 116.655 80.1464 116.035C79.0771 115.388 78.7541 114.103 78.9239 112.934C79.0341 112.192 79.2877 111.299 79.6955 110.662C80.1365 109.988 80.8552 111.032 81.0955 111.383C81.5012 111.977 82.3907 111.304 81.9862 110.712L81.9884 110.713Z" fill="#841918"/>
<path d="M36.8348 131.241C37.9372 132.414 39.2412 133.237 40.8143 133.612C42.3873 133.987 44.011 133.912 45.6039 133.869C46.3193 133.85 46.1727 132.743 45.4595 132.767C44.0342 132.805 42.5835 132.854 41.1791 132.558C39.851 132.268 38.6449 131.575 37.7255 130.574C37.2383 130.056 36.3421 130.722 36.8348 131.245V131.241Z" fill="#841918"/>
<path d="M60.7199 139.54C62.9179 140.216 65.3199 140.279 67.0925 138.605C68.6556 137.128 69.4272 135.004 70.179 133.042C70.4358 132.371 69.4129 131.926 69.1549 132.601C68.4935 134.341 67.8321 136.253 66.5093 137.623C65.0763 139.118 63.0292 139.094 61.1608 138.518C60.4807 138.309 60.032 139.332 60.7199 139.543V139.54Z" fill="#841918"/>
<path d="M44.7504 132.682C46.0767 134.525 47.5995 136.218 49.292 137.731C50.4395 138.768 51.6477 139.867 52.9727 140.676C54.6912 141.727 56.8695 142.242 58.8063 141.503C60.6042 140.816 61.7826 139.188 62.5674 137.502C62.8728 136.849 61.8476 136.408 61.5433 137.061C60.9106 138.414 60.0001 139.768 58.5891 140.389C57.6279 140.81 56.5762 140.821 55.5654 140.579C53.5195 140.092 52.0379 138.66 50.4318 137.256C48.6365 135.701 47.0291 133.941 45.6422 132.013C45.2244 131.427 44.3337 132.1 44.7504 132.686V132.682Z" fill="#841918"/>
<path d="M56.7911 126.824C55.2776 124.99 53.5491 123.136 51.3312 122.163C48.97 121.126 46.5383 121.589 44.4384 122.989C43.8398 123.388 44.5133 124.278 45.1097 123.881C46.998 122.622 49.1166 122.314 51.1846 123.33C53.0828 124.258 54.5754 125.897 55.9004 127.502C56.3568 128.053 57.2497 127.385 56.7911 126.83V126.824Z" fill="#841918"/>
<path d="M48.1963 1.98866C39.6808 1.33387 31.2733 4.28592 24.5546 9.45586C17.3486 14.9962 12.57 22.9848 9.07228 31.2567C5.3464 40.0698 3.17591 49.4694 1.73516 58.9032C0.568893 66.5324 -0.543359 74.4538 0.290005 82.1745C0.668105 85.6667 1.50257 89.16 3.09544 92.3072C4.70524 95.4945 7.0799 98.2331 10.0071 100.278C10.8292 100.847 11.6834 101.368 12.5656 101.838C12.9249 102.031 13.4309 101.655 13.3372 101.254C13.1381 100.387 13.0752 99.4943 13.1509 98.6081L12.1522 98.8661C13.1284 100.4 14.5891 101.564 16.3025 102.173C16.9771 102.412 17.4236 101.389 16.7434 101.149C15.2113 100.612 13.9061 99.5726 13.0407 98.1992C12.7827 97.7946 12.0828 97.9919 12.042 98.4582C11.9501 99.4444 12.0126 100.439 12.2272 101.406L12.9988 100.822C9.79541 99.1009 7.0462 96.6702 5.08626 93.5936C3.26851 90.7331 2.22019 87.4448 1.66902 84.1135C0.479607 76.8878 1.39013 69.4426 2.37121 62.2466C3.62566 53.0465 5.47317 43.8707 8.71954 35.149C10.3411 30.7948 12.3076 26.5619 14.6887 22.5714C16.8933 18.883 19.4441 15.4404 22.6255 12.5303C28.7159 6.94805 36.6251 3.24752 44.9532 3.01162C45.9828 2.98503 47.0131 3.01262 48.0397 3.0943C48.753 3.14941 48.9128 2.04377 48.1952 1.99196L48.1963 1.98866Z" fill="#841918"/>
<path d="M48.8521 2.9981C55.1111 1.47688 61.6854 1.41956 67.8849 3.26376C73.7626 5.01096 79.0604 8.28599 83.5381 12.4462C88.2274 16.8048 92.026 22.1059 94.967 27.7796C96.2061 30.1728 97.2114 32.6916 98.1693 35.2083C99.5572 38.846 100.798 42.5509 101.925 46.2823C103.216 50.5582 104.35 54.8805 105.287 59.2523C106.224 63.6242 106.97 68.0611 107.357 72.5244C107.698 76.4598 107.783 80.4612 107.184 84.3745C106.721 87.4026 105.825 90.5288 103.861 92.944C102.014 95.2159 99.3499 96.3932 96.4607 96.5972C95.6082 96.6518 94.7528 96.6396 93.9022 96.5608C93.189 96.4991 93.0292 97.6036 93.7468 97.6631C96.992 97.9453 100.361 97.4294 102.984 95.3659C105.445 93.428 106.842 90.5277 107.655 87.5636C108.66 83.8763 108.818 79.9828 108.694 76.182C108.549 71.6933 107.949 67.2233 107.133 62.8107C106.291 58.2459 105.201 53.7286 103.949 49.2597C102.82 45.2318 101.549 41.2468 100.137 37.3049C99.081 34.3969 97.972 31.489 96.6558 28.6858C94.2616 23.6208 91.1378 18.9342 87.3841 14.7754C83.1853 10.1247 78.1322 6.19707 72.3593 3.70249C66.4976 1.18404 60.0781 0.246017 53.7409 0.981932C52.0463 1.17925 50.3656 1.48225 48.7088 1.88915C48.0187 2.05671 48.1576 3.16676 48.8521 2.99149V2.9981Z" fill="#841918"/>
<path d="M75.8814 40.4289C79.9843 47.6757 84.8973 55.2145 92.9675 58.4378C93.6344 58.7045 94.0787 57.6805 93.4085 57.4137C85.6304 54.3051 80.8738 46.9966 76.9164 40.0046C76.567 39.3883 75.5297 39.8028 75.8836 40.4289H75.8814Z" fill="#841918"/>
<path d="M87.3802 57.7525L90.9242 58.9584C91.1998 59.0521 91.5459 58.9651 91.6583 58.6685C91.7587 58.4051 91.6639 58.0347 91.3684 57.9344L87.8223 56.7273C87.5467 56.6336 87.2005 56.7207 87.0881 57.0183C86.9878 57.2818 87.0881 57.6522 87.378 57.7525H87.3802Z" fill="#841918"/>
<path d="M63.9047 42.6299C64.8919 46.5192 65.6822 50.4559 66.2725 54.4249C66.3828 55.1337 67.4851 54.9948 67.3749 54.2816C66.7848 50.3126 65.9949 46.376 65.0082 42.4866C64.8329 41.7999 63.7239 41.9354 63.9058 42.631L63.9047 42.6299Z" fill="#841918"/>
<path d="M51.1507 108.101C53.0004 107.62 55.2954 107.024 56.9048 108.431C57.4472 108.904 58.1362 108.026 57.5971 107.555C55.7397 105.935 53.1701 106.434 51.0063 106.997C50.7152 107.073 50.4827 107.297 50.5256 107.622C50.5598 107.892 50.8563 108.18 51.1507 108.104V108.101Z" fill="#841918"/>
<path d="M49.9692 107.952C50.3803 112.738 50.3693 117.549 50.7794 122.335C50.8411 123.05 51.9478 122.907 51.8817 122.191C51.4716 117.405 51.4827 112.593 51.0715 107.808C51.0109 107.093 49.903 107.236 49.9692 107.952Z" fill="#841918"/>
<path d="M57.1228 107.8C57.0126 113.292 57.2761 118.809 56.726 124.284C56.6543 124.997 57.7589 125.156 57.8283 124.439C58.3795 118.964 58.1127 113.447 58.2252 107.955C58.2395 107.246 57.135 107.082 57.1228 107.8Z" fill="#841918"/>
<path d="M54.9953 136.73C55.5448 135.772 56.2113 134.886 56.9795 134.092C57.5968 133.452 58.3596 132.659 59.2271 132.378C60.54 131.954 61.488 133.276 61.7746 134.394C61.9851 135.167 61.9359 135.988 61.6346 136.73C61.3535 137.391 62.3787 137.832 62.6598 137.171C63.3686 135.504 63.0015 133.359 61.7228 132.061C61.4359 131.757 61.0848 131.522 60.6951 131.371C60.3055 131.221 59.8871 131.16 59.4707 131.192C58.3805 131.292 57.481 132.08 56.7149 132.796C55.6298 133.813 54.7058 134.99 53.9745 136.285C53.8246 136.548 54.0109 136.905 54.2644 137.019C54.5653 137.152 54.8509 136.989 54.9986 136.728L54.9953 136.73Z" fill="#841918"/>
<path d="M49.1145 136.329C49.2655 135.255 49.7605 134.234 50.3028 133.306C50.9639 132.18 51.7663 131.143 52.6905 130.22C53.5536 129.359 54.5589 128.566 55.6998 128.116C55.9708 128.005 56.2522 127.92 56.5398 127.863C56.65 127.842 56.7603 127.825 56.8705 127.813C56.8937 127.813 57.1792 127.833 57.0392 127.785C57.5562 127.965 58.018 128.819 58.2881 129.257C58.6651 129.869 59.5536 129.192 59.1799 128.585C58.6552 127.734 57.9078 126.589 56.7801 126.701C55.7285 126.806 54.7386 127.267 53.86 127.833C51.8847 129.107 50.294 131.042 49.1564 133.08C48.624 134.035 48.1643 135.079 48.0133 136.167C47.913 136.878 49.0186 137.034 49.1156 136.322L49.1145 136.329Z" fill="#841918"/>
<path d="M59.9901 127.462C63.4073 123.629 70.3024 127.952 69.0942 132.67C68.9168 133.366 70.0235 133.516 70.1966 132.826C71.3143 128.458 66.5699 124.227 62.3469 124.933C61.0682 125.146 59.968 125.815 59.1115 126.771C58.632 127.307 59.5106 127.996 59.9868 127.462H59.9901Z" fill="#841918"/>
<path d="M88.2591 79.9648C88.9973 83.0788 89.1412 86.304 88.6834 89.4714C88.312 92.0067 87.6914 95.1682 85.4195 96.7104C84.8231 97.1138 85.4966 98.0045 86.0908 97.6022C88.5159 95.9619 89.2765 92.7706 89.7219 90.0589C90.2757 86.6558 90.1547 83.1769 89.3658 79.8204C89.2038 79.1293 88.0948 79.2693 88.2635 79.9648H88.2591Z" fill="#841918"/>
<path d="M96.4606 79.6566C97.3424 83.3847 97.3303 87.3906 96.1861 91.0657C95.2502 94.0696 93.3796 97.0768 90.1806 97.9763C88.5205 98.4437 86.6774 98.2761 85.2686 97.2344C84.691 96.8078 83.9976 97.683 84.5763 98.1163C87.3994 100.204 91.4031 99.4391 93.8635 97.1451C96.648 94.5513 97.7955 90.5686 98.113 86.8835C98.3247 84.4148 98.1405 81.9282 97.5673 79.5177C97.4031 78.8265 96.293 78.9665 96.465 79.6621L96.4606 79.6566Z" fill="#841918"/>
<path d="M60.6908 55.7733C60.6402 54.4514 60.4137 53.142 60.0172 51.8799C59.9279 51.5922 59.5498 51.4676 59.2886 51.5757C58.9899 51.698 58.8951 52.0166 58.9844 52.3032C59.3424 53.4764 59.544 54.6918 59.584 55.9177C59.595 56.2187 59.9313 56.4347 60.2101 56.3995C60.532 56.3576 60.7018 56.0754 60.6908 55.7733Z" fill="#841918"/>
<path d="M59.1865 52.0956C60.0442 53.3612 61.1239 54.461 62.3733 55.342C62.6114 55.5096 62.9741 55.5029 63.1571 55.2494C63.3268 55.0157 63.3202 54.6453 63.0656 54.4657C62.4695 54.0462 61.9117 53.5748 61.3989 53.0569C61.4529 53.112 61.3911 53.0481 61.3691 53.0249L61.2765 52.9279C61.2159 52.864 61.1563 52.7978 61.0968 52.7317C60.9785 52.5994 60.8631 52.4646 60.7507 52.3271C60.5133 52.0383 60.2903 51.7392 60.0816 51.4298C59.9919 51.3125 59.8596 51.2351 59.7134 51.2145C59.5671 51.1939 59.4186 51.2316 59.3 51.3196C59.1846 51.4106 59.1087 51.5427 59.0881 51.6883C59.0676 51.8338 59.104 51.9817 59.1898 52.1011L59.1865 52.0956Z" fill="#841918"/>
<path d="M68.7669 52.0154L69.2761 53.3746C69.3333 53.5109 69.4417 53.6193 69.578 53.6764C69.7143 53.7335 69.8676 53.7348 70.0048 53.6799C70.1396 53.6211 70.2465 53.5124 70.3032 53.3767C70.3598 53.2409 70.3619 53.0886 70.309 52.9513L69.7942 51.5943C69.7367 51.4584 69.6282 51.3505 69.492 51.2936C69.3558 51.2367 69.2027 51.2355 69.0656 51.2901C68.9308 51.349 68.8239 51.4576 68.7672 51.5933C68.7106 51.7291 68.7084 51.8815 68.7614 52.0187L68.7669 52.0154Z" fill="#841918"/>
<path d="M72.2946 50.3815C72.8556 51.4292 73.2005 52.5789 73.3088 53.7624C73.3288 53.9087 73.4056 54.0412 73.5226 54.1313C73.6395 54.2215 73.7872 54.262 73.9338 54.2441C74.0793 54.2225 74.2108 54.1453 74.3007 54.0287C74.3905 53.9122 74.4317 53.7653 74.4155 53.6191C74.294 52.3397 73.9244 51.0963 73.3275 49.9582C73.1919 49.7003 72.8866 49.5173 72.6 49.654C72.3464 49.7708 72.1491 50.106 72.2946 50.3815Z" fill="#841918"/>
<path d="M39.489 131.979C38.1916 131.814 36.9922 131.114 37.3417 129.632C37.6128 128.481 38.2555 127.393 39.004 126.493C40.458 124.745 42.6593 123.466 44.9852 123.585C45.6962 123.621 45.8583 122.515 45.1407 122.482C42.2184 122.333 39.4901 123.93 37.7848 126.243C36.947 127.38 36.0707 128.952 36.1511 130.407C36.2437 132.06 37.8763 132.902 39.3336 133.087C40.0457 133.177 40.2022 132.073 39.489 131.984V131.979Z" fill="#841918"/>
<path d="M54.7279 125.524C55.6935 125.52 56.6528 125.369 57.573 125.076C57.853 124.99 57.9952 124.603 57.8772 124.348C57.8179 124.213 57.7093 124.107 57.5737 124.05C57.4381 123.994 57.2859 123.991 57.1486 124.043L57.0185 124.081L56.9568 124.099C56.8896 124.118 57.0726 124.069 57.0009 124.086C56.8973 124.113 56.7937 124.138 56.69 124.161C56.4696 124.212 56.2491 124.255 56.022 124.293C55.7949 124.33 55.5877 124.36 55.3683 124.383C55.2581 124.394 55.1556 124.404 55.0487 124.411H54.9164C54.869 124.411 54.6838 124.411 54.8833 124.411C54.7364 124.396 54.5891 124.435 54.4688 124.521C54.3497 124.61 54.2705 124.742 54.2484 124.889C54.223 125.158 54.4104 125.515 54.7235 125.518L54.7279 125.524Z" fill="#841918"/>
<path d="M58.1239 128.955L59.3685 131.38C59.5019 131.639 59.8094 131.821 60.0971 131.684C60.3518 131.566 60.5436 131.234 60.4014 130.956L59.1568 128.531C59.0234 128.272 58.7159 128.09 58.4282 128.226C58.1724 128.344 57.9872 128.676 58.1239 128.954V128.955Z" fill="#841918"/>
<path d="M59.0309 127.016C58.9438 127.44 58.8567 127.867 58.8104 128.298C58.7741 128.645 58.7652 128.995 58.784 129.344C58.7972 129.636 59.129 129.875 59.409 129.826C59.5542 129.803 59.6852 129.726 59.7749 129.61C59.8645 129.493 59.906 129.347 59.8907 129.201C59.8907 129.126 59.8841 129.052 59.883 128.98V128.93C59.883 129.046 59.883 128.923 59.883 128.892C59.883 128.738 59.9006 128.583 59.9183 128.43C59.9668 128.008 60.0517 127.589 60.1387 127.174C60.1586 127.027 60.1198 126.879 60.0308 126.761C59.9419 126.642 59.8099 126.564 59.6636 126.543C59.5176 126.526 59.3705 126.566 59.253 126.654C59.1356 126.743 59.0568 126.873 59.0331 127.018L59.0309 127.016Z" fill="#841918"/>
<path d="M61.0292 131.546C61.8152 131.026 62.751 130.622 63.7112 130.793C64.4597 130.928 65.1067 131.426 65.5377 132.032C65.9155 132.571 66.1382 133.203 66.1815 133.86C66.2062 134.176 66.1827 134.494 66.1121 134.804C66.0828 134.937 66.0407 135.067 65.9864 135.192C65.9352 135.315 65.8751 135.434 65.8067 135.549C65.6425 135.801 65.6469 136.134 65.8982 136.333C66.1187 136.507 66.5177 136.495 66.682 136.241C68.3112 133.734 66.5111 129.737 63.4047 129.642C62.2914 129.608 61.2706 130.05 60.3568 130.654C59.7571 131.051 60.4317 131.941 61.0292 131.546Z" fill="#841918"/>
<path d="M69.8693 122.884C72.5149 125.32 70.7512 129.761 69.2079 132.312C68.8409 132.919 69.7128 133.617 70.0898 133.004C71.9902 129.865 73.7496 124.939 70.5693 122.008C70.0391 121.52 69.3568 122.4 69.8771 122.884H69.8693Z" fill="#841918"/>
<path d="M59.0102 124.925C58.9529 125.764 58.8404 126.596 58.8845 127.439C58.9 127.732 59.2296 127.97 59.5107 127.921C59.6559 127.898 59.7869 127.821 59.8766 127.704C59.9663 127.588 60.0077 127.441 59.9924 127.295C59.9869 127.185 59.9825 127.081 59.9814 126.973C59.9814 126.936 59.9571 126.813 59.9814 126.943C59.9769 126.899 59.9769 126.854 59.9814 126.81C59.9869 126.619 59.999 126.43 60.0133 126.24C60.0442 125.853 60.0861 125.468 60.1125 125.08C60.1324 124.789 59.9527 124.48 59.6374 124.45C59.3541 124.422 59.0278 124.613 59.0069 124.925H59.0102Z" fill="#841918"/>
<path d="M58.3104 128.229L59.6575 127.116C59.7747 127.026 59.8535 126.895 59.8779 126.749C59.8961 126.602 59.8566 126.453 59.7677 126.335C59.6787 126.216 59.5465 126.137 59.3995 126.114C59.3268 126.105 59.2528 126.109 59.1819 126.128C59.111 126.147 59.0445 126.18 58.9862 126.224L57.6391 127.336C57.5217 127.426 57.4429 127.558 57.4187 127.704C57.4031 127.813 57.4203 127.925 57.4682 128.024C57.5161 128.124 57.5925 128.207 57.6877 128.263C57.7828 128.319 57.8925 128.346 58.0028 128.339C58.1131 128.333 58.219 128.294 58.3071 128.227L58.3104 128.229Z" fill="#841918"/>
<path d="M50.3833 103.016C51.6044 103.592 52.9382 103.889 54.2883 103.887C55.6383 103.884 56.971 103.582 58.19 103.001C58.8327 102.69 58.4105 101.655 57.7656 101.968C56.6835 102.492 55.4978 102.765 54.2959 102.769C53.094 102.773 51.9065 102.507 50.8209 101.992C50.1716 101.682 49.7307 102.707 50.38 103.016H50.3833Z" fill="#841918"/>
<path d="M49.1896 26.6632C49.1499 31.0417 49.1102 35.4378 49.6305 39.7931C50.0869 43.6513 50.9864 47.4797 52.6344 51.0148C53.5254 52.9412 54.6585 54.7459 56.0064 56.3854C56.2357 56.6621 56.6292 56.2652 56.401 55.9908C54.0178 53.1093 52.4194 49.6612 51.4086 46.0786C50.2974 42.1355 49.9039 38.0316 49.7815 33.9529C49.7088 31.5278 49.7297 29.0916 49.7518 26.6621C49.7518 26.3027 49.2006 26.3027 49.194 26.6621L49.1896 26.6632Z" fill="#841918"/>
<path d="M77.2352 44.878C79.1863 49.1881 82.6366 52.7806 86.8254 54.9643C88.0144 55.5842 89.2603 56.0881 90.5458 56.469C90.8909 56.5715 91.0385 56.0281 90.6946 55.9311C86.2292 54.584 82.3413 51.785 79.647 47.9778C78.8961 46.9143 78.248 45.7819 77.7113 44.5958C77.5636 44.2651 77.083 44.5528 77.2296 44.878H77.2352Z" fill="#841918"/>
<path d="M85.1267 85.7661C85.3973 87.4618 85.2999 89.1959 84.8411 90.8506C84.3824 92.5054 83.573 94.0421 82.4679 95.3564C82.2364 95.6287 82.63 96.0255 82.8626 95.751C84.0329 94.364 84.8894 92.7401 85.3732 90.991C85.8571 89.2418 85.9569 87.4087 85.6658 85.6173C85.6074 85.2646 85.0694 85.4145 85.1267 85.7661Z" fill="#841918"/>
<path d="M82.1726 90.8355C82.1979 91.7584 82.0513 92.6779 81.7405 93.5472C81.7284 93.5833 81.7239 93.6214 81.7271 93.6593C81.7302 93.6972 81.7411 93.734 81.759 93.7676C81.7769 93.8011 81.8014 93.8307 81.831 93.8544C81.8607 93.8782 81.8949 93.8957 81.9315 93.9058C81.9682 93.9159 82.0065 93.9185 82.0442 93.9133C82.0818 93.9081 82.118 93.8953 82.1506 93.8757C82.1831 93.8561 82.2114 93.83 82.2335 93.7991C82.2557 93.7683 82.2713 93.7332 82.2795 93.6961C82.6036 92.7782 82.7568 91.8086 82.7315 90.8355C82.7215 90.4773 82.1638 90.4762 82.1726 90.8355Z" fill="#841918"/>
<path d="M93.8539 86.9773C94.1306 90.7692 93.2528 94.5561 91.3362 97.8396C91.1543 98.1494 91.6371 98.4305 91.819 98.1207C93.7859 94.7522 94.6899 90.8682 94.4128 86.9773C94.3863 86.6212 93.8274 86.6179 93.8539 86.9773Z" fill="#841918"/>
<path d="M66.8398 62.4583C67.6145 61.5509 68.6562 60.9116 69.8161 60.6317C70.3643 60.4826 70.9385 60.4556 71.4982 60.5524C72.1367 60.6804 72.7168 61.0114 73.1517 61.496C73.8936 62.2797 75.0764 61.0947 74.3356 60.3121C71.9282 57.7712 67.736 58.825 65.6592 61.2744C65.3671 61.6183 65.3219 62.1199 65.6592 62.4583C65.959 62.7581 66.5499 62.8044 66.8431 62.4583H66.8398Z" fill="#841918"/>
<path d="M46.4057 61.074C45.223 59.7276 43.6281 58.8102 41.8696 58.4648C39.7752 58.0801 37.737 58.714 36.2951 60.3112C35.5742 61.1093 36.7548 62.2954 37.479 61.4951C38.567 60.2892 40.0508 59.7733 41.6436 60.1227C43.0347 60.4314 44.2898 61.1787 45.224 62.2546C45.9295 63.0715 47.109 61.8832 46.4079 61.0707L46.4057 61.074Z" fill="#841918"/>
<g style="mix-blend-mode:overlay" opacity="0.21">
<g style="mix-blend-mode:overlay" opacity="0.21">
<path d="M29.5889 73.7589C24.0034 66.5805 30.4708 53.1453 41.1557 54.7095C41.7495 54.7982 42.3363 54.9286 42.9117 55.0997C47.2285 56.3796 50.6788 60.2609 51.3732 64.7099C52.8515 74.1712 42.2999 80.2528 34.0302 76.9866C32.0956 76.2215 30.6317 75.0994 29.5889 73.7589Z" fill="white"/>
</g>
</g>
<g style="mix-blend-mode:overlay" opacity="0.21">
<g style="mix-blend-mode:overlay" opacity="0.21">
<path d="M60.3199 69.5341C58.2354 51.8549 82.9739 49.0803 84.7167 66.7629C85.5622 75.3368 76.8902 81.3037 68.9534 78.9536C64.6234 77.6715 60.8622 74.1397 60.3199 69.5341Z" fill="white"/>
</g>
</g>
<path d="M51.8149 68.8113C53.0782 68.4894 54.3503 68.2006 55.6588 68.162C57.1326 68.1179 58.5623 68.3891 59.9733 68.7947C61.0106 69.0935 61.4526 67.4785 60.4142 67.1809C58.871 66.74 57.2682 66.439 55.6555 66.4875C54.2015 66.5305 52.7718 66.8381 51.3663 67.1974C50.3235 67.4631 50.7655 69.0791 51.8072 68.8113H51.8149Z" fill="#841918"/>
<path d="M48.3838 58.6479C43.8355 54.362 37.2205 53.6753 32.2897 57.6757C32.2375 57.7188 32.203 57.7796 32.1927 57.8465C28.0777 61.9174 26.3768 68.6317 30.2085 73.4875C32.1464 75.9402 35.7081 77.2354 38.7626 77.6389C42.2107 78.0964 45.3303 76.3679 47.8624 74.1511C52.2508 70.3062 52.7523 62.7574 48.3838 58.6479ZM46.9728 73.1315C46.1686 73.8906 45.2474 74.5151 44.2445 74.9812C41.7092 76.1507 37.9811 76.7041 35.3388 75.8123C32.4727 74.8456 30.3474 72.3874 29.5471 69.5004C28.6123 66.1294 29.6794 62.6218 31.7397 59.8638C33.1815 57.9347 35.1448 56.5193 37.5523 56.1004C41.4523 55.4225 46.3059 57.6668 48.5216 60.9143C50.0935 63.2171 50.4914 66.2573 49.6515 68.9161C49.13 70.5238 48.2082 71.9725 46.9728 73.1259V73.1315Z" fill="white"/>
<path d="M80.7136 58.2421C76.054 53.8813 67.4371 53.1163 63.4753 58.7095C63.4053 58.8046 63.3756 58.9234 63.3927 59.0402C59.1244 62.668 59.8432 70.4526 63.0046 74.4728C65.0814 77.1107 68.5163 78.9671 71.8233 79.505C75.0598 80.0319 78.2708 78.3641 80.6971 76.3578C86.2451 71.7578 85.8648 63.0582 80.7136 58.2421ZM79.641 75.0328C76.9602 77.5164 71.755 78.5074 68.3719 77.2375C61.7182 74.7429 59.7858 65.4921 64.0353 59.7942C65.199 58.2196 66.8459 57.069 68.7246 56.5181C73.0833 55.2658 78.3866 57.0141 80.9528 60.7201C84.0427 65.1824 83.4198 71.5329 79.641 75.0328Z" fill="white"/>
<path d="M30.3121 73.3341C25.3031 66.8083 30.6075 56.0274 38.6446 55.4476C44.1155 55.0486 49.2601 58.9156 50.4396 64.2663C51.4526 68.8531 49.065 73.2117 45.0514 75.4285C40.3367 78.0333 33.6786 77.5792 30.1787 73.1632C29.8954 72.806 29.2968 72.8733 28.9948 73.1632C28.641 73.5093 28.7159 73.9944 28.9948 74.3471C32.5146 78.7895 39.1363 79.7111 44.1993 77.6695C48.9283 75.7625 52.4976 71.4116 52.3433 66.1513C52.1559 59.7842 46.9783 54.504 40.7225 53.8129C35.8723 53.2782 31.3714 55.9128 28.8636 59.9859C26.5388 63.7625 25.8565 68.7847 27.9818 72.8027C28.2361 73.2852 28.5311 73.7451 28.8636 74.1774C29.1414 74.5389 29.5813 74.7219 30.009 74.4783C30.3661 74.2766 30.5866 73.6912 30.3121 73.3341Z" fill="#841918"/>
<path d="M61.1611 69.5349C60.6683 65.2259 61.8059 60.908 65.2397 58.1368C68.0264 55.888 71.9639 55.123 75.4065 56.0004C79.2481 56.9804 82.1407 59.9424 83.2981 63.8017C84.0863 66.4307 84.2406 69.2902 83.1592 71.8619C82.0569 74.48 79.8522 76.5292 77.2694 77.6525C71.6652 80.0908 64.2443 77.6822 61.7971 71.8773C61.4804 71.1288 61.2665 70.3408 61.1611 69.5349C61.1037 69.0829 60.8171 68.7026 60.3244 68.6971C59.9154 68.6971 59.4304 69.0862 59.4866 69.5349C60.4148 76.8566 68.1466 81.3706 75.1122 80.0534C78.1987 79.4713 81.0968 77.7649 83.0391 75.2924C85.0883 72.6832 85.9117 69.4434 85.4895 66.1651C84.8767 61.3975 82.2928 56.9914 77.7567 55.0447C75.8127 54.2254 73.7043 53.8711 71.5993 54.0098C69.4943 54.1486 67.4507 54.7766 65.631 55.8439C61.5304 58.279 59.3654 62.7511 59.3599 67.4493C59.3616 68.1463 59.4032 68.8426 59.4844 69.5349C59.5362 69.9869 59.8328 70.3672 60.3222 70.3716C60.7323 70.376 61.2074 69.9835 61.1611 69.5349Z" fill="#841918"/>
<path d="M32.4323 111.082C31.4623 111.754 31.33 113.134 29.9389 113.152C28.691 113.167 27.4421 112.29 27.064 111.104C26.8038 110.287 25.6243 110.623 25.7886 111.455C26.6153 115.644 33.0871 116.526 33.1742 111.51C33.1852 111.154 32.7443 110.865 32.4323 111.082Z" fill="#FFBDAE"/>
<g style="mix-blend-mode:darken">
<path d="M31.585 87.8175C37.0003 87.8175 41.3903 83.4276 41.3903 78.0123C41.3903 72.597 37.0003 68.207 31.585 68.207C26.1697 68.207 21.7798 72.597 21.7798 78.0123C21.7798 83.4276 26.1697 87.8175 31.585 87.8175Z" fill="url(#paint0_radial)"/>
</g>
<path d="M42.0575 122.323C40.7049 121.935 39.3314 121.953 37.9391 121.974C37.2813 121.997 36.6227 121.978 35.9671 121.92C35.3641 121.856 34.4624 121.739 33.9939 121.33C33.8905 121.236 33.7632 121.171 33.6257 121.143C32.5013 120.543 32.6127 123.174 32.6612 123.648C32.8155 125.134 33.2708 126.572 33.7514 127.98C34.5351 130.279 35.9924 133.033 38.7372 133.203C39.2884 133.237 39.392 132.504 38.9996 132.235C38.1927 131.684 37.227 130.887 36.893 129.933C36.559 128.98 37.4618 128.153 37.9777 127.453C39.1098 125.91 40.4481 124.243 42.1952 123.374C42.6549 123.152 42.5105 122.452 42.0575 122.323Z" fill="#FDE41B"/>
<path d="M40.4224 122.721C40.0189 122.751 39.6202 122.828 39.2341 122.949C39.0831 122.886 38.9199 122.838 38.7557 122.778C38.3247 122.626 37.8926 122.476 37.4638 122.316C37.3529 122.28 37.2327 122.285 37.1257 122.331C37.0186 122.378 36.9319 122.461 36.8817 122.566C36.3745 122.169 35.7603 121.933 35.118 121.888C35.0806 121.886 35.043 121.891 35.0078 121.904C34.8226 121.826 34.6374 121.751 34.4566 121.683C34.0818 121.534 33.825 122.152 34.1821 122.333C35.1632 122.834 36.2435 123.413 36.8001 124.411C36.9897 124.757 37.1155 125.134 37.1716 125.525C37.1329 125.756 37.0561 125.98 36.9445 126.186C36.9243 126.219 36.9111 126.256 36.9057 126.294C36.9003 126.332 36.9028 126.371 36.9132 126.409C36.9235 126.446 36.9414 126.481 36.9658 126.511C36.9902 126.541 37.0205 126.565 37.0548 126.583C36.9754 126.717 36.8972 126.853 36.8189 126.988C36.626 127.318 37.0394 127.813 37.3811 127.55C37.6337 127.366 37.8461 127.133 38.0054 126.864C38.1646 126.596 38.2673 126.297 38.307 125.988C38.307 125.979 38.307 125.969 38.307 125.96C38.4514 125.755 38.6003 125.554 38.759 125.36C39.1701 124.863 39.6119 124.392 40.0818 123.951C40.2769 123.84 40.4753 123.73 40.6792 123.638C41.1114 123.435 40.8975 122.693 40.4224 122.721Z" fill="#FDC01B"/>
<path d="M28.5219 108.925C27.7444 106.344 26.9709 103.763 26.2015 101.181C25.9965 100.494 24.9647 100.921 25.1686 101.605C25.9359 104.188 26.7075 106.769 27.4835 109.348C27.6908 110.035 28.7225 109.608 28.5164 108.925H28.5219Z" fill="#841918"/>
<path d="M39.7831 22.7241C37.5785 26.1314 36.1851 30.0105 35.247 33.9392C34.2439 38.138 33.7743 42.5021 34.0025 46.8177C34.1025 48.9911 34.4509 51.1458 35.0409 53.2399C35.2404 53.9289 36.2711 53.5012 36.0738 52.8166C34.9913 49.0764 34.8888 45.0584 35.2107 41.2014C35.5557 37.0775 36.4232 32.9658 37.875 29.0889C38.6158 27.1158 39.5131 25.1889 40.6595 23.4163C41.0464 22.8167 40.1734 22.1211 39.7776 22.7241H39.7831Z" fill="#841918"/>
<path d="M28.1034 109.871C28.562 109.32 29.1132 108.726 29.7569 108.383C30.3621 108.061 30.8075 108.42 31.1294 108.934C31.8249 110.051 32.1292 111.709 31.5604 112.931C31.0908 113.941 29.8881 114.678 28.8045 114.188C27.7452 113.709 27.108 112.413 26.8203 111.346C26.4786 110.05 26.5767 108.607 27.5291 107.598C28.0219 107.073 27.1411 106.386 26.6473 106.906C25.5306 108.094 25.3245 109.848 25.6816 111.386C26.0355 112.896 26.8942 114.597 28.4011 115.238C29.9829 115.914 31.6915 114.996 32.4797 113.575C33.355 111.99 32.9647 109.796 32.0454 108.315C31.5361 107.493 30.6653 106.918 29.6765 107.212C28.6877 107.507 27.8554 108.416 27.2227 109.178C26.763 109.729 27.6405 110.422 28.099 109.87L28.1034 109.871Z" fill="#841918"/>
<path d="M35.0518 34.3185C30.9655 42.0921 28.8424 50.73 27.2153 59.3073C25.4384 68.6771 24.2743 78.1572 24.3978 87.71C24.4529 92.0091 24.0009 96.6752 25.8683 100.684C26.1703 101.334 27.2054 100.915 26.9012 100.261C25.2554 96.7337 25.5067 92.5845 25.51 88.7848C25.5155 84.1935 25.6103 79.6354 26.0403 75.0629C26.4812 70.335 27.1845 65.6391 28.0399 60.9685C28.8115 56.7333 29.6934 52.5103 30.8431 48.3578C32.1428 43.6718 33.8106 39.0729 36.077 34.7616C36.4077 34.1256 35.3847 33.6869 35.0518 34.3207V34.3185Z" fill="#841918"/>
<path d="M18.8048 100.462C18.641 100.062 18.6052 99.6205 18.7023 99.1989L17.6 99.1934C17.6708 99.7711 17.8775 100.324 18.2033 100.806C18.5292 101.288 18.9647 101.686 19.4742 101.968C19.9837 102.249 20.5527 102.406 21.1344 102.424C21.7161 102.443 22.294 102.324 22.8206 102.076C22.9555 102.018 23.0626 101.909 23.1193 101.773C23.176 101.638 23.178 101.486 23.1248 101.348C23.0678 101.212 22.9595 101.104 22.8234 101.047C22.6873 100.99 22.5342 100.989 22.3973 101.044C22.0294 101.23 21.6222 101.323 21.2102 101.318C20.7983 101.312 20.3939 101.206 20.0315 101.01C19.6691 100.814 19.3594 100.534 19.1289 100.192C18.8985 99.8505 18.754 99.4584 18.7078 99.049C18.6894 98.9158 18.6235 98.7938 18.5222 98.7055C18.4209 98.6171 18.2911 98.5684 18.1566 98.5684C18.0234 98.5696 17.895 98.618 17.7941 98.705C17.6931 98.792 17.6263 98.9119 17.6055 99.0435C17.478 99.6612 17.5391 100.303 17.7807 100.885C18.053 101.547 19.087 101.128 18.8136 100.462H18.8048Z" fill="#841918"/>
<path d="M23.593 100.818L24.7846 101.397C24.9187 101.446 25.0664 101.442 25.1975 101.385C25.3285 101.329 25.433 101.224 25.4894 101.093C25.5458 100.962 25.5499 100.814 25.5008 100.68C25.4517 100.546 25.3532 100.436 25.2255 100.372L24.0339 99.7944C23.8991 99.7415 23.7491 99.7431 23.6155 99.7989C23.4819 99.8546 23.3752 99.9601 23.3179 100.093C23.2607 100.226 23.2574 100.376 23.3087 100.511C23.36 100.647 23.4619 100.757 23.593 100.818Z" fill="#841918"/>
<path d="M32.4408 121.134C32.3118 124.318 32.5599 127.79 34.2123 130.599C34.8538 131.689 35.7423 132.633 36.8722 133.22C38.27 133.946 39.8794 133.896 41.3995 133.703C42.1105 133.613 41.9694 132.506 41.2551 132.601C39.9246 132.77 38.5378 132.841 37.3164 132.2C36.3144 131.674 35.5527 130.759 35.017 129.775C33.6457 127.23 33.4307 124.127 33.5465 121.294C33.5751 120.583 32.4695 120.42 32.4441 121.139L32.4408 121.134Z" fill="#841918"/>
<path d="M38.1674 26.2796C36.5139 30.2138 34.8273 34.1612 33.7679 38.306C32.8067 42.0683 32.3658 46.1094 33.2168 49.9389C33.6511 51.9077 34.4845 53.7839 35.8337 55.2974C36.0729 55.5652 36.4664 55.1695 36.2283 54.9027C33.8186 52.2009 33.252 48.399 33.349 44.9002C33.4593 40.7785 34.6487 36.765 36.0784 32.9266C36.8941 30.7363 37.8058 28.5823 38.7108 26.4284C38.8497 26.0977 38.3106 25.9533 38.1729 26.2796H38.1674Z" fill="#841918"/>
<path d="M27.6963 91.4746C27.6937 93.2511 27.9799 95.0162 28.544 96.7008C28.6542 97.0392 29.1966 96.8937 29.0819 96.5519C28.5317 94.9158 28.2521 93.2008 28.2541 91.4746C28.2541 91.1152 27.7029 91.1152 27.6963 91.4746Z" fill="#841918"/>
<path d="M29.8476 91.0476C29.7018 92.233 29.8436 93.4361 30.261 94.5552C30.2823 94.6254 30.3297 94.6848 30.3935 94.7211C30.4573 94.7574 30.5326 94.7679 30.6038 94.7503C30.6748 94.7302 30.7351 94.683 30.7716 94.6189C30.8081 94.5547 30.8179 94.4788 30.7989 94.4075C30.3985 93.3357 30.2635 92.1829 30.4054 91.0476C30.4051 90.9736 30.3757 90.9027 30.3235 90.8503C30.2713 90.7979 30.2005 90.7682 30.1265 90.7676C30.0529 90.7693 29.9828 90.7993 29.9308 90.8515C29.8788 90.9037 29.849 90.9739 29.8476 91.0476Z" fill="#841918"/>
<defs>
<radialGradient id="paint0_radial" cx="0" cy="0" r="1" gradientUnits="userSpaceOnUse" gradientTransform="translate(32294.8 16318.8) scale(1744.35)">
<stop stop-color="#F9697C"/>
<stop offset="0.17" stop-color="#F96D7F"/>
<stop offset="0.34" stop-color="#FA7989"/>
<stop offset="0.51" stop-color="#FB8D99"/>
<stop offset="0.67" stop-color="#FCA8B0"/>
<stop offset="0.84" stop-color="#FDCCCD"/>
<stop offset="1" stop-color="#FFF6F0"/>
</radialGradient>
</defs>
</svg>
