<svg width="541" height="455" viewBox="0 0 541 455" fill="none" xmlns="http://www.w3.org/2000/svg">
<mask id="mask0" mask-type="alpha" maskUnits="userSpaceOnUse" x="0" y="0" width="541" height="455">
<rect x="0.00195312" y="0.493652" width="540" height="453.946" fill="#C4C4C4"/>
</mask>
<g mask="url(#mask0)">
<path opacity="0.8" d="M493.078 608.835C765.38 608.835 1125.71 483.114 1125.71 346.602C1125.71 226.342 826.195 77.0894 454.271 73.5791C448.15 205.15 134.176 509.897 -294.137 460.102C127.925 630.157 541.652 442.551 687.114 256.375C845.078 256.375 990.67 310.979 990.67 386.386C990.67 453.732 842.734 513.407 760.561 531.998C728.656 503.136 721.494 477.783 725.27 427.209C725.27 427.209 494.119 607.795 493.078 608.445" fill="#E30613"/>
</g>
</svg>
